<?xml version="1.0" encoding="UTF-8"?>
<svg id="Female_Front" data-name="Female Front" xmlns="http://www.w3.org/2000/svg" viewBox="0 0 102.05 442.42">
  <defs>
    <style>
      .cls-1 {
        fill: #fff;
      }
    </style>
  </defs>
  <g id="Bodymap_Female_Back" data-name="Bodymap Female Back">
    <g id="Leg_L" data-name="Leg L">
      <g id="Foot">
        <path d="M34.68,442.3c-6.1,0-11.57-.6-11.57-7.91,0-4.98,2.12-11.54,3.82-16.81,1.01-3.14,1.89-5.86,2.14-7.65,2.46.82,5.17,1.24,8.05,1.24,1.42,0,2.9-.1,4.4-.3-.16,3.54.55,7.64,1.3,11.97.67,3.88,1.37,7.9,1.37,11.46,0,6.95-1.74,8-7.74,8h-1.78Z"/>
        <path class="cls-1" d="M29.17,410.09c2.44.8,5.11,1.2,7.95,1.2,1.38,0,2.81-.1,4.27-.28-.14,3.52.56,7.57,1.3,11.85.67,3.88,1.36,7.89,1.37,11.44,0,6.84-1.71,7.87-7.61,7.87h-.88s-.9,0-.9,0c-6.26,0-11.45-.59-11.45-7.78,0-4.96,2.11-11.51,3.81-16.77.99-3.06,1.85-5.73,2.12-7.52M28.96,409.76c-.58,4.71-5.98,16.62-5.98,24.63s5.96,8.03,11.7,8.03c.6,0,1.19,0,1.77,0,6.21,0,7.86-1.29,7.86-8.12,0-7.49-3.02-16.77-2.66-23.58-1.53.21-3.04.32-4.53.32-2.84,0-5.58-.4-8.16-1.28h0Z"/>
      </g>
      <g id="Ankle">
        <path d="M37.12,410.92c-2.87,0-5.57-.42-8.02-1.24.32-2.23-.41-3.33-1.06-4.31-.46-.7-.87-1.3-.86-2.23,0-1.34.3-2.37.59-3.37.26-.92.51-1.78.51-2.81,0-2.77,3.26-3.76,6.05-3.76,3.45,0,7.01,1.41,7.01,3.76-.01,2.39.38,2.98.77,3.55.35.51.67,1,.67,2.92,0,1.82-.25,2.5-.54,3.3-.29.79-.62,1.68-.71,3.88-1.51.2-2.99.31-4.41.31Z"/>
        <path class="cls-1" d="M34.34,393.33h0c3.39,0,6.89,1.36,6.89,3.63-.01,2.43.39,3.04.79,3.62.34.5.65.97.65,2.85,0,1.8-.25,2.47-.53,3.25-.29.78-.61,1.67-.72,3.82-1.46.19-2.91.29-4.29.29-2.82,0-5.47-.4-7.88-1.2.29-2.21-.44-3.31-1.09-4.29-.45-.68-.84-1.27-.84-2.16,0-1.32.3-2.35.58-3.34.27-.93.52-1.8.52-2.84,0-2.68,3.19-3.63,5.92-3.63M34.33,393.08c-3.16,0-6.17,1.19-6.17,3.88,0,2.12-1.1,3.6-1.1,6.18-.02,2.33,2.51,2.78,1.9,6.62,2.57.88,5.32,1.28,8.16,1.28,1.49,0,3.01-.11,4.53-.32.18-4.46,1.26-3.55,1.26-7.29,0-4.05-1.47-1.9-1.44-6.47,0-2.44-3.66-3.88-7.14-3.88h0Z"/>
      </g>
      <g id="Calf">
        <path d="M28.17,396.01c-2.45-19.89-6.41-53.22-6.41-60.92,0-5.57.67-9.22,1.32-12.75.64-3.46,1.29-7.03,1.31-12.37,3.11,1.51,6.27,2.28,9.38,2.28s6.27-.77,9.38-2.28c0,7.28.34,10.76.66,14.14.3,3.17.59,6.17.57,12.06-.03,8.76-2.05,44.01-2.97,59.82-.8-1.93-3.98-3.05-7.07-3.05-2.57,0-5.52.82-6.17,3.06Z"/>
        <path class="cls-1" d="M24.51,310.18c3.07,1.46,6.19,2.21,9.26,2.21s6.18-.74,9.25-2.21c.01,7.15.34,10.61.66,13.95.3,3.17.59,6.16.57,12.05-.03,8.68-2.01,43.35-2.95,59.36-1.08-1.72-4.06-2.71-6.97-2.71-1.71,0-3.27.34-4.39.96-.81.45-1.38,1.03-1.71,1.73-2.45-19.94-6.35-52.79-6.35-60.42,0-5.56.67-9.2,1.32-12.73.63-3.42,1.28-6.95,1.31-12.19M43.27,309.78c-3.17,1.57-6.33,2.36-9.5,2.36s-6.34-.79-9.51-2.36c0,10.92-2.63,14.21-2.63,25.32,0,7.81,4.1,42.22,6.53,61.91v-.05c0-2.7,3.01-3.88,6.17-3.88,3.48,0,7.14,1.44,7.14,3.88,1.13-19.19,3-52.27,3.03-60.78.04-12.19-1.23-12.05-1.23-26.4h0Z"/>
      </g>
      <g id="Popliteal">
        <path d="M33.77,312.01c-3.11,0-6.27-.78-9.38-2.31,0-2.2-.01-4.56-.03-6.87,0-1.64-.02-3.25-.02-4.76,2.53-1.14,5.19-1.71,7.93-1.71,3.42,0,6.98.86,10.89,2.62.41,3.17.4,6.68,0,10.71-3.11,1.53-6.27,2.31-9.38,2.31Z"/>
        <path class="cls-1" d="M32.27,296.49h0c3.38,0,6.91.85,10.78,2.59.39,3.13.39,6.59,0,10.55-3.08,1.5-6.19,2.27-9.27,2.27s-6.18-.76-9.26-2.26c0-2.19-.01-4.53-.03-6.82,0-1.6-.02-3.18-.02-4.65,2.49-1.11,5.11-1.67,7.8-1.67M32.27,296.24c-2.69,0-5.37.54-8.05,1.75.01,3.67.05,7.98.05,11.79,3.17,1.57,6.34,2.35,9.51,2.35s6.34-.79,9.5-2.35c.39-3.83.44-7.48,0-10.88-3.66-1.66-7.33-2.67-11.01-2.66h0Z"/>
      </g>
      <g id="Hamstring">
        <path d="M43.15,298.71c-3.91-1.75-7.47-2.6-10.89-2.6-2.74,0-5.41.57-7.94,1.69-.57-9.31-2.11-21.1-3.73-33.57-3.15-24.19-6.7-51.52-4.46-69.98.34,8.72,3.56,21.63,19.69,21.63,6.06,0,10.37-2.69,12.83-8.01.21,13.62-1.1,28.78-2.47,44.82-1.25,14.52-2.54,29.53-3.04,46.01Z"/>
        <path class="cls-1" d="M16.1,195.75c.65,8.68,4.39,20.26,19.73,20.26,5.92,0,10.2-2.56,12.72-7.6.17,13.48-1.12,28.45-2.48,44.27-1.24,14.46-2.53,29.42-3.04,45.84-3.85-1.7-7.38-2.53-10.77-2.53-2.7,0-5.33.55-7.82,1.63-.58-9.29-2.1-21.01-3.72-33.4-3.06-23.55-6.51-50.06-4.63-68.47M16.23,192.6c-4.02,27.79,6.3,77.54,7.98,105.39,2.68-1.22,5.36-1.76,8.05-1.75,3.67,0,7.35,1.01,11.01,2.66,1.08-35.75,5.98-65.93,5.51-91.59-2.07,4.84-5.92,8.45-12.95,8.45-16.33,0-19.57-13.3-19.6-23.03v-.13h0Z"/>
      </g>
    </g>
    <g id="Leg_R" data-name="Leg R">
      <g id="Foot-2" data-name="Foot">
        <path d="M65.59,442.29c-5.99,0-7.74-1.05-7.74-8,0-3.56.7-7.58,1.37-11.46.75-4.34,1.46-8.43,1.3-11.97,1.5.2,2.98.3,4.4.3,2.88,0,5.59-.42,8.05-1.24.25,1.79,1.13,4.51,2.14,7.65,1.7,5.27,3.82,11.83,3.82,16.81,0,3.4-1.19,5.62-3.62,6.78-2.19,1.04-5.12,1.13-7.95,1.13h-1.78Z"/>
        <path class="cls-1" d="M72.88,410.09c.28,1.8,1.14,4.46,2.12,7.52,1.7,5.26,3.81,11.82,3.81,16.77,0,7.2-5.18,7.78-11.45,7.78h-.9s-.88,0-.88,0c-5.9,0-7.61-1.03-7.61-7.87,0-3.55.7-7.56,1.37-11.44.74-4.28,1.44-8.33,1.3-11.85,1.46.19,2.89.28,4.27.28,2.84,0,5.52-.4,7.95-1.2M73.08,409.76c-2.57.88-5.32,1.28-8.16,1.28-1.49,0-3.01-.11-4.53-.32.36,6.81-2.65,16.09-2.66,23.58,0,6.83,1.65,8.12,7.86,8.12.58,0,1.18,0,1.77,0,5.74,0,11.7-.36,11.7-8.03s-5.4-19.92-5.98-24.63h0Z"/>
      </g>
      <g id="Ankle-2" data-name="Ankle">
        <path d="M64.93,410.92c-1.42,0-2.91-.1-4.41-.31-.1-2.21-.42-3.1-.71-3.88-.29-.79-.54-1.48-.54-3.3,0-1.92.33-2.41.67-2.92.38-.57.78-1.15.77-3.55,0-2.35,3.57-3.76,7.01-3.76,2.79,0,6.05.98,6.05,3.76,0,1.02.25,1.89.51,2.81.29,1,.59,2.04.59,3.37,0,.92-.39,1.53-.86,2.23-.65.97-1.38,2.08-1.06,4.31-2.45.82-5.14,1.24-8.02,1.24h0Z"/>
        <path class="cls-1" d="M67.71,393.33c2.73,0,5.92.95,5.92,3.63,0,1.04.25,1.91.52,2.84.29.99.58,2.02.58,3.34,0,.88-.38,1.47-.84,2.16-.65.98-1.39,2.08-1.09,4.29-2.41.8-5.06,1.2-7.88,1.2-1.38,0-2.83-.1-4.29-.29-.1-2.15-.43-3.03-.72-3.82-.29-.78-.53-1.46-.53-3.25,0-1.89.32-2.36.65-2.85.39-.58.8-1.19.79-3.62,0-2.27,3.5-3.63,6.89-3.63M67.71,393.08c-3.48,0-7.14,1.44-7.14,3.88.03,4.57-1.44,2.42-1.44,6.47,0,3.74,1.08,2.83,1.26,7.29,1.53.21,3.04.32,4.53.32,2.84,0,5.58-.4,8.16-1.28-.61-3.84,1.92-4.29,1.9-6.62,0-2.58-1.1-4.06-1.1-6.18,0-2.7-3.01-3.88-6.17-3.88h0Z"/>
      </g>
      <g id="Shin">
        <path d="M73.88,396.01c-.64-2.24-3.6-3.06-6.17-3.06-3.09,0-6.27,1.12-7.07,3.05-.93-15.81-2.94-51.06-2.97-59.82-.02-5.89.27-8.89.57-12.06.32-3.37.65-6.86.66-14.14,3.11,1.51,6.26,2.28,9.38,2.28s6.27-.77,9.38-2.28c.02,5.34.67,8.91,1.31,12.37.65,3.53,1.32,7.19,1.32,12.75,0,7.7-3.96,41.02-6.41,60.92Z"/>
        <path class="cls-1" d="M77.54,310.18c.03,5.24.68,8.77,1.31,12.19.65,3.53,1.32,7.18,1.32,12.73,0,7.62-3.89,40.45-6.35,60.39-.92-1.94-3.68-2.67-6.11-2.67-2.91,0-5.9.99-6.97,2.71-.94-16.01-2.92-50.68-2.95-59.36-.02-5.89.27-8.88.57-12.05.32-3.35.65-6.8.66-13.95,3.07,1.46,6.18,2.21,9.25,2.21s6.19-.74,9.26-2.21M77.78,309.78c-3.17,1.57-6.34,2.36-9.51,2.36s-6.34-.79-9.5-2.36c0,14.35-1.27,14.21-1.23,26.4.03,8.51,1.9,41.59,3.03,60.78,0-2.44,3.66-3.88,7.14-3.88,3.16,0,6.17,1.19,6.17,3.88v.05c2.43-19.69,6.53-54.1,6.53-61.91,0-11.11-2.63-14.4-2.63-25.32h0Z"/>
      </g>
      <g id="Popliteal-2" data-name="Popliteal">
        <path d="M68.28,312.01c-3.11,0-6.27-.78-9.38-2.31-.41-4.03-.41-7.54,0-10.71,3.91-1.77,7.48-2.62,10.89-2.62,2.73,0,5.4.58,7.93,1.71,0,1.51-.01,3.12-.02,4.76-.01,2.31-.03,4.67-.03,6.87-3.12,1.53-6.27,2.31-9.38,2.31Z"/>
        <path class="cls-1" d="M69.78,296.49c2.69,0,5.31.56,7.8,1.67,0,1.48-.01,3.05-.02,4.65-.01,2.29-.03,4.63-.03,6.82-3.08,1.5-6.19,2.26-9.26,2.26s-6.19-.76-9.27-2.27c-.4-3.96-.4-7.41,0-10.55,3.87-1.74,7.4-2.59,10.78-2.59M69.78,296.24c-3.68,0-7.35,1.01-11.01,2.66-.44,3.4-.39,7.05,0,10.88,3.16,1.57,6.33,2.35,9.5,2.35s6.34-.79,9.51-2.35c0-3.81.04-8.12.05-11.79-2.68-1.22-5.36-1.75-8.05-1.75h0Z"/>
      </g>
      <g id="Hamstring-2" data-name="Hamstring">
        <path d="M58.89,298.71c-.5-16.49-1.79-31.5-3.04-46.02-1.38-16.03-2.68-31.19-2.47-44.82,2.46,5.31,6.78,8.01,12.83,8.01,16.13,0,19.36-12.91,19.69-21.63,2.24,18.46-1.32,45.79-4.46,69.98-1.62,12.47-3.15,24.25-3.73,33.57-2.53-1.12-5.2-1.69-7.94-1.69-3.42,0-6.98.85-10.89,2.6Z"/>
        <path class="cls-1" d="M85.95,195.75c1.89,18.41-1.56,44.92-4.63,68.47-1.61,12.4-3.14,24.11-3.72,33.4-2.5-1.08-5.13-1.63-7.82-1.63-3.39,0-6.91.83-10.77,2.53-.51-16.42-1.79-31.37-3.04-45.84-1.36-15.82-2.65-30.79-2.48-44.27,2.52,5.04,6.79,7.6,12.72,7.6,15.34,0,19.08-11.59,19.73-20.26M85.81,192.6v.13c-.03,9.73-3.27,23.03-19.6,23.03-7.03,0-10.88-3.61-12.95-8.45-.47,25.66,4.43,55.84,5.51,91.59,3.66-1.66,7.33-2.66,11.01-2.66,2.69,0,5.37.54,8.05,1.75,1.68-27.85,12-77.6,7.98-105.39h0Z"/>
      </g>
    </g>
    <g id="Butt">
      <path d="M66.21,215.64c-6.14,0-10.46-2.82-12.83-8.37l-.05-.11-.11.05c-.83.35-1.55.53-2.19.54-.64,0-1.36-.19-2.19-.54l-.11-.05-.05.11c-2.38,5.56-6.69,8.37-12.83,8.37-16.88,0-19.45-14.35-19.47-22.91v-.13c.07-1.01.16-1.94.26-2.81.52-4.65,1.35-7.38,2.71-11.88,8.87,4.27,19.31,6.44,31.04,6.44h1.29c11.73,0,22.18-2.17,31.05-6.44,1.36,4.5,2.19,7.23,2.7,11.82.11.93.2,1.86.27,2.88v.12c-.03,8.55-2.59,22.9-19.47,22.9Z"/>
      <path class="cls-1" d="M82.64,178.09c1.34,4.41,2.15,7.12,2.66,11.66v.04s0,0,0,0c0,0,0,0,0,0,.11.96.2,1.88.26,2.79v.13c-.03,8.51-2.57,22.78-19.35,22.78-6.09,0-10.37-2.79-12.72-8.3l-.1-.23-.23.1c-.82.35-1.52.52-2.14.53-.63,0-1.33-.18-2.15-.53l-.23-.1-.1.23c-2.35,5.51-6.63,8.3-12.72,8.3-16.78,0-19.32-14.27-19.35-22.78v-.11c.06-.92.15-1.83.26-2.81h0s0-.06,0-.06c.51-4.53,1.32-7.25,2.66-11.66,8.86,4.24,19.27,6.39,30.97,6.39h.65s.65,0,.65,0c11.69,0,22.11-2.15,30.97-6.39M82.79,177.74c-8.93,4.33-19.29,6.49-31.12,6.49-.22,0-.43,0-.65,0-.22,0-.43,0-.65,0-11.83,0-22.2-2.16-31.12-6.49-1.38,4.55-2.23,7.33-2.75,11.98-.01.02-.01.04-.01.06-.1.87-.19,1.8-.26,2.82v.13c.03,9.73,3.27,23.03,19.6,23.03,7.03,0,10.88-3.61,12.95-8.45.75.32,1.51.54,2.24.55.73,0,1.49-.23,2.24-.55,2.07,4.84,5.92,8.45,12.95,8.45,16.33,0,19.57-13.3,19.6-23.03v-.13c-.07-1.02-.16-1.95-.26-2.82,0-.02,0-.04-.01-.06-.52-4.65-1.37-7.43-2.75-11.98h0Z"/>
    </g>
    <g id="Back_Lower" data-name="Back Lower">
      <path d="M50.38,184.11c-11.71,0-22.13-2.17-30.98-6.44,2.37-7.86,5.5-14.43,8.01-19.71,1.55-3.26,2.89-6.08,3.57-8.25,6.72,2.16,13.25,3.21,19.95,3.21h.18c6.7,0,13.23-1.05,19.95-3.21.68,2.17,2.02,4.99,3.57,8.25,2.51,5.28,5.63,11.84,8.01,19.71-8.84,4.27-19.26,6.43-30.97,6.43h-1.3Z"/>
      <path class="cls-1" d="M70.98,149.87c.69,2.16,2.02,4.94,3.54,8.15,2.5,5.25,5.6,11.77,7.97,19.6-8.8,4.23-19.17,6.38-30.82,6.38h-.65s-.65,0-.65,0c-11.65,0-22.02-2.15-30.82-6.38,2.37-7.82,5.48-14.34,7.97-19.6,1.52-3.2,2.85-5.98,3.54-8.15,6.69,2.14,13.19,3.18,19.86,3.18h.09s.09,0,.09,0c6.67,0,13.17-1.04,19.86-3.18M71.14,149.55c-6.69,2.16-13.31,3.24-20.03,3.24-.03,0-.06,0-.09,0-.03,0-.06,0-.09,0-6.72,0-13.34-1.08-20.03-3.24-1.7,5.56-7.73,15.15-11.65,28.18h0c8.93,4.34,19.29,6.5,31.12,6.5.22,0,.43,0,.65,0,.22,0,.43,0,.65,0,11.83,0,22.2-2.16,31.12-6.49h0c-3.92-13.04-9.95-22.63-11.65-28.19h0Z"/>
    </g>
    <g id="Back_Upper" data-name="Back Upper">
      <path d="M51.02,152.67c-6.78,0-13.3-1.05-20.01-3.21l-7.64-34.35c1.38-4.6,1.79-8.52,1.22-11.6,6.73-1.65,11.84-7.15,13.03-14.04,1.26-7.26-2.05-14.19-9.11-19.15,5.91,2.17,13.16,3.22,22.12,3.22h.77c8.96,0,16.22-1.05,22.13-3.22-7.06,4.96-10.37,11.89-9.11,19.15,1.2,6.89,6.3,12.39,13.03,14.04-.57,3.08-.16,7,1.22,11.66l-7.65,34.29c-6.71,2.16-13.23,3.21-19.92,3.21h-.09Z"/>
      <path class="cls-1" d="M29.29,70.72c5.77,1.98,12.78,2.94,21.35,2.94h.39s.39,0,.39,0c8.57,0,15.58-.96,21.35-2.94-6.61,4.95-9.68,11.7-8.46,18.77,1.2,6.9,6.29,12.41,13.01,14.11-.54,3.07-.12,6.95,1.23,11.54l-7.61,34.22c-6.68,2.14-13.16,3.18-19.81,3.18h-.09s-.09,0-.09,0c-6.65,0-13.14-1.04-19.81-3.18l-7.61-34.22c1.36-4.6,1.77-8.48,1.23-11.54,6.72-1.69,11.81-7.21,13.01-14.11,1.23-7.07-1.84-13.82-8.46-18.77M74.5,69.81c-6.52,2.6-14.39,3.6-23.09,3.6-.13,0-.26,0-.39,0-.13,0-.26,0-.39,0-8.71,0-16.57-1-23.09-3.6,16.93,11.02,10.61,30.34-3.1,33.6.55,2.83.3,6.66-1.2,11.72l7.66,34.42c6.69,2.16,13.31,3.24,20.03,3.24.03,0,.06,0,.09,0,.03,0,.06,0,.09,0,6.72,0,13.34-1.08,20.03-3.24l7.66-34.42c-1.5-5.06-1.75-8.89-1.2-11.72-13.71-3.26-20.03-22.58-3.1-33.6h0Z"/>
    </g>
    <g id="Arm_L" data-name="Arm L">
      <g id="Arm_Lower" data-name="Arm Lower">
        <path d="M99.76,219.25c-1.18-.86-2.36-1.28-3.6-1.28-1,0-2.06.28-3.21.84-.77-7.88-2.34-16.02-3.86-23.89-2.61-13.49-5.3-27.44-3.98-40.42,1.79-1.35,4.16-2.14,6.62-2.14,1.87,0,3.72.45,5.34,1.3,5.45,10.61,6.25,29.63,2.68,65.59Z"/>
        <path class="cls-1" d="M91.73,152.49h0c1.82,0,3.63.43,5.21,1.25,5.45,10.63,6.24,29.58,2.71,65.29-1.14-.79-2.29-1.17-3.49-1.17-.98,0-2,.26-3.11.78-.77-7.83-2.33-15.91-3.84-23.72-2.6-13.45-5.28-27.35-3.98-40.28,1.8-1.38,4.11-2.14,6.5-2.14M91.73,152.24c-2.39,0-4.79.73-6.74,2.25-2.11,20.62,5.8,43.06,7.85,64.52,1.14-.58,2.23-.91,3.32-.91,1.22,0,2.44.42,3.7,1.38,3.6-36.23,2.79-55.24-2.73-65.93-1.65-.87-3.52-1.31-5.4-1.31h0Z"/>
      </g>
      <g id="Hand">
        <g>
          <path d="M91.5,250.4c-1.78,0-5.07-1.05-5.07-2.56,0-.36.18-.51.59-.51.49,0,1.2.22,1.96.45.81.25,1.64.51,2.28.51.61-.03,1.32-.42,2.11-1.17.17-.15.34-.31.5-.48l.12-.12c.08-.09.16-.17.24-.26l.07-.08c.06-.06.11-.12.16-.19.16-.18.32-.36.47-.54-.05.26-.1.52-.15.78-.04.24-.1.48-.15.72l-.06.26-.12.48c-.07.31-.16.62-.25.9-.04.15-.09.29-.14.42-.09.27-.19.52-.29.74-.79.41-1.58.65-2.28.65Z"/>
          <path class="cls-1" d="M94.72,245.89c-.02.11-.04.21-.06.32-.04.23-.1.47-.15.7l-.06.26-.12.49c-.08.34-.18.67-.25.9-.04.14-.09.28-.14.42-.07.21-.15.42-.25.65-.8.43-1.54.65-2.19.65-1.91,0-4.94-1.11-4.94-2.43,0-.25.07-.38.47-.38.47,0,1.21.23,1.92.45.82.25,1.66.52,2.32.52h0c.64-.03,1.37-.44,2.17-1.2.18-.16.35-.32.52-.5l.12-.12c.08-.09.16-.17.24-.26l.07-.08c.06-.06.11-.12.15-.18.06-.06.11-.13.17-.19M95.13,245.01c-.23.27-.48.58-.77.9-.07.09-.15.17-.23.26-.11.13-.23.25-.35.38-.16.17-.33.33-.5.48-.65.62-1.37,1.11-2.02,1.14-1.19,0-3.17-.96-4.23-.96-.44,0-.72.17-.72.63,0,1.6,3.35,2.68,5.19,2.68.87,0,1.72-.35,2.39-.72.1-.23.2-.48.29-.75.05-.14.1-.28.14-.43.09-.29.18-.6.25-.91.04-.16.08-.32.12-.48.07-.32.15-.65.21-.98.08-.42.16-.84.23-1.24h0Z"/>
        </g>
        <g>
          <path d="M91.84,247.2c-1.28,0-2.82-.56-3.51-1.28-.22-.23-.33-.46-.32-.66,0-.23.48-.26.76-.26.61,0,1.44.13,2.11.24.47.08.84.14,1.04.14.53,0,2.2-.94,3.32-1.85l-.14.84c-.02.14-.04.28-.07.43l-.03.21-.19.2c-.17.2-.35.42-.55.64-.05.07-.1.12-.15.18l-.08.08c-.07.09-.15.17-.23.25l-.12.13-.19.19c-.1.1-.2.19-.3.28-.35.17-.82.26-1.36.26Z"/>
          <path class="cls-1" d="M95.07,243.82c-.03.17-.06.35-.09.53-.02.14-.04.27-.07.43v.1s-.02.03-.02.03l-.17.2c-.17.2-.35.42-.56.66-.04.06-.09.11-.14.16l-.08.09c-.07.08-.15.16-.22.24l-.11.11c-.07.07-.14.13-.2.2-.09.09-.17.17-.26.25-.36.17-.8.25-1.3.25-1.25,0-2.75-.54-3.42-1.24-.14-.14-.3-.36-.29-.58,0-.03.11-.13.64-.13.6,0,1.42.13,2.09.24.48.08.85.14,1.06.14.51,0,2.02-.83,3.15-1.68M95.42,243.21c-1.14,1-3.01,2.04-3.5,2.04s-2.11-.38-3.15-.38c-.52,0-.89.09-.89.38-.04.97,2.11,2.07,3.96,2.07.52,0,1.02-.09,1.44-.29.17-.15.33-.32.5-.48.12-.13.24-.25.35-.38.08-.09.16-.17.23-.26.29-.32.54-.63.77-.9.01-.07.02-.13.03-.2.03-.15.05-.29.07-.43.07-.41.13-.81.19-1.17h0Z"/>
        </g>
        <g id="Thumb">
          <path d="M88.97,240.76c-.27,0-.48-.08-.6-.21-.09-.11-.12-.25-.09-.44.78-4.45.79-8.2.79-10.94,0-1.11,0-2.03.05-2.74.54,3.37,3.58,4.18,4.62,4.36-.47.52-.94,2.04-1.65,4.35-.52,1.72-1.06,3.49-1.64,4.76-.25.56-.96.86-1.5.86Z"/>
          <path class="cls-1" d="M89.22,227.32c.83,2.55,3.21,3.32,4.31,3.55-.41.61-.84,1.93-1.54,4.23-.52,1.71-1.06,3.49-1.63,4.74-.22.49-.88.79-1.38.79-.23,0-.41-.06-.5-.17-.07-.08-.09-.19-.06-.33.78-4.46.79-8.22.79-10.96,0-.68,0-1.3.02-1.85M89.17,225.34c-.55,1.88.28,7.41-1.01,14.75-.1.55.3.79.81.79.6,0,1.34-.34,1.61-.93,1.39-3.05,2.62-9.24,3.53-9.24,0,0-4.94-.34-4.94-5.37h0Z"/>
        </g>
        <g id="Hand-2" data-name="Hand">
          <path d="M89.9,255.54c-.75,0-.75-.41-.75-.55.05-1.56,1.33-2.31,2.56-3.05,1-.59,1.93-1.15,2.29-2.1.1-.23.2-.48.29-.75.05-.14.1-.28.14-.44.09-.29.18-.6.25-.92l.12-.48.06-.26c.05-.24.11-.48.15-.73.08-.42.16-.84.23-1.24l.03-.2c.03-.15.05-.29.07-.43,0,0,.21-1.3.22-1.34.2-1.27.56-10.47-.91-12.18-.17-.19-.35-.29-.56-.29-.19-.01-4.81-.39-4.81-5.25.61-2.11,3.62-6.21,3.65-6.26,1.14-.57,2.21-.86,3.22-.86,1.24,0,2.43.44,3.62,1.36.72,5.56,1.4,15.5,1.4,21.17,0,2.3-3.04,9.39-5.26,11.61-1.63,1.63-4.56,3.18-6.02,3.18Z"/>
          <path class="cls-1" d="M96.16,218.1v.25c1.19,0,2.32.42,3.47,1.27.77,5.66,1.43,15.49,1.43,21.13,0,2.28-3.02,9.32-5.23,11.52-1.62,1.62-4.5,3.14-5.93,3.14-.62,0-.62-.29-.62-.42.05-1.49,1.24-2.2,2.5-2.95.97-.58,1.97-1.17,2.34-2.15.12-.27.22-.52.3-.77.05-.15.1-.29.14-.44.07-.23.18-.58.25-.92l.12-.49.06-.27c.05-.24.11-.48.15-.72.08-.42.16-.84.23-1.25v-.1s.03-.09.03-.09c.03-.15.05-.3.07-.44.04-.23.08-.47.11-.69l.07-.4.03-.03v-.1s0-.09.02-.13c.2-1.27.55-10.54-.93-12.27-.19-.22-.41-.33-.63-.33,0,0,0,0,0,0-.19-.01-4.68-.39-4.71-5.09.59-2.01,3.25-5.71,3.59-6.17,1.15-.58,2.18-.86,3.15-.86v-.25M96.16,218.1c-1.09,0-2.19.33-3.32.91,0,0-3.04,4.14-3.67,6.33,0,5.03,4.94,5.37,4.94,5.37,1.9,0,1.59,10.7,1.34,12.32-.01.05-.02.11-.02.17h0c-.06.37-.12.77-.19,1.18-.02.14-.04.28-.07.43-.01.07-.02.13-.03.2-.07.4-.15.82-.23,1.24-.06.33-.14.66-.21.98-.04.16-.08.32-.12.48-.07.31-.16.62-.25.91-.04.15-.09.29-.14.43-.09.27-.19.52-.29.75-.79,2.1-4.76,2.32-4.86,5.19,0,.47.34.68.87.68,1.46,0,4.4-1.51,6.11-3.22,2.33-2.33,5.3-9.42,5.3-11.7,0-5.38-.65-15.42-1.45-21.27-1.26-.96-2.48-1.38-3.7-1.38h0Z"/>
        </g>
      </g>
      <g id="Arm_Upper" data-name="Arm Upper">
        <path d="M85.09,154.26c-.57-3.87-1.32-7.57-2.05-11.16-.85-4.19-1.66-8.14-2.14-12.15-.25-2.06-.46-3.97-.66-5.77-.41-3.69-.76-6.88-1.3-10.08-1.37-4.63-1.78-8.51-1.22-11.55.71.17,1.44.29,2.17.36.6.06,1.22.09,1.83.09,4.08,0,8.21-1.33,12.28-3.95,1.83,10.15,1.79,18.45,1.76,27.23-.03,7.85-.06,15.97,1.24,26.03-1.61-.8-3.42-1.22-5.25-1.22-2.44,0-4.79.76-6.65,2.15Z"/>
        <path class="cls-1" d="M93.89,100.27c1.79,10.06,1.76,18.3,1.72,27.03-.03,7.8-.06,15.86,1.21,25.82-1.57-.74-3.32-1.13-5.09-1.13-2.39,0-4.7.73-6.55,2.05-.56-3.79-1.31-7.43-2.03-10.96-.85-4.18-1.66-8.13-2.14-12.14-.25-2.07-.46-3.97-.66-5.78-.41-3.69-.76-6.88-1.31-10.1-1.34-4.53-1.76-8.35-1.24-11.35.67.15,1.36.26,2.06.34.61.06,1.23.09,1.84.09,4.05,0,8.15-1.3,12.19-3.87M94.07,99.86c-4.33,2.82-8.54,4.03-12.37,4.03-.62,0-1.22-.03-1.82-.09-.78-.08-1.54-.21-2.28-.39-.55,2.83-.3,6.66,1.2,11.72.8,4.76,1.2,9.58,1.96,15.84.91,7.58,3.02,15.14,4.23,23.52,1.95-1.52,4.35-2.25,6.74-2.25,1.88,0,3.75.45,5.4,1.31-2.81-21.5.47-34.26-3.06-53.69h0Z"/>
      </g>
      <g id="Shoulder">
        <path d="M81.7,103.77c-.6,0-1.21-.03-1.81-.09-.77-.08-1.53-.21-2.26-.39-6.69-1.59-11.77-7.03-12.96-13.86-1.29-7.45,2.3-14.54,9.85-19.48l9.32,2.82c4.95,1.5,8.53,5.97,8.91,11.12.07.9,1.08,14.64,1.18,15.91-4.06,2.64-8.18,3.97-12.24,3.97,0,0,0,0,0,0Z"/>
        <path class="cls-1" d="M74.54,70.08l9.27,2.81c4.9,1.49,8.44,5.91,8.82,11.01.06.88,1.05,14.17,1.18,15.83-4.02,2.6-8.09,3.91-12.11,3.91-.6,0-1.2-.03-1.79-.09-.76-.08-1.52-.21-2.25-.38-6.64-1.58-11.69-6.98-12.86-13.76-.61-3.5-.86-12.36,9.75-19.32M74.5,69.81c-16.93,11.02-10.61,30.34,3.1,33.6.74.18,1.5.31,2.28.39.6.06,1.2.09,1.82.09,3.83,0,8.04-1.21,12.37-4.03-.05-.58-1.11-14.88-1.19-15.98-.39-5.24-3.97-9.7-9-11.23l-9.38-2.84h0Z"/>
      </g>
    </g>
    <g id="Arm_R" data-name="Arm R">
      <g id="Hand-3" data-name="Hand">
        <g>
          <path d="M10.54,250.4c-.7,0-1.48-.24-2.33-.7-.04-.17-.14-.41-.23-.68-.05-.14-.1-.28-.14-.42-.09-.29-.18-.6-.25-.91l-.12-.48-.06-.25c-.05-.24-.11-.48-.15-.72-.05-.26-.1-.52-.15-.78.15.17.3.36.47.54.04.06.1.12.16.18l.07.08c.07.09.15.17.24.26l.12.12c.16.17.34.34.51.49.78.75,1.49,1.14,2.1,1.17h0c.64,0,1.47-.26,2.28-.51.75-.23,1.46-.45,1.96-.45.42,0,.59.15.59.51,0,1.5-3.29,2.56-5.06,2.56Z"/>
          <path class="cls-1" d="M7.33,245.89c.05.06.1.12.16.18.05.07.11.13.17.19l.07.08c.08.09.16.18.24.27l.12.12c.17.18.34.34.51.49.81.77,1.54,1.18,2.19,1.21.65,0,1.5-.26,2.31-.52.71-.22,1.44-.45,1.92-.45.39,0,.47.14.47.38,0,1.32-3.03,2.43-4.94,2.43-.66,0-1.4-.22-2.19-.65-.1-.23-.18-.44-.25-.66-.05-.13-.1-.27-.14-.42-.07-.22-.17-.56-.25-.9l-.12-.47-.06-.27c-.05-.23-.11-.47-.15-.7-.02-.11-.04-.21-.06-.32M6.91,245.01c.07.4.15.82.23,1.24.06.33.14.66.21.98.04.16.08.32.12.48.07.31.16.62.25.91.04.15.09.29.14.43.09.27.19.52.29.75.67.37,1.52.72,2.39.72,1.84,0,5.19-1.08,5.19-2.68,0-.47-.28-.63-.72-.63-1.06,0-3.04.96-4.23.96-.65-.03-1.37-.52-2.02-1.14-.17-.15-.34-.31-.5-.48-.12-.13-.24-.25-.35-.38-.08-.09-.16-.17-.23-.26-.29-.32-.54-.63-.77-.9h0Z"/>
        </g>
        <g>
          <path d="M10.21,247.2c-.54,0-1.01-.09-1.39-.28-.07-.07-.47-.46-.47-.46l-.11-.12c-.08-.08-.16-.16-.23-.25l-.08-.08c-.05-.06-.1-.11-.15-.17-.21-.23-.39-.44-.55-.64l-.22-.26v-.04s0-.1,0-.1c-.03-.15-.05-.28-.07-.42l-.14-.84c1.12.91,2.8,1.85,3.32,1.85.2,0,.57-.06,1.04-.14.67-.11,1.5-.24,2.11-.24.29,0,.76.03.76.25,0,.21-.1.44-.32.67-.69.72-2.23,1.28-3.51,1.28Z"/>
          <path class="cls-1" d="M6.97,243.82c1.13.86,2.64,1.68,3.15,1.68.21,0,.59-.06,1.06-.14.66-.11,1.49-.24,2.09-.24.53,0,.64.1.64.14,0,.21-.15.43-.29.57-.67.7-2.17,1.24-3.42,1.24-.51,0-.94-.08-1.3-.25-.09-.08-.18-.17-.26-.25-.07-.07-.14-.13-.19-.19l-.12-.13c-.08-.08-.15-.16-.23-.25l-.08-.09c-.05-.05-.1-.1-.15-.17-.2-.22-.38-.44-.55-.64l-.17-.2v-.03s-.02-.11-.02-.11c-.03-.15-.05-.28-.07-.42-.03-.18-.06-.35-.09-.52M6.62,243.21c.06.36.12.76.19,1.17.02.14.04.28.07.43.01.07.02.13.03.2.23.27.48.58.77.9.07.09.15.17.23.26.11.13.23.25.35.38.17.16.33.33.5.48.42.2.92.29,1.44.29,1.85,0,4-1.1,3.96-2.07,0-.28-.37-.38-.89-.38-1.04,0-2.68.38-3.15.38s-2.36-1.04-3.5-2.04h0Z"/>
        </g>
        <g id="Thumb-2" data-name="Thumb">
          <path d="M13.07,240.76c-.54,0-1.24-.3-1.5-.86-.58-1.26-1.12-3.04-1.64-4.76-.7-2.32-1.18-3.83-1.65-4.35,1.04-.18,4.08-.99,4.62-4.36.05.71.05,1.63.05,2.74,0,2.74,0,6.49.79,10.94.03.18,0,.33-.09.44-.12.14-.33.21-.6.21h0Z"/>
          <path class="cls-1" d="M12.83,227.32c.01.55.01,1.17.02,1.85,0,2.75,0,6.51.79,10.96.03.14,0,.26-.06.33-.09.11-.27.17-.5.17-.5,0-1.16-.29-1.38-.79-.57-1.26-1.11-3.03-1.63-4.74-.7-2.3-1.13-3.63-1.54-4.23,1.1-.23,3.48-1,4.31-3.55M12.87,225.34c0,5.03-4.94,5.37-4.94,5.37.91,0,2.14,6.19,3.53,9.24.27.59,1.02.93,1.61.93.51,0,.91-.25.81-.79-1.29-7.34-.46-12.87-1.01-14.75h0Z"/>
        </g>
        <g id="Hand-4" data-name="Hand">
          <path d="M12.14,255.54c-1.46,0-4.39-1.54-6.02-3.18-2.22-2.22-5.26-9.31-5.26-11.61,0-5.68.68-15.61,1.45-21.25,1.15-.83,2.33-1.27,3.58-1.27,1.01,0,2.08.29,3.26.9-.01,0,2.99,4.11,3.61,6.25,0,4.82-4.63,5.2-4.83,5.21h0c-.2,0-.38.1-.55.29-1.47,1.71-1.1,10.91-.91,12.17,0,.05.02.1.02.15v.05l.05.05.05.43.11.67c.02.14.04.28.07.43l.03.2c.07.4.15.82.23,1.24.04.24.1.49.15.73l.18.74c.07.31.16.62.25.92.04.15.09.29.14.43.09.27.19.52.29.76.35.94,1.29,1.5,2.29,2.09,1.23.73,2.51,1.49,2.56,3.05,0,.18-.06.32-.18.41-.12.09-.31.14-.56.14h0Z"/>
          <path class="cls-1" d="M5.88,218.35c.98,0,2.01.28,3.15.86.34.46,2.99,4.16,3.59,6.17-.02,4.7-4.52,5.07-4.69,5.08-.24,0-.46.11-.65.33-1.49,1.74-1.13,11-.93,12.28,0,.04.02.08.02.12v.11s.03.02.03.02l.07.4c.04.22.07.45.11.68.02.14.04.29.07.43l.02.1.02.1c.07.4.15.82.23,1.24.04.24.1.48.15.72l.06.28.12.47c.08.35.18.7.25.92.04.16.09.3.14.44.08.25.18.5.29.76.37.99,1.37,1.59,2.34,2.16,1.26.75,2.45,1.46,2.5,2.94,0,.14,0,.43-.62.43-1.43,0-4.32-1.53-5.93-3.14-2.21-2.21-5.23-9.24-5.23-11.52,0-5.64.67-15.48,1.43-21.13,1.14-.85,2.28-1.27,3.47-1.27M5.88,218.1c-1.22,0-2.44.42-3.7,1.38-.8,5.85-1.45,15.89-1.45,21.27,0,2.28,2.97,9.37,5.3,11.7,1.7,1.7,4.65,3.22,6.11,3.22.54,0,.87-.2.87-.68-.1-2.87-4.07-3.09-4.86-5.19-.1-.23-.2-.48-.29-.75-.05-.14-.1-.28-.14-.43-.09-.29-.18-.6-.25-.91-.04-.16-.08-.32-.12-.48-.07-.32-.15-.65-.21-.98-.08-.42-.16-.84-.23-1.24-.01-.07-.02-.13-.03-.2-.03-.15-.05-.29-.07-.43-.07-.41-.13-.81-.19-1.17h0c0-.07-.01-.13-.02-.18-.25-1.62-.56-12.32,1.34-12.32,0,0,4.94-.34,4.94-5.37-.63-2.19-3.67-6.33-3.67-6.33-1.14-.58-2.23-.91-3.32-.91h0Z"/>
        </g>
      </g>
      <g id="Arm_Lower-2" data-name="Arm Lower">
        <path d="M2.29,219.25c-3.56-35.95-2.77-54.98,2.74-65.64,1.57-.8,3.42-1.25,5.29-1.25,2.46,0,4.82.79,6.66,2.23,1.28,12.89-1.42,26.85-4.02,40.34-1.52,7.87-3.09,16.01-3.86,23.89-1.16-.57-2.21-.84-3.21-.84-1.24,0-2.42.42-3.6,1.28Z"/>
        <path class="cls-1" d="M10.31,152.24v.25c2.39,0,4.7.76,6.5,2.14,1.3,12.93-1.39,26.83-3.98,40.28-1.51,7.81-3.07,15.89-3.84,23.72-1.11-.52-2.13-.78-3.11-.78-1.2,0-2.35.38-3.49,1.17-3.53-35.71-2.74-54.66,2.71-65.29,1.59-.82,3.39-1.25,5.21-1.25v-.25M10.31,152.24c-1.88,0-3.75.45-5.4,1.31-5.52,10.69-6.33,29.7-2.73,65.93,1.26-.96,2.48-1.38,3.7-1.38,1.09,0,2.19.33,3.32.91,2.05-21.46,9.96-43.9,7.85-64.52-1.95-1.52-4.35-2.25-6.74-2.25h0Z"/>
      </g>
      <g id="Arm_Upper-2" data-name="Arm Upper">
        <path d="M16.96,154.26c-1.86-1.39-4.21-2.15-6.65-2.15-1.83,0-3.64.42-5.25,1.22,1.3-10.06,1.27-18.18,1.24-26.03-.03-8.78-.07-17.08,1.76-27.23,4.07,2.62,8.2,3.95,12.28,3.95.61,0,1.23-.03,1.83-.09.73-.08,1.46-.2,2.17-.36.56,3.04.15,6.92-1.22,11.53-.54,3.2-.89,6.38-1.3,10.06-.2,1.81-.41,3.72-.67,5.8-.48,4.01-1.29,7.97-2.14,12.15-.73,3.58-1.49,7.29-2.05,11.16Z"/>
        <path class="cls-1" d="M8.15,100.27c4.04,2.57,8.14,3.87,12.19,3.87.62,0,1.24-.03,1.84-.09.7-.07,1.39-.18,2.06-.34.52,3,.1,6.81-1.25,11.38-.54,3.2-.89,6.38-1.3,10.07-.2,1.8-.41,3.71-.66,5.78-.48,4.01-1.29,7.96-2.14,12.14-.72,3.52-1.46,7.16-2.03,10.96-1.85-1.33-4.16-2.05-6.55-2.05-1.77,0-3.52.39-5.09,1.13,1.27-9.96,1.24-18.02,1.21-25.82-.03-8.72-.07-16.97,1.72-27.03M7.97,99.86c-3.53,19.43-.25,32.19-3.06,53.69,1.65-.87,3.52-1.31,5.4-1.31,2.39,0,4.79.73,6.74,2.25,1.21-8.38,3.32-15.94,4.23-23.52.76-6.26,1.16-11.08,1.96-15.84,1.5-5.06,1.75-8.89,1.2-11.72-.74.18-1.5.31-2.28.39-.6.06-1.2.09-1.82.09-3.83,0-8.04-1.21-12.37-4.03h0Z"/>
      </g>
      <g id="Shoulder-2" data-name="Shoulder">
        <path d="M20.34,103.77c-4.06,0-8.18-1.34-12.24-3.97.1-1.27,1.12-15.01,1.18-15.91.38-5.15,3.96-9.61,8.91-11.12l9.33-2.82c7.55,4.94,11.14,12.03,9.85,19.48-1.18,6.83-6.27,12.27-12.96,13.86-.74.18-1.5.31-2.26.39-.59.06-1.2.09-1.81.09Z"/>
        <path class="cls-1" d="M27.51,70.08c10.61,6.96,10.35,15.83,9.75,19.32-1.18,6.78-6.23,12.19-12.87,13.76-.73.18-1.48.31-2.25.38-.59.06-1.19.09-1.79.09-4.01,0-8.09-1.32-12.11-3.91.13-1.66,1.11-14.95,1.18-15.83.38-5.1,3.93-9.52,8.82-11.01l9.27-2.81M27.54,69.81l-9.38,2.84c-5.03,1.53-8.61,5.99-9,11.23-.08,1.1-1.14,15.4-1.19,15.98,4.33,2.82,8.54,4.03,12.37,4.03.62,0,1.22-.03,1.82-.09.78-.08,1.54-.21,2.28-.39,13.71-3.26,20.03-22.58,3.1-33.6h0Z"/>
      </g>
    </g>
    <g id="Neck">
      <path d="M50.64,73.29c-9.26,0-16.68-1.13-22.68-3.45l8.94-2.16c2.94-.71,4.99-3.31,4.99-6.33v-12.15c2.98-3.59,6.05-5.45,9.1-5.45s6.14,1.86,9.2,5.53l-.03,12.07c0,3.02,2.05,5.63,4.99,6.33l8.94,2.16c-6,2.32-13.42,3.45-22.68,3.45h-.77Z"/>
      <path class="cls-1" d="M50.99,43.87h0c2.99,0,6.03,1.82,9.04,5.42v12.06c0,3.08,2.09,5.73,5.08,6.45l8.55,2.06c-5.92,2.22-13.21,3.3-22.26,3.3h-.39s-.39,0-.39,0c-9.05,0-16.34-1.08-22.26-3.3l8.55-2.06c2.99-.72,5.08-3.37,5.08-6.45v-12.06c2.96-3.59,5.99-5.42,8.98-5.42M50.99,43.62c-3.12,0-6.2,1.89-9.23,5.58v12.15c0,2.95-2.02,5.52-4.89,6.21l-9.33,2.25c6.52,2.6,14.39,3.6,23.09,3.6.13,0,.26,0,.39,0,.13,0,.26,0,.39,0,8.71,0,16.57-1,23.09-3.6l-9.33-2.25c-2.87-.69-4.89-3.26-4.89-6.21v-12.15c-3.12-3.75-6.22-5.58-9.29-5.58h0Z"/>
    </g>
    <g id="Head">
      <g id="Ear">
        <path d="M35.14,34.62c-.2,0-.37-.08-.53-.24-.43-.44-.54-1.17-.64-1.87-.09-.67-.19-1.29-.55-1.66-.68-.68-1.46-2.39-1.46-3.58s.37-1.5,1.58-1.5c.24,0,.45.02.64.06.24,3.1.66,6.04,1.22,8.75-.09.03-.18.04-.26.04Z"/>
        <path class="cls-1" d="M33.53,25.89c.19,0,.36.01.53.04.24,3.02.64,5.9,1.19,8.55-.04,0-.08,0-.11,0-.16,0-.3-.07-.44-.2-.41-.41-.51-1.12-.6-1.8-.1-.69-.19-1.34-.59-1.73-.65-.65-1.43-2.35-1.43-3.49,0-1.08.31-1.38,1.45-1.38M33.53,25.64c-1.28,0-1.7.41-1.7,1.63s.8,2.97,1.5,3.67c.71.71.31,2.64,1.19,3.53.2.2.41.27.62.27.14,0,.27-.03.4-.08-.6-2.84-1.01-5.85-1.25-8.93-.19-.05-.43-.09-.76-.09h0Z"/>
      </g>
      <g id="Ear-2" data-name="Ear">
        <path d="M66.91,34.62c-.08,0-.17-.01-.26-.04.57-2.71.98-5.65,1.22-8.75.2-.04.41-.06.64-.06,1.21,0,1.58.35,1.58,1.5s-.79,2.9-1.46,3.58c-.37.37-.46.99-.55,1.66-.1.7-.21,1.43-.64,1.87-.16.16-.33.24-.53.24Z"/>
        <path class="cls-1" d="M68.51,25.89c1.14,0,1.45.3,1.45,1.38,0,1.14-.78,2.85-1.43,3.49-.4.4-.49,1.04-.59,1.73-.1.68-.2,1.39-.6,1.8-.14.14-.28.2-.44.2-.04,0-.07,0-.11,0,.55-2.65.95-5.53,1.19-8.55.16-.03.33-.04.53-.04M68.51,25.64c-.33,0-.57.04-.76.09-.24,3.08-.65,6.09-1.25,8.93.13.05.27.08.4.08.21,0,.42-.08.62-.27.88-.89.48-2.82,1.19-3.53.7-.7,1.5-2.45,1.5-3.67s-.42-1.63-1.7-1.63h0Z"/>
      </g>
      <g id="Head-2" data-name="Head">
        <path d="M60.28,49.01c-3.07-3.65-6.2-5.51-9.29-5.51s-6.2,1.85-9.23,5.51c-2.74-3.25-4.79-8.09-6.1-14.37-.58-2.75-1-5.75-1.25-8.91-.18-2.27-.27-4.61-.27-6.94C34.15,1.94,45.95.13,51.02.13s16.88,1.82,16.88,18.65c0,2.33-.09,4.66-.27,6.94-.25,3.16-.67,6.16-1.25,8.91-1.3,6.29-3.36,11.12-6.1,14.37Z"/>
        <path class="cls-1" d="M51.02.25c5.04,0,16.75,1.81,16.75,18.53,0,2.33-.09,4.66-.27,6.93-.25,3.16-.66,6.15-1.25,8.9-1.28,6.19-3.29,10.97-5.97,14.2-3.07-3.61-6.19-5.44-9.29-5.44-3.1,0-6.21,1.83-9.23,5.44-2.68-3.23-4.69-8.01-5.97-14.2-.58-2.75-1-5.74-1.25-8.9-.18-2.27-.27-4.6-.27-6.93C34.27,2.06,45.99.25,51.02.25M51.02,0C45.53,0,34.02,2.21,34.02,18.78c0,2.33.09,4.66.27,6.95.24,3.08.65,6.09,1.25,8.93,1.23,5.93,3.26,11.09,6.22,14.54,3.02-3.69,6.11-5.58,9.23-5.58,3.07,0,6.18,1.83,9.29,5.58,2.96-3.45,4.99-8.61,6.22-14.54.6-2.84,1.01-5.85,1.25-8.93.18-2.29.27-4.62.27-6.95C68.02,2.21,56.51,0,51.02,0h0Z"/>
      </g>
    </g>
  </g>
</svg>