<?xml version="1.0" encoding="UTF-8"?>
<svg id="Female_Front" data-name="Female Front" xmlns="http://www.w3.org/2000/svg" viewBox="0 0 102.05 442.42">
  <defs>
    <style>
      .cls-1 {
        fill: #fff;
      }
    </style>
  </defs>
  <g id="Bodymap_Female_Front" data-name="Bodymap Female Front">
    <g id="Leg_L" data-name="Leg L">
      <g id="Foot">
        <path d="M65.59,442.29c-5.99,0-7.73-1.05-7.73-8,0-3.56.7-7.58,1.37-11.46.75-4.34,1.46-8.43,1.3-11.97,1.5.2,2.98.3,4.4.3,2.88,0,5.59-.42,8.05-1.24.25,1.79,1.13,4.51,2.14,7.65,1.7,5.27,3.82,11.83,3.82,16.81,0,3.4-1.19,5.62-3.62,6.78-2.19,1.04-5.12,1.13-7.95,1.13h-1.78Z"/>
        <path class="cls-1" d="M72.88,410.09c.28,1.8,1.14,4.46,2.12,7.52,1.7,5.26,3.81,11.82,3.81,16.77,0,7.2-5.18,7.78-11.45,7.78h-.9s-.88,0-.88,0c-5.9,0-7.61-1.03-7.61-7.87,0-3.55.7-7.56,1.37-11.44.74-4.28,1.44-8.33,1.3-11.85,1.46.19,2.89.28,4.27.28,2.84,0,5.52-.4,7.95-1.2M73.08,409.76c-2.57.88-5.32,1.28-8.16,1.28-1.49,0-3.01-.11-4.53-.32.36,6.81-2.65,16.09-2.66,23.58,0,6.83,1.65,8.12,7.86,8.12.58,0,1.18,0,1.77,0,5.74,0,11.7-.36,11.7-8.03s-5.4-19.92-5.98-24.63h0Z"/>
      </g>
      <g id="Ankle">
        <path d="M64.93,410.92c-1.42,0-2.91-.1-4.41-.31-.1-2.21-.42-3.1-.71-3.88-.29-.79-.54-1.48-.54-3.3,0-1.92.33-2.41.67-2.92.38-.57.78-1.15.77-3.55,0-2.35,3.57-3.76,7.01-3.76,2.79,0,6.05.98,6.05,3.76,0,1.02.25,1.89.51,2.81.29,1,.59,2.04.59,3.37,0,.92-.39,1.53-.86,2.23-.65.97-1.38,2.08-1.06,4.31-2.45.82-5.14,1.24-8.02,1.24h0Z"/>
        <path class="cls-1" d="M67.71,393.33c2.73,0,5.92.95,5.92,3.63,0,1.04.25,1.91.52,2.84.29.99.58,2.02.58,3.34,0,.88-.38,1.47-.84,2.16-.65.98-1.39,2.08-1.09,4.29-2.41.8-5.06,1.2-7.88,1.2-1.38,0-2.83-.1-4.29-.29-.1-2.15-.43-3.03-.72-3.82-.29-.78-.53-1.46-.53-3.25,0-1.89.32-2.36.65-2.85.39-.58.8-1.19.79-3.62,0-2.27,3.5-3.63,6.89-3.63M67.71,393.08c-3.48,0-7.14,1.44-7.14,3.88.03,4.57-1.44,2.42-1.44,6.47,0,3.74,1.08,2.83,1.26,7.29,1.53.21,3.04.32,4.53.32,2.84,0,5.58-.4,8.16-1.28-.61-3.84,1.92-4.29,1.9-6.62,0-2.58-1.1-4.06-1.1-6.18,0-2.7-3.01-3.88-6.17-3.88h0Z"/>
      </g>
      <g id="Shin">
        <path d="M73.88,396.01c-.64-2.24-3.6-3.06-6.17-3.06-3.09,0-6.27,1.12-7.07,3.05-.93-15.81-2.94-51.06-2.97-59.82-.02-5.89.27-8.89.57-12.06.32-3.37.66-6.86.66-14.14,3.11,1.51,6.26,2.28,9.38,2.28s6.27-.77,9.38-2.28c.02,5.34.67,8.91,1.31,12.37.65,3.53,1.32,7.19,1.32,12.75,0,7.71-3.96,41.03-6.41,60.92Z"/>
        <path class="cls-1" d="M77.54,310.18c.03,5.24.68,8.77,1.31,12.19.65,3.53,1.32,7.18,1.32,12.73,0,7.62-3.89,40.45-6.35,60.39-.92-1.94-3.68-2.67-6.11-2.67-2.91,0-5.9.99-6.97,2.71-.94-16.01-2.92-50.68-2.95-59.36-.02-5.89.27-8.88.57-12.05.32-3.35.65-6.8.66-13.95,3.07,1.46,6.18,2.21,9.25,2.21s6.19-.74,9.26-2.21M77.78,309.78c-3.17,1.57-6.34,2.36-9.51,2.36s-6.34-.79-9.5-2.36c0,14.35-1.27,14.21-1.23,26.4.03,8.51,1.9,41.59,3.03,60.78,0-2.44,3.66-3.88,7.14-3.88,3.16,0,6.17,1.19,6.17,3.88v.05c2.43-19.69,6.53-54.1,6.53-61.91,0-11.11-2.63-14.4-2.63-25.32h0Z"/>
      </g>
      <g id="Knee">
        <path d="M68.28,312.01c-3.11,0-6.27-.78-9.38-2.31-.41-4.03-.41-7.54,0-10.71,3.91-1.77,7.48-2.62,10.89-2.62,2.73,0,5.4.58,7.93,1.71,0,1.51-.01,3.12-.02,4.76-.01,2.31-.03,4.67-.03,6.87-3.12,1.53-6.27,2.31-9.38,2.31Z"/>
        <path class="cls-1" d="M69.78,296.49c2.69,0,5.31.56,7.8,1.67,0,1.48-.01,3.05-.02,4.65-.01,2.29-.03,4.63-.03,6.82-3.08,1.5-6.19,2.26-9.26,2.26s-6.19-.76-9.27-2.27c-.4-3.96-.4-7.41,0-10.55,3.87-1.74,7.4-2.59,10.78-2.59M69.78,296.24c-3.68,0-7.35,1.01-11.01,2.66-.44,3.4-.39,7.05,0,10.88,3.16,1.57,6.33,2.36,9.5,2.36s6.34-.79,9.51-2.36c0-3.81.04-8.12.05-11.79-2.68-1.22-5.36-1.75-8.05-1.75h0Z"/>
      </g>
      <g id="Thigh">
        <path d="M58.89,298.71c-.5-16.48-1.79-31.48-3.03-45.99-1.39-16.24-2.7-31.59-2.46-45.34.88-.39,1.71-.91,2.46-1.36l.33-.2c5.13-3.14,11.85-5.22,17.79-7.06,6.02-1.87,10.92-3.38,11.82-5.38,2.47,18.46-1.15,46.28-4.35,70.86-1.62,12.47-3.16,24.26-3.73,33.57-2.53-1.12-5.2-1.69-7.94-1.69-3.42,0-6.98.85-10.89,2.6Z"/>
        <path class="cls-1" d="M85.72,193.77c2.36,18.45-1.22,46.04-4.4,70.44-1.61,12.4-3.14,24.11-3.72,33.4-2.5-1.08-5.13-1.63-7.82-1.63-3.39,0-6.91.83-10.77,2.53-.51-16.41-1.79-31.35-3.02-45.81-1.39-16.21-2.7-31.52-2.46-45.25.86-.39,1.68-.89,2.4-1.34l.32-.2c5.11-3.13,11.83-5.21,17.76-7.05,5.91-1.83,10.45-3.24,11.71-5.1M85.81,192.6c.31,4.31-18.64,6.35-29.69,13.11-.82.5-1.81,1.14-2.84,1.59-.47,25.66,4.41,55.85,5.49,91.6,3.66-1.66,7.33-2.66,11.01-2.66,2.69,0,5.37.54,8.05,1.75,1.68-27.85,12-77.6,7.98-105.39h0Z"/>
      </g>
    </g>
    <g id="Leg_R" data-name="Leg R">
      <g id="Foot-2" data-name="Foot">
        <path d="M34.68,442.3c-6.1,0-11.57-.6-11.57-7.91,0-4.98,2.12-11.54,3.82-16.81,1.01-3.14,1.89-5.86,2.14-7.65,2.46.82,5.17,1.24,8.05,1.24,1.42,0,2.9-.1,4.4-.3-.16,3.54.55,7.64,1.3,11.97.67,3.88,1.37,7.9,1.37,11.46,0,6.95-1.74,8-7.74,8h-1.78Z"/>
        <path class="cls-1" d="M29.17,410.09c2.44.8,5.11,1.2,7.95,1.2,1.38,0,2.81-.1,4.27-.28-.14,3.52.56,7.57,1.3,11.85.67,3.88,1.36,7.89,1.37,11.44,0,6.84-1.71,7.87-7.61,7.87h-.88s-.9,0-.9,0c-6.26,0-11.45-.59-11.45-7.78,0-4.96,2.11-11.51,3.81-16.77.99-3.06,1.85-5.73,2.12-7.52M28.96,409.76c-.58,4.71-5.98,16.62-5.98,24.63s5.96,8.03,11.7,8.03c.6,0,1.19,0,1.77,0,6.21,0,7.86-1.29,7.86-8.12,0-7.49-3.02-16.77-2.66-23.58-1.53.21-3.04.32-4.53.32-2.84,0-5.58-.4-8.16-1.28h0Z"/>
      </g>
      <g id="Ankle-2" data-name="Ankle">
        <path d="M37.12,410.92c-2.87,0-5.57-.42-8.02-1.24.32-2.23-.41-3.33-1.06-4.31-.46-.7-.87-1.3-.86-2.23,0-1.34.3-2.37.59-3.37.26-.92.51-1.78.51-2.81,0-2.77,3.26-3.76,6.05-3.76,3.45,0,7.01,1.41,7.01,3.76-.01,2.39.38,2.98.77,3.55.35.51.67,1,.67,2.92,0,1.82-.25,2.5-.54,3.3-.29.79-.62,1.68-.71,3.88-1.51.2-2.99.31-4.41.31Z"/>
        <path class="cls-1" d="M34.34,393.33h0c3.39,0,6.89,1.36,6.89,3.63-.01,2.43.39,3.04.79,3.62.34.5.65.97.65,2.85,0,1.8-.25,2.47-.53,3.25-.29.78-.61,1.67-.72,3.82-1.46.19-2.91.29-4.29.29-2.82,0-5.47-.4-7.88-1.2.29-2.21-.44-3.31-1.09-4.29-.45-.68-.84-1.27-.84-2.16,0-1.32.3-2.35.58-3.34.27-.93.52-1.8.52-2.84,0-2.68,3.19-3.63,5.92-3.63M34.33,393.08c-3.16,0-6.17,1.19-6.17,3.88,0,2.12-1.1,3.6-1.1,6.18-.02,2.33,2.51,2.78,1.9,6.62,2.57.88,5.32,1.28,8.16,1.28,1.49,0,3.01-.11,4.53-.32.18-4.46,1.26-3.55,1.26-7.29,0-4.05-1.47-1.9-1.44-6.47,0-2.44-3.66-3.88-7.14-3.88h0Z"/>
      </g>
      <g id="Shin-2" data-name="Shin">
        <path d="M28.17,396.01c-2.45-19.89-6.41-53.23-6.41-60.92,0-5.57.67-9.22,1.32-12.75.64-3.46,1.29-7.03,1.31-12.37,3.11,1.51,6.27,2.28,9.38,2.28s6.27-.77,9.38-2.28c0,7.28.34,10.76.66,14.14.3,3.17.59,6.17.57,12.06-.03,8.8-2.05,44.02-2.97,59.82-.8-1.93-3.98-3.05-7.07-3.05-2.57,0-5.52.82-6.17,3.06Z"/>
        <path class="cls-1" d="M24.51,310.18c3.07,1.46,6.19,2.21,9.26,2.21s6.18-.74,9.25-2.21c.01,7.15.34,10.61.66,13.95.3,3.17.59,6.16.57,12.05-.03,8.68-2.01,43.35-2.95,59.36-1.08-1.72-4.06-2.71-6.97-2.71-1.71,0-3.27.34-4.39.96-.81.45-1.38,1.03-1.71,1.73-2.45-19.94-6.35-52.79-6.35-60.42,0-5.56.67-9.2,1.32-12.73.63-3.42,1.28-6.95,1.31-12.19M43.27,309.78c-3.17,1.57-6.33,2.36-9.5,2.36s-6.34-.79-9.51-2.36c0,10.92-2.63,14.21-2.63,25.32,0,7.81,4.1,42.22,6.53,61.91v-.05c0-2.7,3.01-3.88,6.17-3.88,3.48,0,7.14,1.44,7.14,3.88,1.13-19.19,3-52.27,3.03-60.78.04-12.19-1.23-12.05-1.23-26.4h0Z"/>
      </g>
      <g id="Knee-2" data-name="Knee">
        <path d="M33.77,312.01c-3.11,0-6.27-.78-9.38-2.31,0-2.2-.01-4.56-.03-6.87,0-1.64-.02-3.25-.02-4.76,2.53-1.14,5.19-1.71,7.93-1.71,3.42,0,6.98.86,10.89,2.62.4,3.18.4,6.68,0,10.71-3.11,1.53-6.27,2.31-9.38,2.31Z"/>
        <path class="cls-1" d="M32.27,296.24v.25c3.38,0,6.91.85,10.78,2.59.39,3.13.39,6.59,0,10.55-3.08,1.51-6.19,2.27-9.27,2.27s-6.18-.76-9.26-2.26c0-2.19-.01-4.53-.03-6.82,0-1.6-.02-3.18-.02-4.65,2.49-1.11,5.11-1.67,7.8-1.67v-.25M32.27,296.24c-2.69,0-5.37.54-8.05,1.75.01,3.67.05,7.98.05,11.79,3.17,1.57,6.34,2.36,9.51,2.36s6.34-.79,9.5-2.36c.39-3.83.44-7.48,0-10.88-3.66-1.66-7.33-2.66-11.01-2.66h0Z"/>
      </g>
      <g id="Thigh-2" data-name="Thigh">
        <path d="M43.16,298.71c-3.91-1.75-7.47-2.6-10.89-2.6-2.74,0-5.41.57-7.94,1.69-.57-9.31-2.11-21.1-3.73-33.57-3.2-24.58-6.81-52.39-4.35-70.86.9,2,5.8,3.52,11.82,5.38,5.94,1.84,12.66,3.92,17.79,7.06l.33.2c.74.46,1.58.97,2.46,1.36.25,13.76-1.07,29.1-2.46,45.34-1.24,14.51-2.53,29.51-3.03,45.99Z"/>
        <path class="cls-1" d="M16.33,193.77c1.25,1.86,5.8,3.27,11.71,5.1,5.93,1.84,12.65,3.92,17.76,7.05l.32.2c.72.45,1.54.95,2.4,1.34.24,13.73-1.07,29.04-2.46,45.25-1.24,14.46-2.52,29.4-3.02,45.81-3.85-1.7-7.38-2.53-10.77-2.53-2.7,0-5.33.55-7.82,1.63-.58-9.29-2.1-21.01-3.72-33.4-3.17-24.4-6.76-51.99-4.4-70.44M16.23,192.6c-4.02,27.79,6.3,77.54,7.98,105.39,2.68-1.22,5.36-1.76,8.05-1.75,3.67,0,7.35,1.01,11.01,2.66,1.08-35.75,5.96-65.94,5.49-91.6-1.03-.45-2.02-1.09-2.84-1.59-11.05-6.76-30-8.8-29.69-13.11h0Z"/>
      </g>
    </g>
    <g id="Arm_L" data-name="Arm L">
      <g id="Arm_Upper" data-name="Arm Upper">
        <path d="M85.09,154.26c-.57-3.87-1.32-7.57-2.05-11.16-.86-4.19-1.66-8.14-2.14-12.15-.25-2.06-.46-3.97-.66-5.77-.41-3.67-.76-6.84-1.29-10.01,2.73-2.6,4.18-6.91,3.98-11.85.23,0,.46.01.69.01,3.5,0,6.99-1.1,10.38-3.27,1.83,10.15,1.79,18.45,1.76,27.23-.03,7.85-.06,15.97,1.24,26.03-1.61-.8-3.42-1.22-5.25-1.22-2.44,0-4.79.76-6.65,2.15Z"/>
        <path class="cls-1" d="M93.89,100.27c1.79,10.06,1.76,18.3,1.72,27.03-.03,7.8-.06,15.86,1.21,25.82-1.57-.74-3.32-1.13-5.09-1.13-2.39,0-4.7.73-6.55,2.05-.56-3.79-1.31-7.43-2.03-10.96-.85-4.18-1.66-8.13-2.14-12.14-.25-2.07-.46-3.97-.66-5.78-.4-3.64-.75-6.79-1.28-9.94,2.7-2.61,4.14-6.88,3.97-11.77.19,0,.37,0,.56,0,3.47,0,6.93-1.07,10.29-3.19M94.07,99.86c-3.59,2.34-7.15,3.35-10.47,3.35-.28,0-.55,0-.82-.02.21,4.58-.97,9.11-3.98,11.94.8,4.76,1.2,9.58,1.96,15.84.91,7.58,3.02,15.14,4.23,23.52,1.95-1.52,4.35-2.25,6.74-2.25,1.88,0,3.75.45,5.4,1.31-2.81-21.5.47-34.26-3.06-53.69h0Z"/>
      </g>
      <g id="Arm_Lower" data-name="Arm Lower">
        <path d="M99.76,219.25c-1.18-.86-2.36-1.27-3.6-1.27-1,0-2.06.28-3.21.84-.77-7.88-2.34-16.02-3.86-23.89-2.61-13.49-5.3-27.44-3.97-40.42,1.79-1.35,4.16-2.14,6.62-2.14,1.87,0,3.72.45,5.34,1.3,5.45,10.61,6.25,29.63,2.69,65.59Z"/>
        <path class="cls-1" d="M91.73,152.49c1.82,0,3.63.43,5.21,1.25,5.45,10.63,6.24,29.58,2.71,65.29-1.14-.79-2.29-1.17-3.49-1.17-.98,0-2,.26-3.11.78-.77-7.83-2.33-15.91-3.84-23.72-2.6-13.45-5.28-27.35-3.98-40.28,1.8-1.38,4.11-2.14,6.5-2.14M91.73,152.24c-2.39,0-4.79.73-6.74,2.25-2.11,20.62,5.8,43.06,7.85,64.52,1.14-.58,2.23-.91,3.32-.91,1.22,0,2.44.42,3.7,1.38,3.6-36.23,2.79-55.24-2.73-65.93-1.65-.87-3.53-1.31-5.4-1.31h0Z"/>
      </g>
      <g id="Hand">
        <g>
          <path d="M91.5,250.4c-1.78,0-5.06-1.05-5.06-2.56,0-.36.18-.51.59-.51.49,0,1.2.22,1.96.45.81.25,1.64.51,2.27.51,1.28-.07,2.73-1.73,3.66-2.85-.03.17-.15.78-.15.78-.22,1.04-.56,2.55-1,3.52-.79.41-1.58.65-2.28.65Z"/>
          <path class="cls-1" d="M94.72,245.89s0,.02,0,.03l-.05.28c-.21,1.01-.54,2.46-.96,3.42-.8.43-1.54.65-2.2.65-1.91,0-4.94-1.11-4.94-2.43,0-.25.07-.38.47-.38.47,0,1.21.23,1.92.45.82.25,1.66.52,2.32.52h0c1.19-.07,2.5-1.43,3.44-2.53M95.13,245c-.84,1.01-2.5,3.1-3.87,3.17-1.19,0-3.17-.96-4.23-.96-.44,0-.72.17-.72.63,0,1.6,3.35,2.68,5.19,2.68.87,0,1.72-.35,2.39-.72.41-.9.74-2.25,1.01-3.55.08-.43.16-.85.23-1.25h0Z"/>
        </g>
        <g>
          <path d="M91.84,247.2c-1.28,0-2.82-.56-3.51-1.28-.22-.23-.33-.46-.33-.66,0-.23.48-.26.76-.26.61,0,1.44.13,2.11.24.47.08.84.14,1.04.14.53,0,2.2-.95,3.33-1.85-.06.41-.15.91-.24,1.46-.64.77-1.26,1.45-1.81,1.96-.35.17-.82.26-1.36.26Z"/>
          <path class="cls-1" d="M95.08,243.82c-.05.32-.11.69-.18,1.08-.63.79-1.22,1.44-1.76,1.93-.36.17-.8.25-1.3.25-1.25,0-2.75-.54-3.42-1.24-.2-.21-.3-.4-.29-.58,0-.03.11-.13.64-.13.6,0,1.42.13,2.09.24.48.08.85.14,1.06.14.51,0,2.02-.83,3.15-1.68M95.42,243.21c-1.14,1-3.01,2.04-3.5,2.04s-2.11-.38-3.15-.38c-.52,0-.89.09-.89.38-.04.97,2.11,2.07,3.96,2.07.52,0,1.02-.09,1.44-.29.7-.64,1.37-1.43,1.85-2.03.12-.71.22-1.34.29-1.79h0Z"/>
        </g>
        <g>
          <path d="M89.9,255.54c-.75,0-.75-.41-.75-.55.06-1.56,1.33-2.31,2.56-3.04,1-.59,1.94-1.15,2.29-2.1.78-1.73,1.25-4.79,1.54-6.61.01-.08.02-.13.03-.18.2-1.27.56-10.47-.91-12.18-.17-.19-.35-.29-.56-.29-.59,0-1.12,1.65-2.01,4.56-.52,1.72-1.06,3.49-1.63,4.75-.25.56-.96.86-1.5.86-.27,0-.48-.08-.6-.21-.09-.11-.12-.25-.09-.44.78-4.45.79-8.2.79-10.94,0-1.78,0-3.07.22-3.79.62-2.14,3.62-6.25,3.65-6.29,1.14-.57,2.21-.86,3.22-.86,1.24,0,2.43.44,3.62,1.36.72,5.56,1.4,15.5,1.4,21.17,0,2.3-3.04,9.39-5.26,11.61-1.63,1.63-4.56,3.18-6.02,3.18h0Z"/>
          <path class="cls-1" d="M96.16,218.35c1.19,0,2.32.42,3.47,1.27.77,5.66,1.43,15.49,1.43,21.13,0,2.28-3.02,9.32-5.23,11.52-1.62,1.62-4.5,3.14-5.93,3.14-.62,0-.62-.29-.62-.42.05-1.49,1.24-2.2,2.5-2.95.97-.58,1.97-1.17,2.34-2.15.78-1.73,1.25-4.73,1.54-6.57l.03-.03v-.1s0-.09.02-.13c.2-1.27.55-10.54-.93-12.27-.19-.22-.41-.33-.65-.33-.65,0-1.1,1.27-2.13,4.65-.52,1.71-1.06,3.49-1.63,4.74-.22.49-.88.79-1.38.79-.23,0-.41-.06-.5-.17-.07-.08-.09-.19-.06-.33.78-4.46.79-8.22.79-10.96,0-1.7,0-3.05.21-3.76.57-2,3.26-5.74,3.6-6.2,1.15-.58,2.18-.86,3.15-.86M96.16,218.1c-1.09,0-2.19.33-3.32.91,0,0-3.04,4.14-3.67,6.33-.55,1.88.28,7.41-1.01,14.75-.1.55.3.79.81.79.6,0,1.34-.34,1.61-.93,1.39-3.05,2.62-9.24,3.53-9.24,1.9,0,1.59,10.7,1.34,12.32-.01.05-.02.11-.02.17h0c-.3,1.93-.77,4.91-1.53,6.6-.79,2.1-4.76,2.32-4.86,5.19,0,.47.34.68.87.68,1.46,0,4.4-1.51,6.11-3.22,2.33-2.33,5.3-9.42,5.3-11.7,0-5.38-.65-15.42-1.45-21.27-1.26-.96-2.48-1.38-3.7-1.38h0Z"/>
        </g>
      </g>
      <g id="Shoulder">
        <path d="M83.61,103.09c-.24,0-.47,0-.71-.02-.31-3.55-2.68-7.84-6.21-11.22-3.32-3.2-7.22-5.34-10.73-5.89-.47-6.41,2.57-12.09,8.56-16.01l9.32,2.82c4.95,1.5,8.53,5.97,8.91,11.12.06.87,1.09,14.64,1.18,15.91-3.38,2.18-6.86,3.29-10.34,3.29Z"/>
        <path class="cls-1" d="M74.54,70.08l9.27,2.81c4.9,1.49,8.44,5.91,8.82,11.01.06.85,1.05,14.17,1.18,15.83-3.34,2.14-6.77,3.23-10.21,3.23-.2,0-.4,0-.59-.01-.35-3.56-2.73-7.83-6.24-11.19-3.3-3.19-7.19-5.33-10.7-5.91-.43-6.3,2.57-11.89,8.46-15.77M74.5,69.81c-6.68,4.35-9.12,10.45-8.66,16.26,3.66.54,7.6,2.82,10.76,5.87,3.28,3.14,5.89,7.41,6.18,11.25.27.01.55.02.82.02,3.32,0,6.88-1.01,10.47-3.35-.05-.58-1.11-14.88-1.19-15.98-.39-5.24-3.97-9.7-9-11.23l-9.38-2.84h0Z"/>
      </g>
    </g>
    <g id="Arm_R" data-name="Arm R">
      <g>
        <path d="M16.96,154.26c-1.86-1.39-4.21-2.15-6.65-2.15-1.83,0-3.64.42-5.25,1.22,1.3-10.06,1.27-18.18,1.24-26.03-.03-8.78-.07-17.08,1.76-27.23,3.39,2.17,6.88,3.27,10.38,3.27.23,0,.46,0,.69-.01-.2,4.94,1.24,9.25,3.98,11.85-.53,3.17-.88,6.34-1.29,10.01-.2,1.8-.41,3.71-.66,5.77-.48,4.01-1.29,7.96-2.14,12.15-.73,3.58-1.49,7.29-2.05,11.16Z"/>
        <path class="cls-1" d="M8.15,100.27c3.36,2.12,6.82,3.19,10.29,3.19.19,0,.37,0,.56,0-.17,4.89,1.27,9.16,3.97,11.77-.52,3.15-.87,6.3-1.28,9.94-.2,1.8-.41,3.71-.66,5.78-.48,4.01-1.29,7.96-2.14,12.14-.72,3.52-1.46,7.16-2.03,10.96-1.85-1.33-4.16-2.05-6.55-2.05-1.77,0-3.52.39-5.09,1.13,1.27-9.96,1.24-18.02,1.21-25.82-.03-8.72-.07-16.97,1.72-27.03M7.97,99.86c-3.53,19.43-.25,32.19-3.06,53.69,1.65-.87,3.52-1.31,5.4-1.31,2.39,0,4.79.73,6.74,2.25,1.21-8.38,3.32-15.94,4.23-23.52.76-6.26,1.16-11.08,1.96-15.84-3.01-2.83-4.19-7.36-3.98-11.94-.27.01-.55.02-.82.02-3.32,0-6.88-1.01-10.47-3.35h0Z"/>
      </g>
      <g id="Arm_Lower-2" data-name="Arm Lower">
        <path d="M2.29,219.25c-3.56-35.95-2.77-54.98,2.74-65.64,1.57-.8,3.42-1.25,5.29-1.25,2.46,0,4.82.79,6.66,2.23,1.28,12.89-1.41,26.84-4.02,40.34-1.52,7.87-3.09,16.01-3.86,23.89-1.16-.57-2.21-.84-3.21-.84-1.24,0-2.42.42-3.6,1.27Z"/>
        <path class="cls-1" d="M10.31,152.24v.25c2.39,0,4.7.76,6.5,2.14,1.3,12.93-1.39,26.83-3.98,40.28-1.51,7.81-3.07,15.89-3.84,23.72-1.11-.52-2.13-.78-3.11-.78-1.2,0-2.35.38-3.49,1.17-3.53-35.71-2.74-54.66,2.71-65.29,1.59-.82,3.39-1.25,5.21-1.25v-.25M10.31,152.24c-1.88,0-3.75.45-5.4,1.31-5.52,10.69-6.33,29.7-2.73,65.93,1.26-.96,2.48-1.38,3.7-1.38,1.09,0,2.19.33,3.32.91,2.05-21.46,9.96-43.9,7.85-64.52-1.95-1.52-4.35-2.25-6.74-2.25h0Z"/>
      </g>
      <g id="Hand-2" data-name="Hand">
        <g>
          <path d="M10.54,250.4c-.7,0-1.48-.24-2.33-.7-.39-.92-.73-2.42-.95-3.47,0,0-.12-.62-.14-.78.94,1.12,2.38,2.78,3.66,2.85h0c.64,0,1.47-.26,2.28-.51.75-.23,1.46-.45,1.96-.45.42,0,.59.15.59.51,0,1.5-3.29,2.56-5.07,2.56Z"/>
          <path class="cls-1" d="M7.33,245.89c.94,1.1,2.25,2.47,3.45,2.53.65,0,1.5-.26,2.31-.52.71-.22,1.44-.45,1.92-.45.39,0,.47.14.47.38,0,1.32-3.03,2.43-4.94,2.43-.66,0-1.4-.22-2.2-.65-.42-.96-.75-2.41-.96-3.42l-.05-.29s0-.02,0-.03M6.91,245c.07.4.15.82.23,1.25.27,1.3.6,2.65,1.01,3.55.67.37,1.52.72,2.39.72,1.84,0,5.19-1.08,5.19-2.68,0-.47-.28-.63-.72-.63-1.06,0-3.04.96-4.23.96-1.37-.07-3.03-2.16-3.87-3.17h0Z"/>
        </g>
        <g>
          <path d="M10.21,247.2c-.54,0-1.01-.09-1.39-.28-.52-.48-1.14-1.16-1.81-2-.07-.5-.15-1-.21-1.4,1.12.91,2.8,1.85,3.33,1.85.2,0,.57-.06,1.04-.14.67-.11,1.5-.24,2.11-.24.29,0,.76.03.76.25,0,.21-.11.44-.33.67-.69.72-2.23,1.28-3.51,1.28Z"/>
          <path class="cls-1" d="M6.97,243.82c1.13.86,2.64,1.68,3.15,1.68.21,0,.59-.06,1.06-.14.66-.11,1.49-.24,2.09-.24.53,0,.64.1.64.14,0,.17-.09.37-.29.57-.67.7-2.17,1.24-3.42,1.24-.51,0-.94-.08-1.3-.25-.53-.49-1.12-1.14-1.76-1.93-.07-.39-.13-.76-.18-1.08M6.62,243.21c.07.45.17,1.08.29,1.79.48.6,1.15,1.39,1.85,2.03.42.2.92.29,1.44.29,1.85,0,3.99-1.1,3.96-2.07,0-.28-.37-.38-.89-.38-1.04,0-2.68.38-3.15.38s-2.36-1.04-3.5-2.04h0Z"/>
        </g>
        <g>
          <path d="M12.14,255.54c-1.46,0-4.39-1.54-6.02-3.18-2.22-2.22-5.26-9.31-5.26-11.61,0-5.68.68-15.61,1.45-21.25,1.15-.83,2.33-1.27,3.58-1.27,1.01,0,2.08.29,3.26.9-.01,0,2.99,4.11,3.61,6.25.21.73.21,2.01.22,3.79,0,2.74,0,6.5.79,10.94.03.18,0,.33-.09.44-.12.14-.33.21-.6.21-.54,0-1.24-.3-1.5-.86-.58-1.26-1.12-3.04-1.64-4.75-.88-2.91-1.41-4.56-2.01-4.56-.2,0-.39.1-.56.29-1.47,1.71-1.1,10.91-.91,12.17.01.06.02.11.02.15v.05l.05.05c.23,1.64.72,4.81,1.5,6.55.35.94,1.29,1.5,2.29,2.1,1.23.73,2.5,1.49,2.56,3.05,0,.13,0,.55-.75.55Z"/>
          <path class="cls-1" d="M5.88,218.35c.98,0,2.01.28,3.15.86.34.47,3.02,4.21,3.6,6.2.21.71.21,2.05.21,3.76,0,2.75,0,6.51.79,10.96.03.14,0,.26-.06.33-.09.11-.27.17-.5.17-.5,0-1.16-.29-1.38-.79-.57-1.26-1.11-3.03-1.63-4.74-1.02-3.37-1.47-4.65-2.13-4.65-.24,0-.46.11-.65.33-1.49,1.74-1.13,11-.93,12.28,0,.04.02.08.02.12v.11s.03.02.03.02c.29,1.84.76,4.84,1.53,6.56.37.99,1.37,1.59,2.35,2.17,1.26.75,2.44,1.45,2.5,2.94,0,.14,0,.43-.62.43-1.43,0-4.32-1.53-5.93-3.14-2.21-2.21-5.23-9.24-5.23-11.52,0-5.64.67-15.48,1.43-21.13,1.14-.85,2.28-1.27,3.47-1.27M5.88,218.1c-1.22,0-2.44.42-3.7,1.38-.8,5.85-1.45,15.89-1.45,21.27,0,2.28,2.97,9.37,5.3,11.7,1.7,1.7,4.65,3.22,6.11,3.22.54,0,.87-.2.87-.68-.1-2.87-4.07-3.09-4.86-5.19-.76-1.69-1.23-4.67-1.53-6.59h0c0-.07-.01-.13-.02-.18-.25-1.62-.56-12.32,1.34-12.32.91,0,2.14,6.19,3.53,9.24.27.59,1.02.93,1.61.93.51,0,.91-.25.81-.79-1.29-7.34-.46-12.87-1.01-14.75-.63-2.19-3.67-6.33-3.67-6.33-1.14-.58-2.23-.91-3.32-.91h0Z"/>
        </g>
      </g>
      <g>
        <path d="M18.44,103.09c-3.48,0-6.96-1.11-10.34-3.29.1-1.27,1.12-15.05,1.18-15.91.38-5.15,3.96-9.61,8.91-11.12l9.32-2.82c6,3.92,9.03,9.61,8.56,16.01-3.51.55-7.41,2.69-10.73,5.89-3.53,3.38-5.9,7.67-6.21,11.22-.23.01-.47.02-.71.02Z"/>
        <path class="cls-1" d="M27.5,70.08c5.89,3.88,8.89,9.47,8.46,15.77-3.51.57-7.4,2.72-10.7,5.91-3.51,3.36-5.88,7.63-6.24,11.19-.2,0-.39.01-.59.01-3.44,0-6.87-1.09-10.21-3.23.13-1.66,1.12-14.98,1.18-15.83.38-5.1,3.93-9.52,8.82-11.01l9.27-2.81M27.54,69.81l-9.38,2.84c-5.03,1.53-8.61,5.99-9,11.23-.08,1.1-1.14,15.4-1.19,15.98,3.59,2.34,7.15,3.35,10.47,3.35.28,0,.55,0,.82-.02.29-3.84,2.9-8.11,6.18-11.25,3.16-3.05,7.1-5.33,10.76-5.87.46-5.81-1.98-11.91-8.66-16.26h0Z"/>
      </g>
    </g>
    <g id="Pelvis">
      <path d="M51.02,207.73c-1.59-.01-3.41-1.13-4.74-1.95l-.29-.18c-5.15-3.15-11.9-5.24-17.85-7.09-6.41-1.99-11.94-3.7-11.78-5.91.47-6.45,1.35-9.36,2.96-14.64l.02-.05c8.87,4.27,19.31,6.44,31.05,6.44h1.29c11.74,0,22.18-2.17,31.05-6.44l.02.05c1.6,5.28,2.48,8.19,2.96,14.64.16,2.21-5.38,3.92-11.79,5.91-5.95,1.84-12.69,3.93-17.85,7.09l-.29.18c-1.33.82-3.15,1.94-4.74,1.95Z"/>
      <path class="cls-1" d="M19.41,178.09c8.86,4.24,19.27,6.39,30.97,6.39h.65s.65,0,.65,0c11.7,0,22.11-2.15,30.97-6.39,1.58,5.22,2.46,8.13,2.93,14.53.15,2.11-5.34,3.81-11.7,5.78-5.96,1.85-12.71,3.94-17.87,7.1l-.3.18c-1.32.81-3.12,1.92-4.67,1.93-1.56-.01-3.36-1.12-4.67-1.93l-.3-.18c-5.17-3.16-11.92-5.25-17.87-7.1-6.36-1.97-11.85-3.67-11.7-5.78.47-6.4,1.34-9.31,2.93-14.53M82.79,177.74c-8.93,4.33-19.29,6.49-31.12,6.49-.22,0-.43,0-.65,0-.22,0-.43,0-.65,0-11.83,0-22.2-2.16-31.12-6.49-1.64,5.41-2.54,8.32-3.02,14.86-.31,4.31,18.64,6.35,29.69,13.11,1.38.85,3.35,2.14,5.1,2.15,1.75-.01,3.72-1.3,5.1-2.15,11.05-6.76,30-8.8,29.69-13.11-.48-6.54-1.38-9.45-3.02-14.86h0Z"/>
    </g>
    <g id="Abdomen">
      <g id="Abdomen_Lower" data-name="Abdomen Lower">
        <path d="M50.38,184.11c-11.72,0-22.14-2.16-30.98-6.43,2.37-7.86,5.5-14.43,8.01-19.71,1.55-3.26,2.89-6.08,3.57-8.25,6.72,2.16,13.25,3.21,19.95,3.21h.18c6.7,0,13.23-1.05,19.95-3.21.68,2.17,2.02,4.99,3.57,8.25,2.51,5.28,5.63,11.84,8.01,19.71-8.84,4.27-19.26,6.43-30.98,6.43h-1.29Z"/>
        <path class="cls-1" d="M70.98,149.87c.69,2.16,2.02,4.94,3.54,8.15,2.5,5.25,5.6,11.77,7.97,19.6-8.8,4.23-19.17,6.37-30.82,6.37h-.65s-.65,0-.65,0c-11.65,0-22.02-2.14-30.82-6.37,2.37-7.82,5.48-14.34,7.97-19.6,1.52-3.2,2.85-5.98,3.54-8.15,6.69,2.14,13.19,3.17,19.86,3.17h.09s.09,0,.09,0c6.67,0,13.17-1.04,19.86-3.17M71.14,149.55c-6.69,2.16-13.31,3.24-20.03,3.24-.03,0-.06,0-.09,0-.03,0-.06,0-.09,0-6.72,0-13.34-1.08-20.03-3.24-1.7,5.56-7.73,15.15-11.65,28.18h0c8.93,4.34,19.29,6.5,31.12,6.5.22,0,.43,0,.65,0,.22,0,.43,0,.65,0,11.83,0,22.2-2.16,31.12-6.49h0c-3.92-13.04-9.95-22.63-11.65-28.19h0Z"/>
      </g>
      <g id="Abdomen_Upper" data-name="Abdomen Upper">
        <path d="M51.02,152.67c-6.78,0-13.3-1.05-20.01-3.21l-6.1-28.47c8.69-.8,17.47-1.21,26.11-1.21s17.42.41,26.11,1.21l-6.1,28.47c-6.71,2.16-13.23,3.21-19.92,3.21h-.09Z"/>
        <path class="cls-1" d="M51.02,119.9c8.59,0,17.32.4,25.96,1.19l-6.05,28.26c-6.68,2.14-13.16,3.18-19.81,3.18h-.09s-.09,0-.09,0c-6.65,0-13.14-1.04-19.81-3.18l-6.05-28.26c8.64-.79,17.37-1.19,25.96-1.19M51.02,119.65c-8.73,0-17.52.41-26.26,1.22l6.14,28.68c6.69,2.16,13.31,3.24,20.03,3.24.03,0,.06,0,.09,0,.03,0,.06,0,.09,0,6.72,0,13.34-1.08,20.03-3.24l6.14-28.68c-8.74-.81-17.53-1.22-26.26-1.22h0Z"/>
      </g>
    </g>
    <g id="Chest">
      <g id="Breast">
        <path d="M34.36,118.69c-4.79,0-8.5-1.23-11.03-3.65-2.74-2.57-4.17-6.89-3.94-11.84.27-3.51,2.62-7.79,6.14-11.17,4.23-3.9,8.4-5.96,12.08-5.96,3.29,0,6.08,1.64,8.04,4.76,2.01,3.18,3.07,7.73,3.06,13.18,0,9.88-4.7,14.69-14.35,14.69Z"/>
        <path class="cls-1" d="M37.61,85.94v.25h0c3.25,0,5.99,1.62,7.94,4.7,2,3.16,3.05,7.69,3.04,13.11,0,9.8-4.65,14.56-14.23,14.56-4.75,0-8.44-1.21-10.95-3.61-2.71-2.55-4.13-6.83-3.9-11.74.27-3.49,2.6-7.73,6.1-11.09,4.2-3.88,8.35-5.93,12-5.93v-.25M37.61,85.94c-3.54,0-7.71,1.88-12.17,6-3.28,3.14-5.89,7.41-6.18,11.25-.21,4.58.97,9.11,3.98,11.94,2.4,2.29,6,3.68,11.12,3.68,11.2,0,14.48-6.63,14.48-14.81,0-11.24-4.49-18.06-11.23-18.06h0Z"/>
      </g>
      <g id="Breast-2" data-name="Breast">
        <path d="M67.68,118.69c-9.66,0-14.35-4.8-14.35-14.69,0-5.44,1.05-10,3.06-13.18,1.97-3.11,4.75-4.76,8.04-4.76,3.68,0,7.86,2.06,12.08,5.97,3.52,3.37,5.87,7.65,6.14,11.17.23,4.95-1.2,9.27-3.94,11.84-2.54,2.42-6.25,3.65-11.03,3.65Z"/>
        <path class="cls-1" d="M64.44,86.19c3.65,0,7.79,2.05,11.99,5.93,3.5,3.35,5.84,7.6,6.1,11.08.23,4.92-1.19,9.2-3.9,11.75-2.51,2.4-6.19,3.61-10.95,3.61-9.58,0-14.23-4.76-14.23-14.56,0-5.42,1.05-9.95,3.04-13.11,1.94-3.07,4.69-4.7,7.94-4.7M64.44,85.94c-6.75,0-11.24,6.82-11.23,18.06,0,8.18,3.28,14.81,14.48,14.81,5.12,0,8.72-1.39,11.12-3.68,3.01-2.83,4.19-7.36,3.98-11.94-.29-3.84-2.9-8.11-6.18-11.25-4.46-4.11-8.62-6-12.17-6h0Z"/>
      </g>
      <g id="Chest-2" data-name="Chest">
        <path d="M23.47,115.51c2.57,2.27,6.23,3.42,10.89,3.42,9.69,0,14.6-5.02,14.6-14.94.05-5.11-1.2-11.88-4.85-15.56-1.73-1.75-3.83-2.63-6.23-2.63-.5,0-1.02.04-1.55.12.43-6.17-2.34-11.68-7.84-15.61,5.91,2.17,13.17,3.23,22.14,3.23h.77c8.97,0,16.23-1.06,22.14-3.23-5.51,3.94-8.28,9.44-7.84,15.61-.53-.08-1.05-.12-1.55-.12-2.4,0-4.5.89-6.23,2.63-3.65,3.68-4.9,10.45-4.85,15.56,0,9.91,4.91,14.93,14.6,14.93,4.66,0,8.32-1.15,10.89-3.42l-1.38,5.22c-8.71-.8-17.51-1.21-26.17-1.21s-17.46.41-26.17,1.21l-1.38-5.23Z"/>
        <path class="cls-1" d="M72.81,70.71c-5.05,3.89-7.6,9.17-7.23,15.07-.48-.06-.95-.1-1.41-.1-2.44,0-4.56.9-6.32,2.67-3.67,3.71-4.93,10.52-4.89,15.65,0,9.99,4.96,15.06,14.73,15.06,4.51,0,8.09-1.07,10.67-3.19l-1.25,4.74c-8.67-.8-17.44-1.2-26.07-1.2s-17.4.4-26.07,1.2l-1.25-4.74c2.58,2.12,6.16,3.19,10.67,3.19,9.77,0,14.73-5.07,14.73-15.06.05-5.13-1.21-11.94-4.89-15.65-1.76-1.77-3.88-2.67-6.32-2.67-.46,0-.93.03-1.41.1.37-5.9-2.18-11.18-7.23-15.07,5.78,1.99,12.81,2.96,21.39,2.96h.39s.39,0,.39,0c8.59,0,15.61-.97,21.39-2.96M74.5,69.81c-6.52,2.6-14.39,3.6-23.09,3.6-.13,0-.26,0-.39,0-.13,0-.26,0-.39,0-8.71,0-16.57-1-23.09-3.6,6.68,4.35,9.12,10.45,8.66,16.26.58-.09,1.14-.14,1.68-.14,7.96,0,11.03,9.85,10.96,18.07,0,8.18-3.28,14.81-14.48,14.81-5.12,0-8.72-1.39-11.12-3.68l1.52,5.74c8.74-.81,17.53-1.22,26.26-1.22s17.52.41,26.26,1.22l1.52-5.74c-2.4,2.29-6,3.68-11.12,3.68-11.2,0-14.48-6.63-14.48-14.81-.07-8.21,3-18.07,10.96-18.07.54,0,1.1.05,1.68.14-.46-5.81,1.98-11.91,8.66-16.26h0Z"/>
      </g>
    </g>
    <g id="Neck">
      <path d="M50.64,73.29c-9.26,0-16.68-1.13-22.68-3.45l8.94-2.16c2.94-.71,4.99-3.31,4.99-6.33v-11.82c2.54,2.86,5.61,4.32,9.14,4.32s6.59-1.45,9.13-4.32v11.82c0,3.02,2.05,5.63,4.99,6.33l8.94,2.16c-6,2.32-13.42,3.45-22.68,3.45h-.77Z"/>
      <path class="cls-1" d="M60.03,49.86v11.49c0,3.08,2.09,5.73,5.08,6.45l8.55,2.06c-5.92,2.22-13.21,3.3-22.26,3.3h-.39s-.39,0-.39,0c-9.05,0-16.34-1.08-22.26-3.3l8.55-2.06c2.99-.72,5.08-3.37,5.08-6.45v-11.49c2.52,2.73,5.55,4.12,9.01,4.12s6.49-1.38,9.01-4.12M60.28,49.2c-2.42,2.84-5.51,4.52-9.26,4.52s-6.84-1.68-9.26-4.52v12.15c0,2.95-2.02,5.52-4.89,6.21l-9.33,2.25c6.52,2.6,14.39,3.6,23.09,3.6.13,0,.26,0,.39,0,.13,0,.26,0,.39,0,8.71,0,16.57-1,23.09-3.6l-9.33-2.25c-2.87-.69-4.89-3.26-4.89-6.21v-12.15h0Z"/>
    </g>
    <g id="Head">
      <g id="Ear">
        <path d="M35.14,34.62c-.2,0-.37-.08-.53-.24-.43-.44-.54-1.17-.64-1.87-.1-.67-.19-1.29-.55-1.66-.68-.68-1.46-2.39-1.46-3.58s.37-1.5,1.58-1.5c.24,0,.45.02.64.06.25,3.1.66,6.04,1.22,8.75-.09.03-.18.04-.26.04Z"/>
        <path class="cls-1" d="M33.53,25.89c.19,0,.36.01.53.04.24,3.02.64,5.9,1.19,8.55-.04,0-.08,0-.11,0-.16,0-.3-.07-.44-.2-.41-.41-.51-1.12-.6-1.8-.1-.69-.19-1.34-.59-1.73-.65-.65-1.43-2.35-1.43-3.49,0-1.08.31-1.38,1.45-1.38M33.53,25.64c-1.28,0-1.7.41-1.7,1.63s.8,2.97,1.5,3.67c.71.71.31,2.64,1.19,3.53.2.2.41.27.62.27.14,0,.27-.03.4-.08-.6-2.84-1.01-5.85-1.25-8.93-.19-.05-.43-.09-.76-.09h0Z"/>
      </g>
      <g id="Ear-2" data-name="Ear">
        <path d="M66.91,34.62c-.08,0-.17-.01-.26-.04.57-2.7.98-5.64,1.22-8.75.2-.04.4-.06.64-.06,1.21,0,1.58.35,1.58,1.5s-.79,2.91-1.46,3.58c-.37.37-.46.99-.55,1.66-.1.7-.2,1.43-.64,1.87-.16.16-.33.24-.53.24h0Z"/>
        <path class="cls-1" d="M68.51,25.89c1.14,0,1.45.3,1.45,1.38,0,1.14-.78,2.85-1.43,3.49-.4.4-.49,1.04-.59,1.73-.1.68-.2,1.39-.6,1.8-.14.14-.28.2-.44.2-.04,0-.07,0-.11,0,.55-2.65.95-5.53,1.19-8.55.16-.03.33-.04.53-.04M68.51,25.64c-.33,0-.57.04-.76.09-.24,3.08-.65,6.09-1.25,8.93.13.05.27.08.4.08.21,0,.42-.08.62-.27.88-.89.48-2.82,1.19-3.53.7-.7,1.5-2.45,1.5-3.67s-.42-1.63-1.7-1.63h0Z"/>
      </g>
      <g id="Head-2" data-name="Head">
        <path d="M51.02,53.6c-3.55,0-6.63-1.51-9.17-4.48-2.79-3.25-4.87-8.12-6.19-14.48-.58-2.75-1-5.75-1.25-8.91-.18-2.28-.27-4.61-.27-6.94C34.15,1.94,45.95.12,51.02.12s16.88,1.82,16.88,18.66c0,2.32-.09,4.66-.27,6.94-.25,3.17-.67,6.17-1.25,8.91-1.32,6.36-3.4,11.23-6.19,14.48-2.53,2.97-5.62,4.48-9.17,4.48Z"/>
        <path class="cls-1" d="M51.02.25c5.04,0,16.75,1.81,16.75,18.53,0,2.33-.09,4.66-.27,6.93-.25,3.16-.66,6.15-1.25,8.9-1.31,6.34-3.39,11.19-6.17,14.43-2.51,2.94-5.56,4.44-9.07,4.44s-6.56-1.49-9.07-4.44c-2.78-3.24-4.85-8.09-6.17-14.43-.58-2.75-1-5.74-1.25-8.9-.18-2.27-.27-4.6-.27-6.93C34.27,2.06,45.99.25,51.02.25M51.02,0C45.53,0,34.02,2.21,34.02,18.78c0,2.33.09,4.66.27,6.95.24,3.08.65,6.09,1.25,8.93,1.23,5.93,3.26,11.09,6.22,14.54,2.42,2.84,5.51,4.52,9.26,4.52s6.84-1.68,9.26-4.52c2.96-3.45,4.99-8.61,6.22-14.54.6-2.84,1.01-5.85,1.25-8.93.18-2.29.27-4.62.27-6.95C68.02,2.21,56.51,0,51.02,0h0Z"/>
      </g>
    </g>
  </g>
</svg>