<?xml version="1.0" encoding="UTF-8"?>
<svg id="Female_Front" data-name="Female Front" xmlns="http://www.w3.org/2000/svg" viewBox="0 0 102.05 442.42">
  <g id="Bodymap_Female_Front" data-name="Bodymap Female Front" fill="rgba(51, 42, 41, 1)">
    <g id="Leg_L" data-name="Leg L">
      <g id="Foot">
        <path d="M57.73,434.3c0,6.83,1.65,8.12,7.86,8.12s13.47.44,13.47-8.03c0-8.01-5.4-19.92-5.98-24.63-3.93,1.34-8.26,1.57-12.69.96.36,6.81-2.65,16.09-2.66,23.58Z"/>
      </g>
      <g id="Ankle">
        <path d="M59.13,403.43c0,3.74,1.08,2.83,1.26,7.29,4.43.61,8.76.38,12.69-.96-.61-3.84,1.92-4.29,1.9-6.62,0-2.58-1.1-4.06-1.1-6.18,0-5.67-13.31-4.66-13.31,0,.03,4.57-1.44,2.42-1.44,6.47Z"/>
      </g>
      <g id="Shin">
        <path d="M57.54,336.18c.03,8.51,1.9,41.59,3.03,60.78,0-4.66,13.31-5.67,13.31,0v.05c2.43-19.69,6.53-54.1,6.53-61.91,0-11.11-2.63-14.4-2.63-25.32-6.34,3.14-12.68,3.14-19.01,0,0,14.35-1.27,14.21-1.23,26.4Z"/>
      </g>
      <g id="Knee">
        <path d="M58.77,309.78c6.33,3.14,12.67,3.14,19.01,0,0-3.81.04-8.12.05-11.79-6.34-2.88-12.73-1.96-19.06.91-.44,3.4-.39,7.05,0,10.88Z"/>
      </g>
      <g id="Thigh">
        <path d="M58.77,298.9c6.33-2.87,12.72-3.79,19.06-.91,1.68-27.85,12-77.6,7.98-105.39.31,4.31-18.64,6.35-29.69,13.11-.82.5-1.81,1.14-2.84,1.59-.47,25.66,4.41,55.85,5.49,91.6Z"/>
      </g>
    </g>
    <g id="Leg_R" data-name="Leg R">
      <g id="Foot-2" data-name="Foot">
        <path d="M44.31,434.3c0,6.83-1.65,8.12-7.86,8.12s-13.47.44-13.47-8.03c0-8.01,5.4-19.92,5.98-24.63,3.93,1.34,8.26,1.57,12.69.96-.36,6.81,2.65,16.09,2.66,23.58Z"/>
      </g>
      <g id="Ankle-2" data-name="Ankle">
        <path d="M42.91,403.43c0,3.74-1.08,2.83-1.26,7.29-4.43.61-8.76.38-12.69-.96.61-3.84-1.92-4.29-1.9-6.62,0-2.58,1.1-4.06,1.1-6.18,0-5.67,13.31-4.66,13.31,0-.03,4.57,1.44,2.42,1.44,6.47Z"/>
      </g>
      <g id="Shin-2" data-name="Shin">
        <path d="M44.5,336.18c-.03,8.51-1.9,41.59-3.03,60.78,0-4.66-13.31-5.67-13.31,0v.05c-2.43-19.69-6.53-54.1-6.53-61.91,0-11.11,2.63-14.4,2.63-25.32,6.34,3.14,12.68,3.14,19.01,0,0,14.35,1.27,14.21,1.23,26.4Z"/>
      </g>
      <g id="Knee-2" data-name="Knee">
        <path d="M43.27,309.78c-6.33,3.14-12.67,3.14-19.01,0,0-3.81-.04-8.12-.05-11.79,6.34-2.88,12.73-1.96,19.06.91.44,3.4.39,7.05,0,10.88Z"/>
      </g>
      <g id="Thigh-2" data-name="Thigh">
        <path d="M43.27,298.9c-6.33-2.87-12.72-3.79-19.06-.91-1.68-27.85-12-77.6-7.98-105.39-.31,4.31,18.64,6.35,29.69,13.11.82.5,1.81,1.14,2.84,1.59.47,25.66-4.41,55.85-5.49,91.6Z"/>
      </g>
    </g>
    <g id="Arm_L" data-name="Arm L">
      <g id="Arm_Upper" data-name="Arm Upper">
        <path d="M78.8,115.13c.8,4.76,1.2,9.58,1.96,15.84.91,7.58,3.02,15.14,4.23,23.52,3.48-2.72,8.38-2.91,12.14-.94-2.81-21.5.47-34.26-3.06-53.69-3.89,2.53-7.74,3.51-11.29,3.33.21,4.58-.97,9.11-3.98,11.94Z"/>
      </g>
      <g id="Arm_Lower" data-name="Arm Lower">
        <path d="M92.84,219.01c2.41-1.23,4.64-1.35,7.02.47,3.6-36.23,2.79-55.24-2.73-65.93-3.76-1.97-8.66-1.78-12.14.94-2.11,20.62,5.8,43.06,7.85,64.52Z"/>
      </g>
      <g id="Hand">
        <path d="M86.31,247.84c0,1.6,3.35,2.68,5.19,2.68.87,0,1.72-.35,2.39-.72.41-.9.74-2.25,1.01-3.55.08-.43.16-.85.23-1.25-.84,1.01-2.5,3.1-3.87,3.17-1.69,0-4.95-1.93-4.95-.33Z"/>
        <path d="M87.88,245.25c-.05,1.25,3.5,2.7,5.4,1.78.7-.64,1.37-1.43,1.85-2.03.12-.71.22-1.34.29-1.79-1.14,1-3.01,2.04-3.5,2.04-.71,0-4.04-.85-4.04,0Z"/>
        <path d="M95.45,243.03s-.02.11-.02.17h0c-.3,1.93-.77,4.91-1.53,6.6-.79,2.1-4.76,2.32-4.86,5.19,0,1.76,4.65-.21,6.98-2.54,2.33-2.33,5.3-9.42,5.3-11.7,0-5.38-.65-15.42-1.45-21.27-2.38-1.82-4.61-1.7-7.02-.47,0,0-3.04,4.14-3.67,6.33-.55,1.88.28,7.41-1.01,14.75-.21,1.19,1.92.96,2.42-.14,1.39-3.05,2.62-9.24,3.53-9.24,1.9,0,1.59,10.7,1.34,12.32Z"/>
      </g>
      <g id="Shoulder">
        <path d="M65.84,86.07c3.66.54,7.6,2.82,10.76,5.87,3.28,3.14,5.89,7.41,6.18,11.25,3.55.18,7.4-.8,11.29-3.33-.05-.58-1.11-14.88-1.19-15.98-.39-5.24-3.97-9.7-9-11.23l-9.38-2.84c-6.68,4.35-9.12,10.45-8.66,16.26Z"/>
      </g>
    </g>
    <g id="Arm_R" data-name="Arm R">
      <path d="M23.24,115.13c-.8,4.76-1.2,9.58-1.96,15.84-.91,7.58-3.02,15.14-4.23,23.52-3.48-2.72-8.38-2.91-12.14-.94,2.81-21.5-.47-34.26,3.06-53.69,3.89,2.53,7.74,3.51,11.29,3.33-.21,4.58.97,9.11,3.98,11.94Z"/>
      <g id="Arm_Lower-2" data-name="Arm Lower">
        <path d="M9.2,219.01c-2.41-1.23-4.64-1.35-7.02.47-3.6-36.23-2.79-55.24,2.73-65.93,3.76-1.97,8.66-1.78,12.14.94,2.11,20.62-5.8,43.06-7.85,64.52Z"/>
      </g>
      <g id="Hand-2" data-name="Hand">
        <path d="M15.73,247.84c0,1.6-3.35,2.68-5.19,2.68-.87,0-1.72-.35-2.39-.72-.41-.9-.74-2.25-1.01-3.55-.08-.43-.16-.85-.23-1.25.84,1.01,2.5,3.1,3.87,3.17,1.69,0,4.95-1.93,4.95-.33Z"/>
        <path d="M14.16,245.25c.05,1.25-3.5,2.7-5.4,1.78-.7-.64-1.37-1.43-1.85-2.03-.12-.71-.22-1.34-.29-1.79,1.14,1,3.01,2.04,3.5,2.04.71,0,4.04-.85,4.04,0Z"/>
        <path d="M6.59,243.03s.02.11.02.17h0c.3,1.93.77,4.91,1.53,6.6.79,2.1,4.76,2.32,4.86,5.19,0,1.76-4.65-.21-6.98-2.54-2.33-2.33-5.3-9.42-5.3-11.7,0-5.38.65-15.42,1.45-21.27,2.38-1.82,4.61-1.7,7.02-.47,0,0,3.04,4.14,3.67,6.33.55,1.88-.28,7.41,1.01,14.75.21,1.19-1.92.96-2.42-.14-1.39-3.05-2.62-9.24-3.53-9.24-1.9,0-1.59,10.7-1.34,12.32Z"/>
      </g>
      <path d="M36.2,86.07c-3.66.54-7.6,2.82-10.76,5.87-3.28,3.14-5.89,7.41-6.18,11.25-3.55.18-7.4-.8-11.29-3.33.05-.58,1.11-14.88,1.19-15.98.39-5.24,3.97-9.7,9-11.23l9.38-2.84c6.68,4.35,9.12,10.45,8.66,16.26Z"/>
    </g>
    <g id="Pelvis">
      <path d="M82.79,177.74c-9.09,4.41-19.67,6.57-31.77,6.49-12.1.08-22.68-2.08-31.77-6.49-1.64,5.41-2.54,8.32-3.02,14.86-.31,4.31,18.64,6.35,29.69,13.11,1.38.85,3.35,2.14,5.1,2.15,1.75-.01,3.72-1.3,5.1-2.15,11.05-6.76,30-8.8,29.69-13.11-.48-6.54-1.38-9.45-3.02-14.86Z"/>
    </g>
    <g id="Abdomen">
      <g id="Abdomen_Lower" data-name="Abdomen Lower">
        <path d="M71.14,149.55c-6.72,2.17-13.37,3.25-20.12,3.24-6.75.01-13.4-1.07-20.12-3.24-1.7,5.56-7.73,15.15-11.65,28.18h0c9.09,4.42,19.67,6.58,31.77,6.5,12.1.08,22.68-2.08,31.77-6.49h0c-3.92-13.04-9.95-22.63-11.65-28.19Z"/>
      </g>
      <g id="Abdomen_Upper" data-name="Abdomen Upper">
        <path d="M51.02,119.65c-8.73,0-17.52.41-26.26,1.22l6.14,28.68c6.72,2.17,13.37,3.25,20.12,3.24,6.75.01,13.4-1.07,20.12-3.24l6.14-28.68c-8.74-.81-17.53-1.22-26.26-1.22Z"/>
      </g>
    </g>
    <g id="Chest">
      <g id="Breast">
        <path d="M48.84,104c0,8.18-3.28,14.81-14.48,14.81-5.12,0-8.72-1.39-11.12-3.68-3.01-2.83-4.19-7.36-3.98-11.94.29-3.84,2.83-8.19,6.17-11.27,12.94-11.95,23.41-5.23,23.41,12.08Z"/>
      </g>
      <g id="Breast-2" data-name="Breast">
        <path d="M53.2,104c0,8.18,3.28,14.81,14.48,14.81,5.12,0,8.72-1.39,11.12-3.68,3.01-2.83,4.19-7.36,3.98-11.94-.29-3.84-2.89-8.14-6.17-11.28-12.94-11.95-23.41-5.4-23.41,12.09Z"/>
      </g>
      <g id="Chest-2" data-name="Chest">
        <path d="M67.68,118.81c-11.2,0-14.48-6.63-14.48-14.81-.08-8.77,3.43-19.41,12.64-17.93-.46-5.81,1.98-11.91,8.66-16.26-6.62,2.64-14.62,3.63-23.48,3.6-8.86.03-16.86-.96-23.48-3.6,6.68,4.35,9.12,10.45,8.66,16.26,8.97-1.46,12.72,9.16,12.64,17.93,0,8.18-3.28,14.81-14.48,14.81-5.12,0-8.72-1.39-11.12-3.68l1.52,5.74c8.74-.81,17.53-1.22,26.26-1.22s17.52.41,26.26,1.22l1.52-5.74c-2.4,2.29-6,3.68-11.12,3.68Z"/>
      </g>
    </g>
    <g id="Neck">
      <path d="M65.17,67.56c-2.87-.69-4.89-3.26-4.89-6.21v-12.15c-2.42,2.84-5.51,4.52-9.26,4.52s-6.84-1.68-9.26-4.52v12.15c0,2.95-2.02,5.52-4.89,6.21l-9.33,2.25c6.62,2.64,14.62,3.63,23.48,3.6,8.86.03,16.86-.96,23.48-3.6l-9.33-2.25Z"/>
    </g>
    <g id="Head">
      <g id="Ear">
        <path d="M35.54,34.66c-.33.13-.69.14-1.02-.19-.88-.89-.48-2.82-1.19-3.53-.7-.7-1.5-2.45-1.5-3.67s.42-1.63,1.7-1.63c.33,0,.57.04.76.09.24,3.08.65,6.09,1.25,8.93Z"/>
      </g>
      <g id="Ear-2" data-name="Ear">
        <path d="M66.5,34.66c.33.13.69.14,1.02-.19.88-.89.48-2.82,1.19-3.53.7-.7,1.5-2.45,1.5-3.67s-.42-1.63-1.7-1.63c-.33,0-.57.04-.76.09-.24,3.08-.65,6.09-1.25,8.93Z"/>
      </g>
      <g id="Head-2" data-name="Head">
        <path d="M51.02,0C45.53,0,34.02,2.21,34.02,18.78c0,2.33.09,4.66.27,6.95.24,3.08.65,6.09,1.25,8.93,1.23,5.93,3.26,11.09,6.22,14.54,2.42,2.84,5.51,4.52,9.26,4.52s6.84-1.68,9.26-4.52c2.96-3.45,4.99-8.61,6.22-14.54.6-2.84,1.01-5.85,1.25-8.93.18-2.29.27-4.62.27-6.95C68.02,2.21,56.51,0,51.02,0Z"/>
      </g>
    </g>
  </g>
</svg>