<?xml version="1.0" encoding="UTF-8"?>
<svg id="Male" xmlns="http://www.w3.org/2000/svg" viewBox="0 0 121.46 459.06">
  <g data-name="Male Front" fill="rgba(51, 42, 41, 1)">
    <g id="Leg_L" data-name="Leg L">
      <g id="Thigh">
        <path d="M66.35,263.1c.08,15.17-2.16,31.44-1.49,43.32,7.77-5.11,15.62-4.81,23.75-1.42.14-22.9,8.72-26.23,8.72-90.43,0-5.22-.13-9.8-.35-13.84-11.87,4.01-23.03,8.73-33.48,14.14-1.91,11.97,2.67,30.07,2.85,48.23Z"/>
      </g>
      <g id="Knee">
        <path d="M64.86,306.42c.58,6.73,2.58,11.99,3.04,17.75,7.85,3.43,15.45,4.05,22.94-.21-1.18-6.52-2.29-12.61-2.23-18.96-8.13-3.39-15.98-3.69-23.75,1.42Z"/>
      </g>
      <g id="Shin">
        <path d="M72.26,392.68c0,3.45.06,10.92-.57,16.99,2.84-2.65,10.58-2.38,12.38.76-.03-.25-.04-.51-.06-.78-.41-7.34,9.39-45.83,9.39-62.5,0-8.75-1.32-16.21-2.56-23.19-7.49,4.26-15.09,3.64-22.94.21-.01,26.66,4.26,62.75,4.36,68.51Z"/>
      </g>
      <g id="Ankle">
        <path d="M69.1,418.56c0,3.78,1.1,3.34,1.31,7.59,4.61.59,9.03.4,13.25-1.03-.09-.35-.13-.61-.13-.76,0-1.82,2.01-3.79,2.01-5.8,0-1.88-1.13-4.32-1.47-8.13-1.8-3.14-9.54-3.41-12.38-.76h0c-.12,1.18-.27,2.3-.45,3.32-.52,2.98-2.14,3.8-2.14,5.57Z"/>
      </g>
      <g id="Foot">
        <path d="M67.65,450.63c0,7.38.64,8.43,8.16,8.43s14-.38,14-8.34c0-7.28-5.27-21.82-6.15-25.6-4.22,1.43-8.64,1.62-13.25,1.03.37,6.71-2.75,16.33-2.76,24.48Z"/>
      </g>
    </g>
    <g id="Leg_R" data-name="Leg R">
      <g id="Thigh-2" data-name="Thigh">
        <path d="M55.11,263.1c-.08,15.17,2.16,31.44,1.49,43.32-7.77-5.11-15.62-4.81-23.75-1.42-.14-22.9-8.72-26.23-8.72-90.43,0-5.22.13-9.8.35-13.84,11.87,4.01,23.03,8.73,33.48,14.14,1.91,11.97-2.67,30.07-2.85,48.23Z"/>
      </g>
      <g id="Knee-2" data-name="Knee">
        <path d="M56.6,306.42c-.58,6.73-2.58,11.99-3.04,17.75-7.85,3.43-15.45,4.05-22.94-.21,1.18-6.52,2.29-12.61,2.23-18.96,8.13-3.39,15.98-3.69,23.75,1.42Z"/>
      </g>
      <g id="Shin-2" data-name="Shin">
        <path d="M49.2,392.68c0,3.45-.06,10.92.57,16.99-2.84-2.65-10.58-2.38-12.38.76.03-.25.04-.51.06-.78.41-7.34-9.39-45.83-9.39-62.5,0-8.75,1.32-16.21,2.56-23.19,7.49,4.26,15.09,3.64,22.94.21.01,26.66-4.26,62.75-4.36,68.51Z"/>
      </g>
      <g id="Ankle-2" data-name="Ankle">
        <path d="M52.36,418.56c0,3.78-1.1,3.34-1.31,7.59-4.61.59-9.03.4-13.25-1.03.09-.35.13-.61.13-.76,0-1.82-2.01-3.79-2.01-5.8,0-1.88,1.13-4.32,1.47-8.13,1.8-3.14,9.54-3.41,12.38-.76h0c.12,1.18.27,2.3.45,3.32.52,2.98,2.14,3.8,2.14,5.57Z"/>
      </g>
      <g id="Foot-2" data-name="Foot">
        <path d="M53.81,450.63c0,7.38-.64,8.43-8.16,8.43s-14-.38-14-8.34c0-7.28,5.27-21.82,6.15-25.6,4.22,1.43,8.64,1.62,13.25,1.03-.37,6.71,2.75,16.33,2.76,24.48Z"/>
      </g>
    </g>
    <g id="Pelvis">
      <path d="M95.1,183.87c-23.15,9.62-45.59,9.62-68.74,0-.82,4.41-1.5,9.84-1.88,16.86,11.87,4.01,23.03,8.73,33.48,14.14.56.25,2.13.63,2.77.56.64.07,2.21-.31,2.77-.56,10.45-5.41,21.61-10.13,33.48-14.14-.38-7.02-1.06-12.45-1.88-16.86Z"/>
    </g>
    <g id="Abdomen_Upper" data-name="Abdomen Upper">
      <path d="M87.75,150.15c0,1.18.03,2.29.08,3.34-17.98,6.4-36.06,6.06-54.2-.02.47-9.26-1.11-19.46-3.09-27.29,20.19-3.05,40.33-3.23,60.38-.01-1.75,7.03-3.17,15.38-3.17,23.98Z"/>
    </g>
    <g id="Abdomen_Lower" data-name="Abdomen Lower">
      <path d="M95.11,183.92c-22.81,9.9-46,9.63-68.75-.05,2.61-14.08,6.67-17.82,7.27-30.4,18.14,6.08,36.22,6.42,54.2.02.61,12.58,4.67,16.32,7.28,30.43Z"/>
    </g>
    <g id="Chest">
      <path d="M79.84,91.94c0-3.85,1.16-7.37,3.17-10.37,0,0,6.75-10.67,6.75-10.67-19.5,7.04-38.56,7.04-58.06,0l6.75,10.67c2.01,3,3.17,6.52,3.17,10.37,0,9.43-7.04,17.22-16.14,18.4,1.44,3.48,3.87,10.79,5.06,15.84,20.3-3.11,40.08-3.11,60.38,0,1.19-5.05,3.62-12.36,5.06-15.84-9.1-1.18-16.14-8.97-16.14-18.4Z"/>
    </g>
    <g id="Arm_L" data-name="Arm L">
      <g id="Shoulder">
        <path d="M79.84,91.94c0,10.71,8.51,18.61,18.55,18.56,3.23,0,6.26-.83,8.9-2.27l8.14-4.41c.06-1.86.23-3.55.32-5.33.41-10.52-5.23-19.94-11.22-22.38-2.95-1.3-10.67-3.9-14.76-5.22h-.01s-6.75,10.68-6.75,10.68c-2.01,3-3.17,6.52-3.17,10.37Z"/>
      </g>
      <g id="Arm_Upper" data-name="Arm Upper">
        <path d="M92.39,120.77c2.21,4.79,6.75,23.32,7.12,32.99,5.44-2,11.12-3.19,17.22-3.06-.31-1.95-.47-4.5-.41-9.33.09-7.24-1.45-24.19-.89-37.55l-8.14,4.41c-3.27,1.81-7.43,2.65-11.31,2.11-.95,2.39-2.28,6-3.59,10.43Z"/>
      </g>
      <g id="Arm_Lower" data-name="Arm Lower">
        <path d="M99.53,154.95c.04,17.56,12.46,44.3,10.71,60.67,4.28.04,7.99,1.32,11.13,3.84.04-1.23.07-2.48.09-3.74-.13-9.18-.7-16.08-1.3-22.86.43-18.65-.5-30.23-3.43-42.16-6.1-.13-11.78,1.06-17.22,3.06.01.41.02.81.02,1.19Z"/>
      </g>
      <g id="Hand">
        <path d="M108.98,244.92c.42-1.08.71-2.28.92-3.55-1.24,2.93-10.93,7.93-10.93,9.3,0,1.22.98,1.29.98,1.29,4.9-1.82,9.11-6.79,9.03-7.04Z"/>
        <path d="M108.98,244.92c-3.12,4.03-9.73,6.2-9.73,8.32,0,1.29,1.35,1,1.35,1,0,0,6.9-4.25,7.69-5.78.92-1.79.69-3.54.69-3.54Z"/>
        <path d="M110.72,235.49c0,1.19-.75,5.7-.82,5.87t0,0c-.25,1.09-.55,2.28-.92,3.55-.08.31-.17.62-.27.93-1.22,4.02-6.36,7.32-7.9,8.23-.48.23-.5.82-.51,1.28-.03.38.29.7.68.67,3.68-.25,7.21-2.18,10.63-5.29.76-.68,1.33-1.55,1.7-2.5,1.18-2.96,2.97-5.75,5.25-8.4.86-1.01,1.42-2.24,1.58-3.56.63-5.18,1.03-10.8,1.23-16.82-3.14-2.52-6.85-3.8-11.13-3.84-.32,2.61-1.16,4.57-3.26,7.22-3.07,3.88-4.02,7.67-4.02,12.13s-3.46,10.21-3.46,11.31.77,1.68,1.68,1.68,2.69-1.92,3.69-2.98c1.01-1.05,1.82-6.32,2.73-8.62.92-2.3,3.12-2.83,3.12-.87Z"/>
      </g>
    </g>
    <g id="Arm_R" data-name="Arm R">
      <g id="Shoulder-2" data-name="Shoulder">
        <path d="M41.62,91.94c0,14.81-15.52,23.06-27.45,16.29,0,0-8.14-4.41-8.14-4.41-.06-1.86-.23-3.55-.32-5.33-.41-10.52,5.23-19.94,11.22-22.38,2.95-1.3,10.67-3.9,14.76-5.22h.01s6.75,10.68,6.75,10.68c2.01,3,3.17,6.52,3.17,10.37Z"/>
      </g>
      <g id="Arm_Upper-2" data-name="Arm Upper">
        <path d="M29.07,120.77c-2.21,4.79-6.75,23.32-7.12,32.99-5.44-2-11.12-3.19-17.22-3.06.31-1.95.47-4.5.41-9.33-.09-7.24,1.45-24.19.89-37.55l8.14,4.41c3.27,1.81,7.43,2.65,11.31,2.11,1.05,2.36,2.28,6,3.59,10.43Z"/>
      </g>
      <g id="Arm_Lower-2" data-name="Arm Lower">
        <path d="M21.93,154.95c-.04,17.56-12.46,44.3-10.71,60.67-4.28.04-7.99,1.32-11.13,3.84-.04-1.23-.07-2.48-.09-3.74.13-9.18.7-16.08,1.3-22.86-.43-18.65.5-30.23,3.43-42.16,6.1-.13,11.78,1.06,17.22,3.06-.01.41-.02.81-.02,1.19Z"/>
      </g>
      <g id="Hand-2" data-name="Hand">
        <path d="M12.48,244.92c-.42-1.08-.71-2.28-.92-3.55,1.24,2.93,10.93,7.93,10.93,9.3,0,1.22-.98,1.29-.98,1.29-4.9-1.82-9.11-6.79-9.03-7.04Z"/>
        <path d="M12.48,244.92c3.12,4.03,9.73,6.2,9.73,8.32,0,1.29-1.35,1-1.35,1,0,0-6.9-4.25-7.69-5.78-.92-1.79-.69-3.54-.69-3.54Z"/>
        <path d="M10.74,235.49c0,1.19.75,5.7.82,5.87t0,0c.25,1.09.55,2.28.92,3.55.08.31.17.62.27.93,1.22,4.02,6.36,7.32,7.9,8.23.48.23.5.82.51,1.28.03.38-.29.7-.68.67-3.68-.25-7.21-2.18-10.63-5.29-.76-.68-1.33-1.55-1.7-2.5-1.18-2.96-2.97-5.75-5.25-8.4-.86-1.01-1.42-2.24-1.58-3.56-.63-5.18-1.03-10.8-1.23-16.82,3.14-2.52,6.85-3.8,11.13-3.84.32,2.61,1.16,4.57,3.26,7.22,3.07,3.88,4.02,7.67,4.02,12.13s3.46,10.21,3.46,11.31-.77,1.68-1.68,1.68-2.69-1.92-3.69-2.98c-1.01-1.05-1.82-6.32-2.73-8.62-.92-2.3-3.12-2.83-3.12-.87Z"/>
      </g>
    </g>
    <g id="Neck">
      <path d="M89.77,70.89c-19.1,7.48-38.79,7.34-58.07.01h-.01c4.4-1.7,7.5-4.43,10.65-5.69,3.54-1.42,6.92-2.53,6.95-3.8v-13.59c2.96,1.92,10.56,4.52,11.44,4.52s8.48-2.6,11.44-4.52v13.59c.04,1.27,3.41,2.38,6.95,3.8,3,1.2,6.58,3.98,10.65,5.68Z"/>
    </g>
    <g id="Head">
      <g id="Ear">
        <path d="M43.65,34.66c-2.05,0-1.93-1.61-2.46-3.09-.41-1.18-1.6-2.7-1.6-4.18,0-1.07.24-2.44,3.02-2.44,0,3.43.42,6.74,1.04,9.71Z"/>
      </g>
      <g id="Head-2" data-name="Head">
        <path d="M78.85,24.95c0,3.43-.42,6.74-1.04,9.71-1.32,6.32-3.47,11.23-4.74,12.44-2.6,2.48-11.26,5.34-12.34,5.46-1.08-.13-9.74-2.94-12.34-5.46-1.26-1.22-3.42-6.12-4.74-12.44-.62-2.97-1.04-6.28-1.04-9.71C42.61-.76,54.46,0,60.73,0s18.12-.76,18.12,24.95Z"/>
      </g>
      <g id="Ear-2" data-name="Ear">
        <path d="M81.87,27.39c0,1.48-1.19,3-1.6,4.18-.52,1.48-.41,3.09-2.46,3.09.62-2.97,1.04-6.28,1.04-9.71,2.78,0,3.02,1.37,3.02,2.44Z"/>
      </g>
    </g>
  </g>
</svg>