<?xml version="1.0" encoding="UTF-8"?>
<svg id="Male" xmlns="http://www.w3.org/2000/svg" viewBox="0 0 121.46 459.06">
  <g id="Male_Back" data-name="Male Back" fill="rgba(51, 42, 41, 1)">
    <g id="Leg_L" data-name="Leg L">
      <g id="Foot">
        <path d="M53.81,450.63c0,7.38-.64,8.43-8.16,8.43s-14-.38-14-8.34c0-7.28,5.27-21.82,6.15-25.6,4.22,1.43,8.64,1.62,13.25,1.03-.37,6.71,2.75,16.33,2.76,24.48Z"/>
      </g>
      <g id="Ankle">
        <path d="M52.36,418.56c0,3.78-1.1,3.34-1.31,7.59-4.61.59-9.03.4-13.25-1.03.09-.35.13-.61.13-.76,0-1.82-2.01-3.79-2.01-5.8,0-1.88,1.13-4.32,1.47-8.13,1.8-3.14,9.54-3.41,12.38-.76h0c.12,1.18.27,2.3.45,3.32.52,2.98,2.14,3.8,2.14,5.57Z"/>
      </g>
      <g id="Calf">
        <path d="M49.2,392.68c0,3.45-.06,10.92.57,16.99-2.84-2.65-10.58-2.38-12.38.76.03-.25.04-.51.06-.78.41-7.34-9.39-45.83-9.39-62.5,0-8.75,1.32-16.21,2.56-23.19,7.49,4.26,15.09,3.64,22.94.21.01,26.66-4.26,62.75-4.36,68.51Z"/>
      </g>
      <g id="Popliteal">
        <path d="M56.6,306.42c-.58,6.73-2.58,11.99-3.04,17.75-7.85,3.43-15.45,4.05-22.94-.21,1.17-6.51,2.29-12.61,2.23-18.96,8.13-3.39,15.98-3.69,23.75,1.42Z"/>
      </g>
      <g id="Hamstring">
        <path d="M55.11,263.1c-.09,15.17,2.15,31.44,1.49,43.32-7.77-5.11-15.62-4.81-23.75-1.42-.14-22.9-8.72-26.23-8.72-90.43,0-5.22.13-9.8.35-13.84,0,26.22,9.82,30.88,19.06,30.88s14.42-7.49,14.42-16.74c1.91,11.97-2.67,30.07-2.85,48.23Z"/>
      </g>
    </g>
    <g id="Leg_R" data-name="Leg R">
      <g id="Ankle-2" data-name="Ankle">
        <path d="M69.1,418.56c0,3.78,1.1,3.34,1.31,7.59,4.61.59,9.03.4,13.25-1.03-.09-.35-.13-.61-.13-.76,0-1.82,2.01-3.79,2.01-5.8,0-1.88-1.13-4.32-1.47-8.13-1.8-3.14-9.54-3.41-12.38-.76h0c-.12,1.18-.27,2.3-.45,3.32-.52,2.98-2.14,3.8-2.14,5.57Z"/>
      </g>
      <g id="Foot-2" data-name="Foot">
        <path d="M67.65,450.63c0,7.38.64,8.43,8.16,8.43s14-.38,14-8.34c0-7.28-5.27-21.82-6.15-25.6-4.22,1.43-8.64,1.62-13.25,1.03.37,6.71-2.75,16.33-2.76,24.48Z"/>
      </g>
      <g id="Calf-2" data-name="Calf">
        <path d="M72.26,392.68c0,3.45.06,10.92-.57,16.99,2.84-2.65,10.58-2.38,12.38.76-.03-.25-.04-.51-.06-.78-.41-7.34,9.39-45.83,9.39-62.5,0-8.75-1.32-16.21-2.56-23.19-7.49,4.26-15.09,3.64-22.94.21-.01,26.66,4.26,62.75,4.36,68.51Z"/>
      </g>
      <g id="Popliteal-2" data-name="Popliteal">
        <path d="M64.86,306.42c.58,6.73,2.58,11.99,3.04,17.75,7.85,3.43,15.45,4.05,22.94-.21-1.17-6.51-2.29-12.61-2.23-18.96-8.13-3.39-15.98-3.69-23.75,1.42Z"/>
      </g>
      <g id="Hamstring-2" data-name="Hamstring">
        <path d="M66.35,263.1c.09,15.17-2.15,31.44-1.49,43.32,7.77-5.11,15.62-4.81,23.75-1.42.14-22.9,8.72-26.23,8.72-90.43,0-5.22-.13-9.8-.35-13.84,0,26.22-9.82,30.88-19.06,30.88s-14.42-7.49-14.42-16.74c-1.91,11.97,2.67,30.07,2.85,48.23Z"/>
      </g>
    </g>
    <g id="Buttocks">
      <path d="M95.1,183.87c-10.94,4.55-22.6,7.22-34.37,7.28-11.77-.06-23.43-2.73-34.37-7.28-.81,4.23-1.57,10.58-1.88,16.86,0,26.22,9.82,30.88,19.06,30.88s14.42-7.49,14.42-16.74c.56.25,2.13.63,2.77.56.64.07,2.21-.31,2.77-.56,0,9.25,5.17,16.74,14.42,16.74s19.06-4.66,19.06-30.88c-.31-6.28-1.07-12.63-1.88-16.86Z"/>
    </g>
    <g id="Back_Lower" data-name="Back Lower">
      <path d="M90.13,166.3c-9.8,2.6-19.59,3.9-29.4,3.9s-19.6-1.3-29.4-3.9c-1.52,4.87-3.48,9.53-4.97,17.57,10.98,4.53,22.57,7.3,34.37,7.28,11.8.02,23.39-2.75,34.37-7.28-1.49-8.04-3.45-12.7-4.97-17.57Z"/>
    </g>
    <g id="Back_Upper" data-name="Back Upper">
      <path d="M89.76,70.9c-4.77,1.72-9.67,3.08-14.64,3.97-4.77.88-9.56,1.31-14.39,1.33-4.83-.02-9.62-.45-14.39-1.33-4.97-.89-9.87-2.25-14.64-3.97-5.52,11.88-8.26,24.78-6.22,39.44,1.37,3.46,2.47,6.66,3.59,10.43h0c3.98,13.41,6.91,31.67,2.26,45.53,9.8,2.6,19.59,3.9,29.4,3.9s19.6-1.3,29.4-3.9c-4.65-13.86-1.72-32.12,2.26-45.52h0c1.12-3.78,2.22-6.98,3.59-10.44,2.04-14.66-.7-27.56-6.22-39.44Z"/>
    </g>
    <g id="Arm_L" data-name="Arm L">
      <g id="Hand">
        <path d="M12.48,244.92c-.42-1.08-.71-2.28-.92-3.55,1.24,2.93,10.93,7.93,10.93,9.3,0,1.22-.98,1.29-.98,1.29-4.9-1.82-9.11-6.79-9.03-7.04Z"/>
        <path d="M12.48,244.92c3.12,4.03,9.73,6.2,9.73,8.32,0,1.29-1.35,1-1.35,1,0,0-6.9-4.25-7.69-5.78-.92-1.79-.69-3.54-.69-3.54Z"/>
        <path d="M10.74,235.49c0,1.19.75,5.7.82,5.87t0,0c.25,1.09.55,2.28.92,3.55.08.31.17.62.27.93,1.22,4.02,6.36,7.32,7.9,8.23.48.23.5.82.51,1.28.03.38-.29.7-.68.67-3.68-.25-7.21-2.18-10.63-5.29-.76-.68-1.33-1.55-1.7-2.5-1.18-2.96-2.97-5.75-5.25-8.4-.86-1.01-1.42-2.24-1.58-3.56-.63-5.18-1.03-10.8-1.23-16.82,3.14-2.52,6.85-3.8,11.13-3.84.32,2.61,1.16,4.57,3.26,7.22,3.07,3.88,4.02,7.67,4.02,12.13s3.46,10.21,3.46,11.31-.77,1.68-1.68,1.68-2.69-1.92-3.69-2.98c-1.01-1.05-1.82-6.32-2.73-8.62-.92-2.3-3.12-2.83-3.12-.87Z"/>
      </g>
      <g id="Arm_Lower" data-name="Arm Lower">
        <path d="M21.93,154.95c-.04,17.56-12.46,44.3-10.71,60.67-4.28.04-7.99,1.32-11.13,3.84-.04-1.23-.07-2.48-.09-3.74.13-9.18.7-16.08,1.3-22.86-.43-18.65.5-30.23,3.43-42.16,6.1-.13,11.78,1.06,17.22,3.06-.01.41-.02.81-.02,1.19Z"/>
      </g>
      <g id="Arm_Upper" data-name="Arm Upper">
        <path d="M29.07,120.77h0c-2.22,4.82-6.75,23.33-7.12,32.99-5.44-2-11.12-3.19-17.22-3.06.31-1.95.47-4.5.41-9.33-.09-7.24,1.45-24.19.89-37.55l8.14,4.41c3.25,1.82,7.45,2.65,11.31,2.11,1.47,3.47,2.47,6.66,3.59,10.43Z"/>
      </g>
      <g id="Shoulder">
        <path d="M25.48,110.34c-.43.06-.85.1-1.28.13-3.36.26-6.83-.42-10.03-2.24l-8.14-4.41c-.06-1.85-.23-3.55-.32-5.33-.41-10.52,5.23-19.94,11.22-22.38,2.95-1.3,10.67-3.9,14.76-5.22h.01c-5.52,11.89-8.26,24.79-6.22,39.45Z"/>
      </g>
    </g>
    <g id="Arm_R" data-name="Arm R">
      <g id="Hand-2" data-name="Hand">
        <path d="M108.98,244.92c.42-1.08.71-2.28.92-3.55-1.24,2.93-10.93,7.93-10.93,9.3,0,1.22.98,1.29.98,1.29,4.9-1.82,9.11-6.79,9.03-7.04Z"/>
        <path d="M108.98,244.92c-3.12,4.03-9.73,6.2-9.73,8.32,0,1.29,1.35,1,1.35,1,0,0,6.9-4.25,7.69-5.78.92-1.79.69-3.54.69-3.54Z"/>
        <path d="M110.72,235.49c0,1.19-.75,5.7-.82,5.87t0,0c-.25,1.09-.55,2.28-.92,3.55-.08.31-.17.62-.27.93-1.22,4.02-6.36,7.32-7.9,8.23-.48.23-.5.82-.51,1.28-.03.38.29.7.68.67,3.68-.25,7.21-2.18,10.63-5.29.76-.68,1.33-1.55,1.7-2.5,1.18-2.96,2.97-5.75,5.25-8.4.86-1.01,1.42-2.24,1.58-3.56.63-5.18,1.03-10.8,1.23-16.82-3.14-2.52-6.85-3.8-11.13-3.84-.32,2.61-1.16,4.57-3.26,7.22-3.07,3.88-4.02,7.67-4.02,12.13s-3.46,10.21-3.46,11.31.77,1.68,1.68,1.68,2.69-1.92,3.69-2.98c1.01-1.05,1.82-6.32,2.73-8.62.92-2.3,3.12-2.83,3.12-.87Z"/>
      </g>
      <g id="Arm_Lower-2" data-name="Arm Lower">
        <path d="M99.53,154.95c.04,17.56,12.46,44.3,10.71,60.67,4.28.04,7.99,1.32,11.13,3.84.04-1.23.07-2.48.09-3.74-.13-9.18-.7-16.08-1.3-22.86.43-18.65-.5-30.23-3.43-42.16-6.1-.13-11.78,1.06-17.22,3.06.01.41.02.81.02,1.19Z"/>
      </g>
      <g id="Arm_Upper-2" data-name="Arm Upper">
        <path d="M92.39,120.77h0c2.22,4.82,6.75,23.33,7.12,32.99,5.44-2,11.12-3.19,17.22-3.06-.31-1.95-.47-4.5-.41-9.33.09-7.24-1.45-24.19-.89-37.55l-8.14,4.41c-3.25,1.82-7.45,2.65-11.31,2.11-1.46,3.52-2.47,6.66-3.59,10.43Z"/>
      </g>
      <g id="Shoulder-2" data-name="Shoulder">
        <path d="M95.98,110.34c.43.06.85.1,1.28.13,3.36.26,6.83-.42,10.03-2.24l8.14-4.41c.06-1.85.23-3.55.32-5.33.41-10.52-5.23-19.94-11.22-22.38-2.95-1.3-10.67-3.9-14.76-5.22h-.01c5.52,11.89,8.26,24.79,6.22,39.45Z"/>
      </g>
    </g>
    <g id="Neck">
      <path d="M79.12,65.21c-3.54-1.42-6.92-2.53-6.95-3.8,0,0-.02-10.58-.02-13.61-3.8-2.86-7.61-4.28-11.42-4.28s-7.62,1.42-11.42,4.28c0,3.03-.02,13.61-.02,13.61-.03,1.27-3.41,2.38-6.95,3.8-3.15,1.26-6.25,3.99-10.65,5.68h.01c4.74,1.72,9.61,3.06,14.56,3.97.03,0,.06,0,.08.01,4.77.86,9.56,1.34,14.39,1.33,4.83,0,9.62-.47,14.39-1.33.02-.01.05-.01.08-.01,4.95-.91,9.82-2.25,14.56-3.96h.01c-4.4-1.7-7.5-4.43-10.65-5.69Z"/>
    </g>
    <g id="Head">
      <g id="Ear">
        <path d="M39.59,27.39c0,1.48,1.19,3,1.6,4.18.53,1.48.41,3.09,2.46,3.09-.62-2.97-1.04-6.28-1.04-9.71-2.78,0-3.02,1.37-3.02,2.44Z"/>
      </g>
      <g id="Ear-2" data-name="Ear">
        <path d="M78.85,24.95c0,3.43-.42,6.74-1.04,9.71,2.05,0,1.93-1.61,2.46-3.09.41-1.18,1.6-2.7,1.6-4.18,0-1.07-.24-2.44-3.02-2.44Z"/>
      </g>
      <g id="Head-2" data-name="Head">
        <path d="M60.73,0C54.46,0,42.61-.76,42.61,24.95c0,3.43.42,6.74,1.04,9.71,1.32,6.32,3.57,11.13,4.74,12.44.26.23.57.47.92.7,3.8-2.86,7.61-4.28,11.42-4.28s7.62,1.42,11.42,4.28c.35-.23.66-.47.92-.7,1.17-1.31,3.42-6.12,4.74-12.44.62-2.97,1.04-6.28,1.04-9.71C78.85-.76,67,0,60.73,0Z"/>
      </g>
    </g>
  </g>
</svg>