<?xml version="1.0" encoding="UTF-8"?>
<svg id="Female_Front" data-name="Female Front" xmlns="http://www.w3.org/2000/svg" viewBox="0 0 102.05 442.42">
  <g id="Bodymap_Female_Back" data-name="Bodymap Female Back" fill="rgba(51, 42, 41, 1)">
    <g id="Leg_L" data-name="Leg L">
      <g id="Foot">
        <path d="M44.31,434.3c0,6.83-1.65,8.12-7.86,8.12s-13.47.44-13.47-8.03c0-8.01,5.4-19.92,5.98-24.63,3.93,1.34,8.26,1.57,12.69.96-.36,6.81,2.65,16.09,2.66,23.58Z"/>
      </g>
      <g id="Ankle">
        <path d="M42.91,403.43c0,3.74-1.08,2.83-1.26,7.29-4.43.61-8.76.38-12.69-.96.61-3.84-1.92-4.29-1.9-6.62,0-2.58,1.1-4.06,1.1-6.18,0-5.67,13.31-4.66,13.31,0-.03,4.57,1.44,2.42,1.44,6.47Z"/>
      </g>
      <g id="Calf">
        <path d="M44.5,336.18c-.03,8.51-1.9,41.59-3.03,60.78,0-4.66-13.31-5.67-13.31,0v.05c-2.43-19.69-6.53-54.1-6.53-61.91,0-11.11,2.63-14.4,2.63-25.32,6.34,3.14,12.68,3.14,19.01,0,0,14.35,1.27,14.21,1.23,26.4Z"/>
      </g>
      <g id="Popliteal">
        <path d="M43.27,309.78c-6.33,3.14-12.67,3.14-19.01,0,0-3.81-.04-8.12-.05-11.79,6.34-2.88,12.73-1.96,19.06.91.44,3.4.39,7.05,0,10.88Z"/>
      </g>
      <g id="Hamstring">
        <path d="M43.27,298.9c-6.33-2.87-12.72-3.79-19.06-.91-1.68-27.85-12-77.6-7.98-105.39v.13c.03,9.73,3.27,23.03,19.6,23.03,7.03,0,10.88-3.61,12.95-8.45.47,25.66-4.43,55.84-5.51,91.59Z"/>
      </g>
    </g>
    <g id="Leg_R" data-name="Leg R">
      <g id="Foot-2" data-name="Foot">
        <path d="M57.73,434.3c0,6.83,1.65,8.12,7.86,8.12s13.47.44,13.47-8.03c0-8.01-5.4-19.92-5.98-24.63-3.93,1.34-8.26,1.57-12.69.96.36,6.81-2.65,16.09-2.66,23.58Z"/>
      </g>
      <g id="Ankle-2" data-name="Ankle">
        <path d="M59.13,403.43c0,3.74,1.08,2.83,1.26,7.29,4.43.61,8.76.38,12.69-.96-.61-3.84,1.92-4.29,1.9-6.62,0-2.58-1.1-4.06-1.1-6.18,0-5.67-13.31-4.66-13.31,0,.03,4.57-1.44,2.42-1.44,6.47Z"/>
      </g>
      <g id="Shin">
        <path d="M57.54,336.18c.03,8.51,1.9,41.59,3.03,60.78,0-4.66,13.31-5.67,13.31,0v.05c2.43-19.69,6.53-54.1,6.53-61.91,0-11.11-2.63-14.4-2.63-25.32-6.34,3.14-12.68,3.14-19.01,0,0,14.35-1.27,14.21-1.23,26.4Z"/>
      </g>
      <g id="Popliteal-2" data-name="Popliteal">
        <path d="M58.77,309.78c6.33,3.14,12.67,3.14,19.01,0,0-3.81.04-8.12.05-11.79-6.34-2.88-12.73-1.96-19.06.91-.44,3.4-.39,7.05,0,10.88Z"/>
      </g>
      <g id="Hamstring-2" data-name="Hamstring">
        <path d="M58.77,298.9c6.33-2.87,12.72-3.79,19.06-.91,1.68-27.85,12-77.6,7.98-105.39v.13c-.03,9.73-3.27,23.03-19.6,23.03-7.03,0-10.88-3.61-12.95-8.45-.47,25.66,4.43,55.84,5.51,91.59Z"/>
      </g>
    </g>
    <g id="Butt">
      <path d="M85.55,189.78s0-.04-.01-.06c-.52-4.65-1.37-7.43-2.75-11.98-9.09,4.41-19.67,6.57-31.77,6.49-12.1.08-22.68-2.08-31.77-6.49-1.38,4.55-2.23,7.33-2.75,11.98-.01.02-.01.04-.01.06-.1.87-.19,1.8-.26,2.82v.13c.03,9.73,3.27,23.03,19.6,23.03,7.03,0,10.88-3.61,12.95-8.45.75.32,1.51.54,2.24.55.73,0,1.49-.23,2.24-.55,2.07,4.84,5.92,8.45,12.95,8.45,16.33,0,19.57-13.3,19.6-23.03v-.13c-.07-1.02-.16-1.95-.26-2.82Z"/>
    </g>
    <g id="Back_Lower" data-name="Back Lower">
      <path d="M71.14,149.55c-6.72,2.17-13.37,3.25-20.12,3.24-6.75.01-13.4-1.07-20.12-3.24-1.7,5.56-7.73,15.15-11.65,28.18h0c9.09,4.42,19.67,6.58,31.77,6.5,12.1.08,22.68-2.08,31.77-6.49h0c-3.92-13.04-9.95-22.63-11.65-28.19Z"/>
    </g>
    <g id="Back_Upper" data-name="Back Upper">
      <path d="M77.6,103.41c-13.71-3.26-20.03-22.58-3.1-33.6-6.62,2.64-14.62,3.63-23.48,3.6-8.86.03-16.86-.96-23.48-3.6,16.93,11.02,10.61,30.34-3.1,33.6.55,2.83.3,6.66-1.2,11.72l7.66,34.42c6.72,2.17,13.37,3.25,20.12,3.24,6.75.01,13.4-1.07,20.12-3.24l7.66-34.42c-1.5-5.06-1.75-8.89-1.2-11.72Z"/>
    </g>
    <g id="Arm_L" data-name="Arm L">
      <g id="Arm_Lower" data-name="Arm Lower">
        <path d="M99.86,219.48c-2.38-1.82-4.61-1.7-7.02-.47-2.05-21.46-9.96-43.9-7.85-64.52,3.48-2.72,8.38-2.91,12.14-.94,5.52,10.69,6.33,29.7,2.73,65.93Z"/>
      </g>
      <g id="Hand">
        <path d="M95.13,245.01c-.07.4-.15.82-.23,1.24-.06.33-.14.66-.21.98-.04.16-.08.32-.12.48-.07.31-.16.62-.25.91-.04.15-.09.29-.14.43-.09.27-.19.52-.29.75-.67.37-1.52.72-2.39.72-1.84,0-5.19-1.08-5.19-2.68s3.26.33,4.95.33c.65-.03,1.37-.52,2.02-1.14.17-.15.34-.31.5-.48.12-.13.24-.25.35-.38.08-.09.16-.17.23-.26.29-.32.54-.63.77-.9Z"/>
        <path d="M95.42,243.21c-.06.36-.12.76-.19,1.17-.02.14-.04.28-.07.43-.01.07-.02.13-.03.2-.23.27-.48.58-.77.9-.07.09-.15.17-.23.26-.11.13-.23.25-.35.38-.17.16-.33.33-.5.48-1.9.92-5.45-.53-5.4-1.78,0-.85,3.33,0,4.04,0,.49,0,2.36-1.04,3.5-2.04Z"/>
        <g id="Thumb">
          <path d="M94.11,230.71c-.91,0-2.14,6.19-3.53,9.24-.5,1.1-2.63,1.33-2.42.14,1.29-7.34.46-12.87,1.01-14.75,0,5.03,4.94,5.37,4.94,5.37Z"/>
        </g>
        <g id="Hand-2" data-name="Hand">
          <path d="M101.31,240.75c0,2.28-2.97,9.37-5.3,11.7s-6.98,4.3-6.98,2.54c.1-2.87,4.07-3.09,4.86-5.19.1-.23.2-.48.29-.75.05-.14.1-.28.14-.43.09-.29.18-.6.25-.91.04-.16.08-.32.12-.48.07-.32.15-.65.21-.98.08-.42.16-.84.23-1.24.01-.07.02-.13.03-.2.03-.15.05-.29.07-.43.07-.41.13-.81.19-1.17h0c0-.07.01-.13.02-.18.25-1.62.56-12.32-1.34-12.32,0,0-4.94-.34-4.94-5.37.63-2.19,3.67-6.33,3.67-6.33,2.41-1.23,4.64-1.35,7.02.47.8,5.85,1.45,15.89,1.45,21.27Z"/>
        </g>
      </g>
      <g id="Arm_Upper" data-name="Arm Upper">
        <path d="M78.8,115.13c.8,4.76,1.2,9.58,1.96,15.84.91,7.58,3.02,15.14,4.23,23.52,3.48-2.72,8.38-2.91,12.14-.94-2.81-21.5.47-34.26-3.06-53.69-5.03,3.28-9.9,4.38-14.19,3.94-.78-.08-1.54-.21-2.28-.39-.55,2.83-.3,6.66,1.2,11.72Z"/>
      </g>
      <g id="Shoulder">
        <path d="M77.6,103.41c.74.18,1.5.31,2.28.39,4.29.44,9.16-.66,14.19-3.94-.05-.58-1.11-14.88-1.19-15.98-.39-5.24-3.97-9.7-9-11.23l-9.38-2.84c-16.93,11.02-10.61,30.34,3.1,33.6Z"/>
      </g>
    </g>
    <g id="Arm_R" data-name="Arm R">
      <g id="Hand-3" data-name="Hand">
        <path d="M6.91,245.01c.07.4.15.82.23,1.24.06.33.14.66.21.98.04.16.08.32.12.48.07.31.16.62.25.91.04.15.09.29.14.43.09.27.19.52.29.75.67.37,1.52.72,2.39.72,1.84,0,5.19-1.08,5.19-2.68s-3.26.33-4.95.33c-.65-.03-1.37-.52-2.02-1.14-.17-.15-.34-.31-.5-.48-.12-.13-.24-.25-.35-.38-.08-.09-.16-.17-.23-.26-.29-.32-.54-.63-.77-.9Z"/>
        <path d="M6.62,243.21c.06.36.12.76.19,1.17.02.14.04.28.07.43.01.07.02.13.03.2.23.27.48.58.77.9.07.09.15.17.23.26.11.13.23.25.35.38.17.16.33.33.5.48,1.9.92,5.45-.53,5.4-1.78,0-.85-3.33,0-4.04,0-.49,0-2.36-1.04-3.5-2.04Z"/>
        <g id="Thumb-2" data-name="Thumb">
          <path d="M7.93,230.71c.91,0,2.14,6.19,3.53,9.24.5,1.1,2.63,1.33,2.42.14-1.29-7.34-.46-12.87-1.01-14.75,0,5.03-4.94,5.37-4.94,5.37Z"/>
        </g>
        <g id="Hand-4" data-name="Hand">
          <path d="M.73,240.75c0,2.28,2.97,9.37,5.3,11.7s6.98,4.3,6.98,2.54c-.1-2.87-4.07-3.09-4.86-5.19-.1-.23-.2-.48-.29-.75-.05-.14-.1-.28-.14-.43-.09-.29-.18-.6-.25-.91-.04-.16-.08-.32-.12-.48-.07-.32-.15-.65-.21-.98-.08-.42-.16-.84-.23-1.24-.01-.07-.02-.13-.03-.2-.03-.15-.05-.29-.07-.43-.07-.41-.13-.81-.19-1.17h0c0-.07-.01-.13-.02-.18-.25-1.62-.56-12.32,1.34-12.32,0,0,4.94-.34,4.94-5.37-.63-2.19-3.67-6.33-3.67-6.33-2.41-1.23-4.64-1.35-7.02.47-.8,5.85-1.45,15.89-1.45,21.27Z"/>
        </g>
      </g>
      <g id="Arm_Lower-2" data-name="Arm Lower">
        <path d="M9.2,219.01c-2.41-1.23-4.64-1.35-7.02.47-3.6-36.23-2.79-55.24,2.73-65.93,3.76-1.97,8.66-1.78,12.14.94,2.11,20.62-5.8,43.06-7.85,64.52Z"/>
      </g>
      <g id="Arm_Upper-2" data-name="Arm Upper">
        <path d="M23.24,115.13c-.8,4.76-1.2,9.58-1.96,15.84-.91,7.58-3.02,15.14-4.23,23.52-3.48-2.72-8.38-2.91-12.14-.94,2.81-21.5-.47-34.26,3.06-53.69,5.03,3.28,9.9,4.38,14.19,3.94.78-.08,1.54-.21,2.28-.39.55,2.83.3,6.66-1.2,11.72Z"/>
      </g>
      <g id="Shoulder-2" data-name="Shoulder">
        <path d="M24.44,103.41c-.74.18-1.5.31-2.28.39-4.29.44-9.16-.66-14.19-3.94.05-.58,1.11-14.88,1.19-15.98.39-5.24,3.97-9.7,9-11.23l9.38-2.84c16.93,11.02,10.61,30.34-3.1,33.6Z"/>
      </g>
    </g>
    <g id="Neck">
      <path d="M74.5,69.81c-6.62,2.64-14.62,3.63-23.48,3.6-8.86.03-16.86-.96-23.48-3.6l9.33-2.25c2.87-.69,4.89-3.26,4.89-6.21v-12.15c6-7.32,12.24-7.55,18.52,0v12.15c0,2.95,2.02,5.52,4.89,6.21l9.33,2.25Z"/>
    </g>
    <g id="Head">
      <g id="Ear">
        <path d="M35.54,34.66c-.33.13-.69.14-1.02-.19-.88-.89-.48-2.82-1.19-3.53s-1.5-2.45-1.5-3.67.42-1.63,1.7-1.63c.33,0,.57.04.76.09.24,3.08.65,6.09,1.25,8.93Z"/>
      </g>
      <g id="Ear-2" data-name="Ear">
        <path d="M70.21,27.27c0,1.22-.8,2.97-1.5,3.67s-.31,2.64-1.19,3.53c-.33.33-.69.32-1.02.19.6-2.84,1.01-5.85,1.25-8.93.19-.05.43-.09.76-.09,1.28,0,1.7.41,1.7,1.63Z"/>
      </g>
      <g id="Head-2" data-name="Head">
        <path d="M68.02,18.78c0,2.33-.09,4.66-.27,6.95-.24,3.08-.65,6.09-1.25,8.93-1.23,5.93-3.26,11.09-6.22,14.54-6.28-7.55-12.52-7.32-18.52,0-2.96-3.45-4.99-8.61-6.22-14.54-.6-2.84-1.01-5.85-1.25-8.93-.18-2.29-.27-4.62-.27-6.95C34.02,2.21,45.53,0,51.02,0s17,2.21,17,18.78Z"/>
      </g>
    </g>
  </g>
</svg>