<?xml version="1.0" encoding="UTF-8"?>
<svg id="Male" xmlns="http://www.w3.org/2000/svg" viewBox="0 0 121.46 459.06">
  <defs>
    <style>
      .cls-1 {
        fill: #fff;
      }
    </style>
  </defs>
  <g id="Male_Front" data-name="Male Front">
    <g id="Leg_L" data-name="Leg L">
      <g id="Thigh">
        <path d="M64.97,306.2c-.34-6.34.14-13.91.65-21.92.44-6.97.89-14.17.86-21.18-.08-7.85-.96-15.57-1.82-23.03-1.08-9.43-2.1-18.35-1.04-25.12,10.37-5.37,21.56-10.09,33.25-14.05.23,4.23.34,8.83.34,13.67,0,40.41-3.44,56.89-5.95,68.92-1.51,7.21-2.7,12.93-2.77,21.32-3.97-1.63-7.6-2.43-11.1-2.43-4.39,0-8.45,1.25-12.42,3.81Z"/>
        <path class="cls-1" d="M96.75,201.07c.22,4.17.33,8.71.33,13.5,0,40.39-3.44,56.87-5.95,68.9-1.5,7.17-2.68,12.86-2.77,21.16-3.92-1.59-7.51-2.37-10.97-2.37-4.34,0-8.37,1.22-12.3,3.72-.31-6.29.16-13.78.66-21.69.44-6.97.89-14.17.86-21.18-.08-7.86-.97-15.58-1.82-23.04-1.08-9.4-2.1-18.27-1.05-25.02,10.3-5.33,21.41-10.02,33.02-13.96M96.98,200.73c-11.87,4.01-23.03,8.73-33.48,14.14-1.91,11.97,2.67,30.07,2.85,48.23.08,15.17-2.16,31.44-1.49,43.32,4.14-2.72,8.31-3.91,12.53-3.91,3.69,0,7.43.91,11.22,2.49.14-22.9,8.72-26.23,8.72-90.43,0-5.22-.13-9.8-.35-13.84h0Z"/>
      </g>
      <g id="Knee">
        <path d="M79.81,326.83c-3.69,0-7.55-.9-11.79-2.74-.23-2.78-.81-5.42-1.42-8.22-.64-2.93-1.31-5.96-1.61-9.38,3.96-2.59,8.02-3.85,12.4-3.85,3.49,0,7.12.8,11.09,2.45-.05,6.27,1.04,12.3,2.2,18.69l.02.12c-3.5,1.97-7.06,2.93-10.89,2.93h0Z"/>
        <path class="cls-1" d="M77.39,302.76c3.45,0,7.04.79,10.97,2.41-.04,6.25,1.05,12.27,2.2,18.63v.03c-3.45,1.93-6.96,2.87-10.75,2.87s-7.48-.88-11.67-2.7c-.23-2.76-.81-5.39-1.42-8.16-.64-2.91-1.3-5.91-1.6-9.29,3.92-2.55,7.93-3.79,12.27-3.79M77.39,302.51c-4.22,0-8.39,1.19-12.53,3.91.58,6.73,2.58,11.99,3.04,17.75,4.03,1.76,7.99,2.78,11.91,2.78,3.71,0,7.39-.92,11.03-2.99-1.18-6.52-2.29-12.61-2.23-18.96-3.79-1.58-7.53-2.49-11.22-2.49h0Z"/>
      </g>
      <g id="Shin">
        <path d="M83.91,409.97c-1.09-1.37-3.49-2.23-6.31-2.23-2.36,0-4.48.61-5.75,1.63.55-5.57.54-12.24.54-15.86v-.83c-.03-1.71-.42-6.03-.96-12.02-1.27-14.06-3.39-37.55-3.4-56.3,4.23,1.83,8.09,2.71,11.78,2.71s7.43-.96,10.94-2.92c1.19,6.71,2.53,14.3,2.53,23,0,9.49-3.24,26.38-5.85,39.95-2,10.4-3.72,19.39-3.54,22.56,0,0,.02.29.02.31Z"/>
        <path class="cls-1" d="M90.66,324.35c1.18,6.66,2.49,14.19,2.49,22.8,0,9.48-3.24,26.36-5.84,39.93-1.99,10.35-3.7,19.3-3.55,22.54-1.2-1.24-3.5-2-6.16-2-2.25,0-4.29.55-5.6,1.49.52-5.51.52-12.03.51-15.58v-.84c-.03-1.71-.42-6.04-.96-12.03-1.27-14.01-3.38-37.38-3.4-56.1,4.18,1.78,7.99,2.65,11.66,2.65s7.37-.93,10.85-2.85M90.84,323.96c-3.65,2.07-7.32,2.99-11.03,2.99-3.92,0-7.88-1.02-11.91-2.78-.01,26.66,4.26,62.75,4.36,68.51,0,3.45.06,10.92-.57,16.99,1.29-1.21,3.6-1.81,5.91-1.81,2.75,0,5.49.86,6.47,2.57-.03-.25-.04-.51-.06-.78-.41-7.34,9.39-45.83,9.39-62.5,0-8.75-1.32-16.21-2.56-23.19h0Z"/>
      </g>
      <g id="Ankle">
        <path d="M75.09,426.34c-1.45,0-2.98-.1-4.56-.3-.11-2.05-.44-3.02-.73-3.87-.3-.88-.58-1.72-.58-3.61,0-.81.35-1.41.8-2.17.47-.8,1.07-1.81,1.34-3.38.17-.99.33-2.1.45-3.32,1.15-1.04,3.33-1.71,5.78-1.71,2.99,0,5.49.98,6.36,2.51.17,1.98.58,3.66.91,5.01.29,1.18.54,2.2.54,3.06,0,1-.52,2.01-1.03,2.99-.51.98-.98,1.9-.98,2.81,0,.16.04.39.11.68-2.62.88-5.38,1.3-8.42,1.3h0Z"/>
        <path class="cls-1" d="M77.6,408.11c2.92,0,5.35.94,6.23,2.4.19,2.02.6,3.68.93,5.02.29,1.17.54,2.18.54,3.03,0,.97-.52,1.97-1.01,2.93-.51.99-1,1.92-1,2.87,0,.14.03.35.08.6-2.58.85-5.28,1.26-8.27,1.26-1.41,0-2.9-.1-4.44-.29-.12-1.99-.44-2.95-.73-3.8-.31-.91-.57-1.7-.57-3.57,0-.78.34-1.36.78-2.1.48-.81,1.08-1.83,1.36-3.42.17-.96.32-2.04.44-3.24,1.18-1.05,3.29-1.68,5.67-1.68M77.6,407.86c-2.3,0-4.61.6-5.91,1.81h0c-.12,1.18-.27,2.3-.45,3.32-.52,2.98-2.14,3.8-2.14,5.57,0,3.78,1.1,3.34,1.31,7.59,1.58.2,3.14.31,4.68.31,2.94,0,5.8-.4,8.57-1.34-.09-.35-.13-.61-.13-.76,0-1.82,2.01-3.79,2.01-5.8,0-1.88-1.13-4.32-1.47-8.13-.98-1.71-3.72-2.57-6.47-2.57h0Z"/>
      </g>
      <g id="Foot">
        <path d="M75.81,458.94c-7.54,0-8.04-1.04-8.04-8.3,0-3.98.75-8.3,1.47-12.48.75-4.34,1.46-8.45,1.3-11.86,1.58.2,3.11.3,4.55.3,3.06,0,5.84-.43,8.48-1.31.25,1.01.76,2.67,1.39,4.74,1.88,6.11,4.72,15.34,4.72,20.69,0,7.63-5.75,8.21-13.88,8.21Z"/>
        <path class="cls-1" d="M83.48,425.45c.26,1.02.75,2.63,1.36,4.62,1.88,6.1,4.72,15.32,4.72,20.66,0,7.51-5.7,8.09-13.75,8.09-7.42,0-7.91-1.03-7.91-8.18,0-3.97.75-8.28,1.47-12.46.74-4.29,1.44-8.34,1.3-11.74,1.53.18,3.02.28,4.42.28,3.03,0,5.77-.42,8.39-1.27M83.66,425.12c-2.77.94-5.63,1.34-8.57,1.34-1.54,0-3.1-.11-4.68-.31.37,6.71-2.75,16.33-2.76,24.48,0,7.38.64,8.43,8.16,8.43s14-.38,14-8.34c0-7.28-5.27-21.82-6.15-25.6h0Z"/>
      </g>
    </g>
    <g id="Leg_R" data-name="Leg R">
      <g id="Thigh-2" data-name="Thigh">
        <path d="M56.49,306.2c-3.96-2.57-8.03-3.81-12.42-3.81-3.5,0-7.13.79-11.1,2.43-.07-8.39-1.26-14.1-2.77-21.32-2.51-12.04-5.95-28.52-5.95-68.92,0-4.85.11-9.45.34-13.67,11.69,3.96,22.88,8.68,33.25,14.05,1.06,6.77.04,15.68-1.04,25.12-.86,7.46-1.74,15.18-1.82,23.03-.04,7,.42,14.21.86,21.17.5,8.01.98,15.58.65,21.93Z"/>
        <path class="cls-1" d="M24.71,201.07c11.61,3.94,22.72,8.64,33.02,13.96,1.05,6.75.03,15.63-1.05,25.02-.86,7.46-1.74,15.18-1.82,23.04-.04,7.01.42,14.21.86,21.18.5,7.91.97,15.4.66,21.69-3.93-2.5-7.96-3.72-12.3-3.72-3.46,0-7.06.78-10.97,2.37-.08-8.31-1.27-13.99-2.77-21.16-2.51-12.03-5.95-28.51-5.95-68.9,0-4.79.11-9.33.33-13.5M24.48,200.73c-.22,4.04-.35,8.62-.35,13.84,0,64.2,8.58,67.53,8.72,90.43,3.8-1.58,7.53-2.49,11.22-2.49,4.22,0,8.39,1.19,12.53,3.91.67-11.88-1.57-28.15-1.49-43.32.18-18.16,4.76-36.26,2.85-48.23-10.45-5.41-21.61-10.13-33.48-14.14h0Z"/>
      </g>
      <g id="Knee-2" data-name="Knee">
        <path d="M41.65,326.83c-3.83,0-7.4-.96-10.89-2.93l.02-.11c1.15-6.39,2.24-12.43,2.2-18.71,3.97-1.65,7.6-2.45,11.09-2.45,4.38,0,8.44,1.26,12.4,3.85-.3,3.42-.96,6.45-1.61,9.38-.61,2.8-1.19,5.44-1.42,8.22-4.24,1.84-8.1,2.74-11.79,2.74Z"/>
        <path class="cls-1" d="M44.07,302.76h0c4.33,0,8.35,1.24,12.27,3.79-.3,3.38-.96,6.39-1.6,9.29-.61,2.77-1.18,5.4-1.42,8.16-4.2,1.82-8.02,2.7-11.67,2.7s-7.3-.94-10.75-2.87v-.03c1.15-6.37,2.24-12.39,2.2-18.64,3.93-1.62,7.52-2.41,10.97-2.41M44.07,302.51c-3.69,0-7.43.91-11.22,2.49.06,6.35-1.05,12.44-2.23,18.96,3.65,2.07,7.32,2.99,11.03,2.99,3.92,0,7.88-1.02,11.91-2.78.46-5.76,2.46-11.02,3.04-17.75-4.14-2.73-8.31-3.91-12.53-3.91h0Z"/>
      </g>
      <g id="Shin-2" data-name="Shin">
        <path d="M37.58,409.66c.18-3.17-1.55-12.16-3.54-22.55-2.6-13.57-5.85-30.46-5.85-39.96,0-8.69,1.34-16.29,2.53-23,3.51,1.97,7.09,2.92,10.94,2.92s7.55-.89,11.78-2.71c0,18.75-2.13,42.23-3.4,56.29-.54,5.99-.93,10.32-.96,12.03v.84c0,3.62-.01,10.29.54,15.85-1.27-1.03-3.39-1.63-5.75-1.63-2.82,0-5.22.86-6.31,2.23,0-.02.02-.31.02-.31Z"/>
        <path class="cls-1" d="M30.8,324.35c3.48,1.92,7.03,2.85,10.85,2.85s7.48-.87,11.66-2.65c-.02,18.71-2.13,42.09-3.4,56.09-.54,5.99-.93,10.32-.96,12.04v.83c0,3.56-.01,10.07.51,15.58-1.31-.94-3.35-1.49-5.6-1.49-2.66,0-4.96.77-6.16,2,.16-3.23-1.56-12.18-3.55-22.54-2.6-13.56-5.84-30.45-5.84-39.93,0-8.61,1.31-16.14,2.49-22.8M30.62,323.96c-1.24,6.98-2.56,14.44-2.56,23.19,0,16.67,9.8,55.16,9.39,62.5-.02.27-.03.53-.06.78.98-1.71,3.72-2.57,6.47-2.57,2.3,0,4.61.6,5.91,1.81-.63-6.07-.57-13.54-.57-16.99.1-5.76,4.37-41.85,4.36-68.51-4.03,1.76-7.99,2.78-11.91,2.78-3.71,0-7.39-.92-11.03-2.99h0Z"/>
      </g>
      <g id="Ankle-2" data-name="Ankle">
        <path d="M46.37,426.34c-3.04,0-5.8-.43-8.42-1.3.07-.29.11-.52.11-.68,0-.92-.48-1.84-.98-2.81-.51-.98-1.03-1.99-1.03-2.99,0-.86.25-1.88.54-3.06.33-1.35.75-3.02.93-5.06.86-1.47,3.35-2.45,6.35-2.45,2.45,0,4.63.66,5.82,1.78.08,1.13.24,2.25.41,3.25.27,1.58.87,2.58,1.34,3.38.45.76.8,1.35.8,2.17,0,1.89-.28,2.72-.58,3.61-.29.86-.61,1.82-.72,3.87-1.58.2-3.12.3-4.56.3Z"/>
        <path class="cls-1" d="M43.86,408.11h0c2.38,0,4.48.63,5.67,1.68.12,1.18.27,2.27.44,3.24.28,1.6.88,2.61,1.36,3.42.44.74.78,1.32.78,2.1,0,1.87-.27,2.66-.57,3.57-.29.85-.61,1.81-.73,3.8-1.54.19-3.03.29-4.44.29-2.99,0-5.7-.41-8.27-1.26.05-.25.08-.45.08-.6,0-.95-.48-1.88-1-2.87-.5-.96-1.01-1.96-1.01-2.93,0-.85.25-1.86.54-3.03.33-1.34.74-3,.93-5.02.87-1.46,3.31-2.4,6.23-2.4M43.86,407.86c-2.75,0-5.49.86-6.47,2.57-.34,3.81-1.47,6.25-1.47,8.13,0,2.01,2.01,3.98,2.01,5.8,0,.15-.04.41-.13.76,2.77.94,5.63,1.34,8.57,1.34,1.54,0,3.1-.11,4.68-.31.21-4.25,1.31-3.81,1.31-7.59,0-1.77-1.62-2.59-2.14-5.57-.18-1.02-.33-2.14-.45-3.31h0c-1.29-1.22-3.6-1.82-5.91-1.82h0Z"/>
      </g>
      <g id="Foot-2" data-name="Foot">
        <path d="M45.65,458.94c-8.12,0-13.88-.59-13.88-8.21,0-5.35,2.84-14.58,4.72-20.69.64-2.08,1.15-3.73,1.39-4.75,2.64.88,5.42,1.31,8.48,1.31,1.44,0,2.97-.1,4.55-.3-.16,3.41.55,7.52,1.3,11.86.72,4.18,1.46,8.5,1.47,12.48,0,7.26-.5,8.3-8.04,8.3Z"/>
        <path class="cls-1" d="M37.98,425.45c2.62.85,5.36,1.27,8.39,1.27,1.4,0,2.89-.09,4.42-.28-.13,3.4.57,7.45,1.3,11.74.72,4.17,1.46,8.49,1.47,12.46,0,7.15-.49,8.18-7.91,8.18-8.05,0-13.75-.58-13.75-8.09,0-5.33,2.84-14.56,4.72-20.66.61-1.99,1.11-3.6,1.36-4.62M37.8,425.12c-.88,3.78-6.15,18.32-6.15,25.6,0,7.96,6.47,8.34,14,8.34s8.16-1.05,8.16-8.43c-.01-8.15-3.13-17.77-2.76-24.48-1.58.2-3.14.31-4.68.31-2.94,0-5.8-.4-8.57-1.34h0Z"/>
      </g>
    </g>
    <g id="Pelvis">
      <path d="M60.74,215.31c-.07,0-.12,0-.18,0-.7,0-2.07-.34-2.55-.56-10.41-5.39-21.65-10.14-33.4-14.11.34-6.29.95-11.72,1.84-16.6,11.65,4.82,22.86,7.17,34.27,7.17h0c11.42,0,22.63-2.35,34.28-7.17.9,4.87,1.5,10.3,1.84,16.6-11.75,3.97-22.99,8.72-33.41,14.12-.48.21-1.85.55-2.55.55,0,0-.11,0-.15,0Z"/>
      <path class="cls-1" d="M26.55,184.22c11.61,4.79,22.79,7.12,34.18,7.12s22.57-2.33,34.18-7.12c.88,4.8,1.47,10.15,1.81,16.33-11.72,3.97-22.94,8.71-33.32,14.09-.48.21-1.82.55-2.5.55-.05,0-.1,0-.14,0h-.03s-.03,0-.03,0c-.04,0-.09,0-.14,0-.69,0-2.03-.34-2.49-.54-10.4-5.38-21.61-10.12-33.33-14.09.34-6.18.93-11.53,1.81-16.33M95.1,183.87c-11.57,4.81-22.97,7.22-34.37,7.22s-22.8-2.41-34.37-7.22c-.82,4.41-1.5,9.84-1.88,16.86,11.87,4.01,23.03,8.73,33.48,14.14.51.23,1.89.57,2.61.57.06,0,.12,0,.16,0,.05,0,.1,0,.16,0,.71,0,2.09-.34,2.61-.57,10.45-5.41,21.61-10.13,33.48-14.14-.38-7.02-1.06-12.45-1.88-16.86h0Z"/>
    </g>
    <g id="Abdomen_Upper" data-name="Abdomen Upper">
      <path d="M61.18,158.04c-8.95,0-18.17-1.57-27.42-4.65.39-7.93-.73-17.79-3.06-27.1,10.29-1.55,20.55-2.33,30.52-2.33s19.89.78,29.55,2.32c-2.08,8.41-3.14,16.44-3.14,23.88,0,1.09.03,2.18.08,3.25-8.67,3.07-17.59,4.63-26.53,4.63Z"/>
      <path class="cls-1" d="M61.22,124.08c9.89,0,19.78.77,29.39,2.3-2.06,8.37-3.11,16.37-3.11,23.78,0,1.06.02,2.1.07,3.17-8.63,3.05-17.51,4.59-26.4,4.59s-18.09-1.55-27.29-4.62c.38-7.89-.73-17.67-3.04-26.91,10.23-1.53,20.45-2.31,30.37-2.31h0M61.22,123.83c-10.21,0-20.44.81-30.68,2.36,1.98,7.83,3.56,18.03,3.09,27.29,9.2,3.08,18.38,4.69,27.54,4.69s17.79-1.52,26.66-4.67c-.05-1.05-.08-2.16-.08-3.34,0-8.6,1.42-16.95,3.17-23.98-9.88-1.58-19.78-2.35-29.7-2.35h0Z"/>
    </g>
    <g id="Abdomen_Lower" data-name="Abdomen Lower">
      <path d="M61.29,191.04c-11.37,0-23.08-2.44-34.79-7.24,1.13-6.05,2.54-10.24,3.79-13.94,1.66-4.92,3.1-9.17,3.45-16.21,9.24,3.08,18.47,4.65,27.43,4.65s17.86-1.55,26.54-4.62c.36,7.03,1.79,11.28,3.45,16.19,1.25,3.71,2.67,7.91,3.8,13.99-11.02,4.77-22.35,7.19-33.68,7.19Z"/>
      <path class="cls-1" d="M33.86,153.81c9.2,3.05,18.39,4.6,27.31,4.6s17.78-1.54,26.42-4.57c.37,6.94,1.8,11.17,3.45,16.06,1.24,3.69,2.65,7.86,3.78,13.87-10.97,4.74-22.26,7.14-33.54,7.14s-22.98-2.42-34.65-7.19c1.12-5.99,2.53-10.15,3.77-13.82,1.65-4.89,3.08-9.12,3.45-16.08M33.63,153.47c-.6,12.58-4.66,16.32-7.27,30.4,11.67,4.8,23.31,7.29,34.93,7.29s22.58-2.36,33.82-7.24c-2.61-14.11-6.67-17.85-7.28-30.43-8.86,3.15-17.75,4.67-26.66,4.67s-18.35-1.61-27.54-4.69h0Z"/>
    </g>
    <g id="Chest">
      <path d="M30.64,126.04c-1.16-4.86-3.52-12.03-4.98-15.6,9.18-1.27,16.09-9.2,16.09-18.5,0-3.72-1.11-7.33-3.19-10.44l-6.55-10.36c9.61,3.43,19.27,5.17,28.73,5.17s19.12-1.74,28.73-5.17l-6.56,10.36c-2.08,3.11-3.19,6.72-3.19,10.44,0,9.31,6.9,17.23,16.09,18.5-1.46,3.57-3.82,10.73-4.98,15.6-10.07-1.54-20.2-2.32-30.1-2.32s-20.02.78-30.09,2.32Z"/>
      <path class="cls-1" d="M32.3,71.38c9.51,3.35,19.07,5.05,28.43,5.05s18.92-1.7,28.43-5.05c-5.06,8-6.12,9.68-6.34,10.06h-.02c-2.1,3.12-3.21,6.75-3.21,10.5,0,9.31,6.87,17.25,16.04,18.6-1.45,3.59-3.74,10.56-4.9,15.35-10.18-1.55-19.99-2.3-30-2.3s-19.96.77-30,2.3c-1.17-4.87-3.42-11.7-4.9-15.35,9.16-1.35,16.04-9.29,16.04-18.6,0-3.74-1.11-7.38-3.21-10.5l-6.36-10.06M89.76,70.9c-9.75,3.52-19.39,5.28-29.03,5.28s-19.28-1.76-29.03-5.28l6.75,10.67c2.01,3,3.17,6.52,3.17,10.37,0,9.43-7.04,17.22-16.14,18.4,1.44,3.48,3.87,10.79,5.06,15.84,10.15-1.56,20.17-2.33,30.19-2.33s20.04.78,30.19,2.33c1.19-5.05,3.62-12.36,5.06-15.84-9.1-1.18-16.14-8.97-16.14-18.4,0-3.85,1.16-7.37,3.17-10.37,0,0,6.75-10.67,6.75-10.67h0Z"/>
    </g>
    <g id="Arm_L" data-name="Arm L">
      <g id="Shoulder">
        <path d="M98.29,110.38c-4.86,0-9.46-1.94-12.96-5.45-3.48-3.5-5.39-8.11-5.37-12.98,0-3.67,1.09-7.23,3.15-10.3l6.71-10.6c4.37,1.41,11.82,3.93,14.66,5.19,5.69,2.32,11.57,11.49,11.15,22.26-.04.75-.09,1.48-.14,2.22-.07.99-.14,1.99-.18,3.04l-8.08,4.38c-2.71,1.48-5.76,2.25-8.84,2.25h-.1Z"/>
        <path class="cls-1" d="M89.87,71.19c4.38,1.41,11.74,3.91,14.56,5.16,5.65,2.3,11.48,11.42,11.06,22.14-.04.75-.09,1.48-.14,2.21-.07.96-.14,1.95-.17,2.98l-8.01,4.34c-2.69,1.47-5.72,2.24-8.78,2.24h-.1c-4.83,0-9.4-1.92-12.87-5.41-3.46-3.48-5.35-8.06-5.33-12.9,0-3.65,1.08-7.18,3.13-10.24l6.65-10.52M89.77,70.89h-.01s-6.75,10.68-6.75,10.68c-2.01,3-3.17,6.52-3.17,10.37-.05,10.25,8.45,18.56,18.45,18.56.03,0,.07,0,.1,0,3.23,0,6.26-.83,8.9-2.27l8.14-4.41c.06-1.86.23-3.55.32-5.33.41-10.52-5.23-19.94-11.22-22.38-2.95-1.3-10.67-3.9-14.76-5.22h0Z"/>
      </g>
      <g id="Arm_Upper" data-name="Arm Upper">
        <path d="M99.63,153.59c-.41-9.56-4.84-27.92-7.12-32.87,1.32-4.36,2.66-7.97,3.56-10.24.75.1,1.52.15,2.3.15,3.14,0,6.33-.81,8.99-2.29l7.95-4.3c-.33,8.29.13,17.96.51,25.74.23,4.76.43,8.87.39,11.6-.05,4.3.06,7.06.39,9.2-.25,0-.51,0-.76,0-5.32,0-10.62.99-16.2,3.02Z"/>
        <path class="cls-1" d="M115.16,104.25c-.32,8.24.14,17.82.52,25.54.23,4.75.43,8.86.39,11.58-.05,4.21.06,6.95.37,9.08-.21,0-.41,0-.62,0-5.29,0-10.55.97-16.08,2.97-.45-9.56-4.81-27.61-7.09-32.66,1.29-4.34,2.59-7.88,3.48-10.14.72.09,1.47.14,2.22.14,3.16,0,6.37-.82,9.05-2.3l7.75-4.2M115.43,103.82l-8.14,4.41c-2.6,1.45-5.78,2.27-8.93,2.27-.8,0-1.6-.05-2.38-.16-.95,2.39-2.28,6-3.59,10.43,2.21,4.79,6.75,23.32,7.12,32.99,5.17-1.9,10.56-3.07,16.31-3.07.3,0,.6,0,.91,0-.31-1.95-.47-4.5-.41-9.33.09-7.24-1.45-24.19-.89-37.55h0Z"/>
      </g>
      <g id="Arm_Lower" data-name="Arm Lower">
        <path d="M121.25,219.21c-3.07-2.4-6.73-3.65-10.88-3.71.89-8.76-2.26-20.6-5.3-32.06-2.66-10-5.41-20.33-5.42-28.49,0-.35,0-.72-.02-1.1,5.57-2.04,10.87-3.03,16.19-3.03.27,0,.54,0,.81,0,2.92,11.91,3.84,23.32,3.4,42.03.64,7.2,1.17,13.88,1.3,22.86-.02,1.17-.05,2.34-.08,3.49Z"/>
        <path class="cls-1" d="M115.82,150.94c.24,0,.47,0,.71,0,2.9,11.87,3.81,23.25,3.38,41.94.64,7.18,1.17,13.86,1.3,22.83-.02,1.09-.04,2.17-.07,3.24-3.02-2.29-6.59-3.5-10.62-3.59.85-8.77-2.29-20.56-5.32-31.97-2.66-9.99-5.4-20.32-5.42-28.46,0-.32,0-.65-.02-1.02,5.53-2.01,10.78-2.99,16.06-2.99M115.82,150.69c-5.76,0-11.14,1.17-16.31,3.07.01.41.02.81.02,1.19.04,17.56,12.46,44.3,10.71,60.67,4.28.04,7.99,1.32,11.13,3.84.04-1.23.07-2.48.09-3.74-.13-9.18-.7-16.08-1.3-22.86.43-18.65-.5-30.23-3.43-42.16-.3,0-.61,0-.91,0h0Z"/>
      </g>
      <g id="Hand">
        <g>
          <path d="M99.93,251.83c-.14-.02-.84-.17-.84-1.16,0-.55,2.11-2.01,4.15-3.42,2.5-1.72,5.28-3.65,6.4-5.21-.21,1.08-.47,2.01-.79,2.82-.1.39-4.08,5.14-8.93,6.96Z"/>
          <path class="cls-1" d="M109.42,242.54c-.19.86-.41,1.61-.67,2.29l-.03.08h0c-.39.73-4.4,5.13-8.8,6.79-.18-.03-.7-.2-.7-1.03,0-.48,2.27-2.05,4.1-3.31,2.29-1.58,4.81-3.32,6.1-4.82M109.9,241.37c-1.24,2.93-10.93,7.93-10.93,9.3,0,1.22.98,1.29.98,1.29,4.9-1.82,9.11-6.79,9.03-7.04.42-1.08.71-2.28.92-3.55h0Z"/>
        </g>
        <g>
          <path d="M100.29,254.14c-.6,0-.91-.3-.91-.9,0-1,1.72-2.11,3.71-3.38,1.99-1.28,4.24-2.72,5.79-4.61.02.58-.04,1.86-.7,3.15-.75,1.46-7.38,5.57-7.63,5.73,0,0,0,0,0,0-.02,0-.12.02-.25.02h0Z"/>
          <path class="cls-1" d="M108.75,245.59c-.02.65-.14,1.7-.68,2.76-.61,1.19-5.62,4.46-7.55,5.66-.04,0-.13.02-.22.02-.79,0-.79-.59-.79-.78,0-.94,1.69-2.02,3.65-3.28,1.91-1.22,4.05-2.6,5.6-4.37M108.98,244.92c-3.12,4.03-9.73,6.2-9.73,8.32,0,.89.64,1.03,1.04,1.03.18,0,.31-.03.31-.03,0,0,6.9-4.25,7.69-5.78.92-1.79.69-3.54.69-3.54h0Z"/>
        </g>
        <g>
          <path d="M100.93,255.91c-.14,0-.28-.06-.37-.16-.09-.1-.14-.24-.13-.37,0-.5.05-.99.44-1.18,1.56-.92,6.73-4.23,7.97-8.31.1-.31.19-.62.27-.94.33-1.14.63-2.31.92-3.55v-.07c.16-.63.82-4.71.82-5.84,0-.83-.38-1.33-1.03-1.33-.71,0-1.74.67-2.33,2.15-.37.93-.73,2.37-1.07,3.76-.52,2.07-1.05,4.22-1.63,4.82l-.1.1c-.94.99-2.68,2.84-3.5,2.84-.72,0-1.55-.41-1.55-1.56,0-.34.39-1.23.88-2.37,1.03-2.37,2.58-5.94,2.58-8.94,0-4.91,1.19-8.51,3.99-12.05,2.04-2.57,2.93-4.52,3.27-7.17,4.16.06,7.83,1.33,10.89,3.77-.2,6.09-.62,11.73-1.23,16.75-.16,1.28-.69,2.48-1.55,3.49-2.36,2.74-4.13,5.58-5.27,8.43-.38.97-.95,1.81-1.67,2.45-3.63,3.3-7.08,5.02-10.56,5.26h-.04Z"/>
          <path class="cls-1" d="M110.46,215.88c4.07.08,7.65,1.33,10.66,3.7-.2,6.07-.62,11.68-1.22,16.67-.15,1.25-.68,2.44-1.52,3.43-2.37,2.75-4.15,5.6-5.29,8.47-.37.95-.93,1.78-1.64,2.41-3.61,3.28-7.04,4.99-10.51,5.23-.11,0-.21-.04-.28-.12-.07-.08-.11-.18-.1-.3,0-.45.04-.9.39-1.07,1.56-.92,6.76-4.26,8.01-8.37.1-.31.19-.63.27-.94.34-1.15.64-2.32.92-3.56v-.05c.17-.66.83-4.83.83-5.89s-.6-1.46-1.15-1.46c-.92,0-1.92.92-2.45,2.23-.37.94-.71,2.32-1.08,3.77-.49,1.96-1.04,4.18-1.6,4.77l-.1.1c-.86.91-2.64,2.8-3.41,2.8-.66,0-1.43-.37-1.43-1.43,0-.31.4-1.24.87-2.32,1.03-2.38,2.59-5.97,2.59-8.99,0-4.88,1.19-8.46,3.97-11.97,2.02-2.55,2.93-4.51,3.28-7.12M110.24,215.62c-.32,2.61-1.16,4.57-3.26,7.22-3.07,3.88-4.02,7.67-4.02,12.13s-3.46,10.21-3.46,11.31.77,1.68,1.68,1.68,2.69-1.92,3.69-2.98c1.01-1.05,1.82-6.32,2.73-8.62.53-1.34,1.5-2.08,2.22-2.08.52,0,.9.38.9,1.21,0,1.19-.75,5.7-.82,5.87t0,0c-.25,1.09-.55,2.28-.92,3.55-.08.31-.17.62-.27.93-1.22,4.02-6.36,7.32-7.9,8.23-.48.23-.5.82-.51,1.28-.03.36.26.67.63.67.02,0,.03,0,.05,0,3.68-.25,7.21-2.18,10.63-5.29.76-.68,1.33-1.55,1.7-2.5,1.18-2.96,2.97-5.75,5.25-8.4.86-1.01,1.42-2.24,1.58-3.56.63-5.18,1.03-10.8,1.23-16.82-3.14-2.52-6.85-3.8-11.13-3.84h0Z"/>
        </g>
      </g>
    </g>
    <g id="Arm_R" data-name="Arm R">
      <g id="Shoulder-2" data-name="Shoulder">
        <path d="M22.85,110.4c-3.06,0-5.96-.77-8.62-2.28-.06-.03-7.33-3.97-8.08-4.38-.04-1.05-.11-2.06-.18-3.05-.05-.73-.1-1.46-.14-2.21-.42-10.77,5.46-19.94,11.14-22.26,2.84-1.26,10.29-3.78,14.66-5.19l6.71,10.6c2.06,3.07,3.15,6.63,3.15,10.3.06,4.78-1.78,9.31-5.18,12.76-3.57,3.62-8.48,5.7-13.46,5.7Z"/>
        <path class="cls-1" d="M31.59,71.19l6.66,10.52c2.04,3.05,3.13,6.59,3.13,10.23.06,4.75-1.77,9.25-5.15,12.67-3.55,3.6-8.42,5.66-13.37,5.66-3.04,0-5.92-.76-8.57-2.26-.07-.04-6.99-3.79-8.01-4.34-.04-1.03-.11-2.02-.17-2.98-.05-.74-.1-1.47-.14-2.21-.42-10.72,5.42-19.84,11.07-22.14,2.82-1.24,10.17-3.74,14.55-5.15M31.69,70.89c-4.09,1.32-11.81,3.92-14.76,5.22-5.99,2.44-11.63,11.86-11.22,22.38.09,1.78.26,3.47.32,5.33,0,0,8.14,4.41,8.14,4.41,2.77,1.58,5.75,2.29,8.68,2.29,9.69,0,18.91-7.84,18.77-18.58,0-3.85-1.16-7.37-3.17-10.37l-6.75-10.67h-.01Z"/>
      </g>
      <g id="Arm_Upper-2" data-name="Arm Upper">
        <path d="M21.83,153.59c-5.57-2.03-10.87-3.02-16.2-3.02-.25,0-.51,0-.76,0,.33-2.14.44-4.91.39-9.2-.03-2.72.16-6.83.39-11.58.38-7.79.84-17.46.51-25.75l7.95,4.31c2.66,1.48,5.85,2.29,8.99,2.29.78,0,1.55-.05,2.3-.15.9,2.27,2.24,5.88,3.55,10.33-2.27,4.85-6.71,23.22-7.12,32.78Z"/>
        <path class="cls-1" d="M6.3,104.25l7.75,4.2c2.68,1.49,5.89,2.31,9.05,2.31.75,0,1.5-.05,2.22-.14.89,2.26,2.2,5.79,3.48,10.14-2.28,5.04-6.64,23.1-7.09,32.66-5.53-2-10.79-2.97-16.08-2.97-.2,0-.41,0-.62,0,.31-2.13.42-4.87.37-9.08-.03-2.72.16-6.82.39-11.58.37-7.72.83-17.29.52-25.54M6.03,103.82c.56,13.36-.98,30.31-.89,37.55.06,4.83-.1,7.38-.41,9.33.3,0,.61,0,.91,0,5.76,0,11.14,1.17,16.31,3.07.37-9.67,4.91-28.2,7.12-32.99-1.31-4.43-2.64-8.04-3.59-10.43-.79.11-1.58.16-2.38.16-3.15,0-6.32-.83-8.93-2.27l-8.14-4.41h0Z"/>
      </g>
      <g id="Arm_Lower-2" data-name="Arm Lower">
        <path d="M.21,219.21c-.04-1.15-.06-2.32-.08-3.49.13-8.98.66-15.66,1.3-22.85-.44-18.73.49-30.14,3.4-42.05.27,0,.54,0,.81,0,5.32,0,10.61.99,16.19,3.03,0,.38-.02.75-.02,1.1-.02,8.16-2.76,18.5-5.42,28.49-3.05,11.46-6.2,23.3-5.3,32.06-4.14.06-7.8,1.31-10.87,3.71Z"/>
        <path class="cls-1" d="M5.64,150.94h0c5.27,0,10.53.98,16.06,2.99,0,.35-.02.69-.02,1.02-.02,8.14-2.76,18.47-5.42,28.46-3.03,11.41-6.17,23.2-5.32,31.97-4.03.09-7.6,1.29-10.62,3.59-.03-1.07-.06-2.15-.07-3.24.13-8.99.66-15.66,1.3-22.87-.43-18.66.48-30.04,3.38-41.91.24,0,.47,0,.71,0M5.64,150.69c-.3,0-.6,0-.91,0-2.93,11.93-3.86,23.51-3.43,42.16C.7,199.64.13,206.54,0,215.72c.02,1.26.05,2.51.09,3.74,3.14-2.52,6.85-3.8,11.13-3.84-1.75-16.37,10.67-43.11,10.71-60.67,0-.38.01-.78.02-1.19-5.17-1.9-10.56-3.07-16.31-3.07h0Z"/>
      </g>
      <g id="Hand-2" data-name="Hand">
        <g>
          <path d="M21.53,251.83c-4.85-1.82-8.83-6.57-8.92-6.92-.32-.85-.58-1.78-.79-2.87,1.12,1.56,3.91,3.48,6.4,5.2,2.04,1.41,4.15,2.87,4.15,3.42,0,.99-.69,1.14-.84,1.16Z"/>
          <path class="cls-1" d="M12.04,242.54c1.29,1.5,3.82,3.24,6.1,4.82,1.83,1.26,4.1,2.83,4.1,3.31,0,.84-.53,1-.7,1.03-4.4-1.66-8.41-6.06-8.8-6.78h0s-.03-.09-.03-.09c-.26-.68-.48-1.43-.67-2.29M11.56,241.37c.21,1.27.5,2.47.92,3.55-.08.25,4.13,5.22,9.03,7.04,0,0,.98-.07.98-1.29,0-1.37-9.69-6.37-10.93-9.3h0Z"/>
        </g>
        <g>
          <path d="M21.17,254.14c-.16,0-.29-.03-.29-.03-.03-.03-6.84-4.23-7.6-5.71-.66-1.29-.71-2.58-.7-3.15,1.55,1.88,3.8,3.33,5.79,4.61,1.99,1.28,3.71,2.38,3.71,3.38,0,.6-.31.9-.91.9Z"/>
          <path class="cls-1" d="M12.71,245.59c1.55,1.77,3.69,3.15,5.6,4.37,1.96,1.26,3.65,2.34,3.65,3.28,0,.19,0,.78-.79.78-.1,0-.18,0-.22-.02-1.93-1.19-6.94-4.46-7.55-5.66-.54-1.06-.67-2.11-.68-2.76M12.48,244.92s-.23,1.75.69,3.54c.78,1.53,7.69,5.78,7.69,5.78,0,0,.13.03.31.03.4,0,1.04-.14,1.04-1.03,0-2.12-6.61-4.29-9.73-8.32h0Z"/>
        </g>
        <g>
          <path d="M20.49,255.91c-3.47-.24-6.92-1.96-10.56-5.26-.72-.64-1.29-1.49-1.67-2.45-1.14-2.85-2.91-5.69-5.27-8.44-.86-1.01-1.4-2.22-1.55-3.49-.61-5.01-1.02-10.65-1.23-16.75,3.07-2.44,6.73-3.71,10.89-3.77.34,2.65,1.24,4.6,3.27,7.17,2.8,3.54,3.99,7.14,3.99,12.05,0,3,1.55,6.58,2.58,8.94.49,1.13.88,2.03.88,2.37,0,1.15-.84,1.56-1.56,1.56-.83,0-2.57-1.85-3.5-2.84l-.1-.1c-.58-.6-1.12-2.75-1.63-4.82-.35-1.39-.71-2.83-1.07-3.76-.59-1.48-1.62-2.15-2.33-2.15-.64,0-1.03.5-1.03,1.33,0,1.16.7,5.43.82,5.88v.02c.29,1.25.59,2.41.93,3.56.08.31.17.62.27.93,1.24,4.07,6.4,7.38,7.96,8.3.4.19.44.69.45,1.17.01.15-.04.28-.13.38-.1.1-.23.16-.37.16h-.04Z"/>
          <path class="cls-1" d="M11,215.88c.36,2.62,1.26,4.57,3.28,7.12,2.78,3.51,3.97,7.09,3.97,11.97,0,3.02,1.56,6.61,2.59,8.99.47,1.08.87,2.01.87,2.32,0,1.06-.77,1.43-1.43,1.43-.77,0-2.56-1.89-3.41-2.8l-.1-.1c-.56-.58-1.11-2.8-1.6-4.76-.36-1.46-.71-2.84-1.08-3.78-.53-1.31-1.53-2.23-2.45-2.23-.56,0-1.15.38-1.15,1.46s.61,4.92.8,5.8h0s.03.14.03.14c.29,1.25.59,2.41.92,3.56.08.31.17.63.27.94,1.25,4.11,6.45,7.45,8.03,8.38.33.16.36.61.37,1.07,0,.1-.03.2-.1.28-.07.08-.17.12-.31.12,0,0,0,0,0,0-3.44-.23-6.87-1.94-10.48-5.23-.7-.63-1.27-1.46-1.63-2.41-1.14-2.87-2.92-5.72-5.29-8.47-.84-.99-1.37-2.18-1.52-3.43-.61-5-1.02-10.61-1.22-16.67,3.01-2.38,6.59-3.62,10.66-3.7M11.22,215.62c-4.28.04-7.99,1.32-11.13,3.84.2,6.02.6,11.64,1.23,16.82.16,1.32.72,2.55,1.58,3.56,2.28,2.65,4.07,5.44,5.25,8.4.37.95.94,1.82,1.7,2.5,3.42,3.11,6.95,5.04,10.63,5.29.02,0,.03,0,.05,0,.37,0,.66-.31.63-.67,0-.46-.03-1.05-.51-1.28-1.54-.91-6.68-4.21-7.9-8.23-.1-.31-.19-.62-.27-.93-.37-1.27-.67-2.46-.92-3.55t0,0c-.07-.17-.82-4.68-.82-5.87,0-.82.39-1.21.9-1.21.72,0,1.68.74,2.22,2.08.91,2.3,1.72,7.57,2.73,8.62,1,1.06,2.78,2.98,3.69,2.98s1.68-.58,1.68-1.68-3.46-6.86-3.46-11.31-.95-8.25-4.02-12.13c-2.1-2.65-2.94-4.61-3.26-7.22h0Z"/>
        </g>
      </g>
    </g>
    <g id="Neck">
      <path d="M61,76.08c-9.55,0-19.29-1.74-28.96-5.19,2.3-.92,4.28-2.13,6.03-3.21,1.5-.92,2.92-1.79,4.32-2.35.51-.2,1.02-.4,1.51-.6,3.07-1.2,5.49-2.15,5.52-3.32v-13.37c3.12,1.93,10.4,4.42,11.31,4.42s8.2-2.49,11.32-4.42v13.36c.04,1.18,2.46,2.12,5.53,3.33.49.19.99.39,1.5.59,1.41.56,2.97,1.49,4.63,2.48,1.82,1.08,3.69,2.2,5.73,3.08-9.31,3.44-18.88,5.19-28.43,5.19Z"/>
      <path class="cls-1" d="M71.92,48.27v13.15c.04,1.25,2.5,2.22,5.61,3.43.49.19.99.39,1.49.59,1.4.56,2.96,1.49,4.61,2.47,1.66.99,3.51,2.09,5.46,2.96-9.21,3.37-18.66,5.08-28.1,5.08s-19.06-1.71-28.61-5.07c2.18-.91,4.07-2.06,5.74-3.09,1.49-.92,2.91-1.78,4.3-2.34.51-.2,1.02-.4,1.51-.59,3.11-1.22,5.57-2.18,5.6-3.44v-13.14c3.23,1.92,10.28,4.32,11.19,4.32s7.96-2.4,11.19-4.32M72.17,47.82c-2.96,1.92-10.56,4.52-11.44,4.52s-8.48-2.6-11.44-4.52v13.59c-.03,1.27-3.41,2.38-6.95,3.8-3.15,1.26-6.25,3.99-10.65,5.68h.01c9.75,3.51,19.53,5.31,29.3,5.31s19.23-1.74,28.77-5.31c-4.07-1.7-7.65-4.48-10.65-5.68-3.54-1.42-6.91-2.53-6.95-3.8v-13.59h0Z"/>
    </g>
    <g id="Head">
      <g id="Ear">
        <path d="M43.5,34.53c-1.39-.06-1.62-.95-1.91-2.06-.08-.31-.16-.63-.28-.94-.14-.41-.37-.85-.62-1.32-.46-.88-.97-1.87-.97-2.82,0-1.18.34-2.28,2.77-2.31,0,3.06.35,6.24,1.01,9.46Z"/>
        <path class="cls-1" d="M42.36,25.21c.02,2.98.35,6.07.98,9.19-1.15-.12-1.36-.9-1.64-1.96-.08-.31-.16-.63-.28-.95-.15-.42-.38-.87-.63-1.34-.45-.86-.96-1.84-.96-2.76,0-.74,0-2.1,2.52-2.19M42.61,24.95c-2.78,0-3.02,1.37-3.02,2.44,0,1.48,1.19,3,1.6,4.18.53,1.48.41,3.09,2.46,3.09-.62-2.97-1.04-6.28-1.04-9.71h0Z"/>
      </g>
      <g id="Head-2" data-name="Head">
        <path d="M60.73,52.22c-1.19-.16-9.67-2.85-12.26-5.21-1.11-1.24-3.38-6.04-4.7-12.37-.69-3.3-1.04-6.56-1.04-9.69C42.73,3.13,50.85.12,59.63.12h2.2c8.78,0,16.9,3.01,16.9,24.83,0,3.13-.35,6.39-1.04,9.69-1.32,6.33-3.59,11.13-4.71,12.38-2.56,2.33-11.1,5.06-12.25,5.2Z"/>
        <path class="cls-1" d="M59.63.25h.57s.53,0,.53,0h.53s.57,0,.57,0c3.48,0,7.48.26,10.76,3.31,3.99,3.7,6.01,10.9,6.01,21.4,0,3.12-.35,6.37-1.03,9.66-1.32,6.31-3.57,11.08-4.66,12.31-2.55,2.31-10.98,5.01-12.17,5.17-1.23-.17-9.61-2.85-12.15-5.15-1.11-1.24-3.36-6.02-4.68-12.32-.69-3.29-1.03-6.54-1.03-9.66,0-10.49,2.02-17.69,6.01-21.4C52.15.51,56.15.25,59.63.25M61.83,0c-.38,0-.75,0-1.1,0S60.01,0,59.63,0C53.17,0,42.61.68,42.61,24.95c0,3.43.42,6.74,1.04,9.71,1.32,6.32,3.57,11.13,4.74,12.44,2.65,2.41,11.26,5.11,12.34,5.24,1.08-.12,9.69-2.84,12.34-5.24,1.17-1.31,3.42-6.12,4.74-12.44.62-2.97,1.04-6.28,1.04-9.71C78.85.68,68.29,0,61.83,0h0Z"/>
      </g>
      <g id="Ear-2" data-name="Ear">
        <path d="M77.96,34.53c.66-3.22,1-6.4,1.01-9.46,2.43.04,2.77,1.13,2.77,2.31,0,.95-.52,1.94-.97,2.81-.25.47-.48.91-.62,1.32-.11.31-.19.62-.27.92-.29,1.13-.52,2.02-1.92,2.08Z"/>
        <path class="cls-1" d="M79.1,25.21c2.52.08,2.52,1.44,2.52,2.19,0,.92-.51,1.89-.96,2.76-.25.47-.48.92-.63,1.34-.11.31-.19.63-.27.93-.28,1.07-.48,1.86-1.64,1.98.63-3.13.96-6.21.98-9.19M78.85,24.95c0,3.43-.42,6.74-1.04,9.71,2.05,0,1.94-1.61,2.46-3.09.41-1.18,1.6-2.7,1.6-4.18,0-1.07-.24-2.44-3.02-2.44h0Z"/>
      </g>
    </g>
  </g>
</svg>