<svg width="84" height="82" viewBox="0 0 84 82" fill="none" xmlns="http://www.w3.org/2000/svg">
<g filter="url(#filter0_dd_58_1153)">
<path d="M16.6667 39.0663C16.6667 56.6787 24.7436 64.9717 47.9377 64.9717C65.5518 64.9717 66.6667 53.2979 66.6667 42.4627C66.6667 31.6275 61.338 16.6667 46.9955 16.6667C30.5853 16.6667 16.6667 21.4539 16.6667 39.0663Z" fill="#F4F5F6"/>
<path d="M34.8975 35.2949C34.9539 36.2205 35.0021 37.1522 35.0997 38.0742C35.1419 38.4731 35.1855 38.8756 35.2169 39.2754L35.711 45.835C35.8191 47.2342 35.8621 48.6468 35.9952 50.043C36.0192 50.2946 36.2585 50.531 36.421 50.708C36.8747 50.783 37.5614 50.7615 38.0421 50.7617H44.7608C45.5658 50.7624 46.3746 50.7674 47.1798 50.7568C47.5802 50.7516 47.703 50.6149 47.9659 50.335C48.0701 49.9427 48.1029 49.0601 48.1407 48.6035L48.4366 44.6601C48.6436 41.5655 48.9597 38.3851 49.0802 35.2959L51.4141 35.2939C51.3271 36.0058 51.3372 36.723 51.2618 37.4248C51.1454 39.2342 51.0169 41.0012 50.8507 42.8076C50.6863 44.5945 50.696 46.4095 50.4503 48.1963C50.3333 49.0467 50.4093 49.9607 50.2227 50.8096C50.1385 51.2143 49.7978 51.7281 49.5333 52.0332C49.0376 52.6049 48.1241 53.0492 47.3673 53.0674C46.5974 53.0859 45.7918 53.0779 45.0128 53.0781L40.6339 53.0791L37.9639 53.0781C36.7076 53.0777 35.7085 53.1571 34.6915 52.2598C33.5428 51.2461 33.6458 49.6968 33.5421 48.3027C33.4744 47.3932 33.4389 46.4788 33.3702 45.5703L32.8985 39.3213C32.7885 37.9317 32.6601 36.7064 32.585 35.292L34.8975 35.2949ZM42.7012 27.5322C43.4405 27.5228 44.2422 27.5165 44.9796 27.5527C45.1786 27.5625 45.4428 27.6484 45.6134 27.7539C46.2576 28.1526 46.4235 29.0332 46.6817 29.6943C46.7945 29.9831 46.9648 30.3619 47.0333 30.6504L50.1817 30.6455C51.1059 30.6447 52.6552 30.3907 52.793 31.6045C52.8373 31.9942 52.7601 32.3216 52.4776 32.5976C52.3064 32.7647 52.0883 32.8761 51.8526 32.917C51.4078 32.997 49.9832 32.9668 49.4688 32.9668L44.8009 32.9648L36.1417 32.9668H33.712C33.0075 32.9669 32.0532 33.0902 31.5128 32.5801C31.2983 32.3777 31.1753 32.0966 31.1719 31.8017C31.1682 31.4973 31.3063 31.1839 31.5186 30.9687C31.6628 30.823 31.8477 30.7244 32.0489 30.6855C32.3555 30.6248 33.3625 30.6451 33.7305 30.6455L36.9874 30.6514C37.1088 30.2862 37.238 29.918 37.3741 29.5586C37.7791 28.4887 37.9113 27.6171 39.254 27.541C40.3808 27.5011 41.567 27.5466 42.7012 27.5322Z" fill="url(#paint0_linear_58_1153)"/>
</g>
<defs>
<filter id="filter0_dd_58_1153" x="8.2016e-05" y="-9.53674e-06" width="83.3333" height="81.6384" filterUnits="userSpaceOnUse" color-interpolation-filters="sRGB">
<feFlood flood-opacity="0" result="BackgroundImageFix"/>
<feColorMatrix in="SourceAlpha" type="matrix" values="0 0 0 0 0 0 0 0 0 0 0 0 0 0 0 0 0 0 127 0" result="hardAlpha"/>
<feOffset dx="5.55556" dy="5.55556"/>
<feGaussianBlur stdDeviation="5.55556"/>
<feComposite in2="hardAlpha" operator="out"/>
<feColorMatrix type="matrix" values="0 0 0 0 0.2 0 0 0 0 0.164706 0 0 0 0 0.160784 0 0 0 0.16 0"/>
<feBlend mode="normal" in2="BackgroundImageFix" result="effect1_dropShadow_58_1153"/>
<feColorMatrix in="SourceAlpha" type="matrix" values="0 0 0 0 0 0 0 0 0 0 0 0 0 0 0 0 0 0 127 0" result="hardAlpha"/>
<feOffset dx="-5.55556" dy="-5.55556"/>
<feGaussianBlur stdDeviation="5.55556"/>
<feComposite in2="hardAlpha" operator="out"/>
<feColorMatrix type="matrix" values="0 0 0 0 1 0 0 0 0 1 0 0 0 0 1 0 0 0 1 0"/>
<feBlend mode="normal" in2="effect1_dropShadow_58_1153" result="effect2_dropShadow_58_1153"/>
<feBlend mode="normal" in="SourceGraphic" in2="effect2_dropShadow_58_1153" result="shape"/>
</filter>
<linearGradient id="paint0_linear_58_1153" x1="41.9883" y1="27.5242" x2="41.9883" y2="53.0799" gradientUnits="userSpaceOnUse">
<stop stop-color="#F8C6A0"/>
<stop offset="1" stop-color="#F4AA73"/>
</linearGradient>
</defs>
</svg>
