<?xml version="1.0" encoding="UTF-8"?>
<svg id="Female_Front" data-name="Female Front" xmlns="http://www.w3.org/2000/svg" viewBox="0 0 105.58 457.72">
  <path d="M67.86,457.59c-6.2,0-8.01-1.09-8.01-8.28,0-3.69.72-7.84,1.42-11.86.79-4.55,1.53-8.84,1.33-12.54-.1-2.36-.44-3.3-.74-4.12-.3-.82-.56-1.53-.56-3.41,0-1.99.34-2.5.7-3.03.4-.59.81-1.19.79-3.67-.93-15.83-3.1-53.62-3.14-62.88,2.69-26.12.25-58.14-1.89-86.39-1.32-17.35-2.57-33.73-2.51-46.95v-.2s-.18.09-.18.09c-.78.38-1.53.56-2.28.56s-1.5-.18-2.28-.55l-.09-.05-.06.09c.03,13.31-1.22,29.7-2.54,47.05-2.15,28.24-4.58,60.24-1.89,86.38-.03,9.24-2.2,47.04-3.14,62.86-.01,2.48.4,3.09.79,3.68.36.53.7,1.03.7,3.03,0,1.88-.26,2.59-.56,3.41-.3.83-.65,1.76-.74,4.13-.2,3.7.55,7.99,1.33,12.54.7,4.02,1.41,8.17,1.42,11.86,0,7.19-1.8,8.28-8.01,8.28h-1.83c-6.31,0-11.98-.62-11.98-8.18,0-5.15,2.19-11.94,3.95-17.4,1.08-3.34,2.01-6.23,2.24-8.07.37-2.38-.4-3.54-1.08-4.56-.48-.72-.9-1.35-.89-2.31,0-1.38.31-2.46.61-3.49.27-.94.52-1.83.53-2.87-2.52-20.45-6.75-55.93-6.76-64.03,4.97-24.4,1.42-52.61-2.01-79.89-2.89-22.97-5.88-46.71-3.57-67.52.24-11.17,7.05-26.18,11.55-36.12,1.53-3.38,2.86-6.31,3.62-8.39-.25-1.17-.93-4.39-1.8-8.48-2.12-10.04-5.32-25.21-6.13-27.22l-.19-.46-.05.5c-1.31,11.91-3.53,25.99-6.4,40.71,1.37,13.46-1.42,27.9-4.11,41.86-1.58,8.21-3.22,16.69-4.01,24.9,3.88,4.7,3.94,7.28,4.06,11.95.06,2.48.14,5.58.78,9.89.03.19,0,.35-.09.46-.12.14-.34.22-.62.22-.56,0-1.29-.31-1.55-.89-.6-1.31-1.15-3.14-1.69-4.92-.91-3.01-1.46-4.71-2.07-4.71-.22,0-.42.12-.59.33-1.45,1.77-1.16,11.05-.9,12.73,1.16,1.06,3.17,2.23,3.75,2.23.21,0,.59-.06,1.08-.14.69-.11,1.55-.25,2.18-.25.3,0,.8.03.8.27,0,.23-.13.48-.37.73-.72.73-2.24,1.28-3.53,1.28-.62,0-1.47-.12-2.04-.72l-.19.17c.86,1.07,1.86,1.6,3.05,1.6.9,0,1.76-.3,2.52-.56.57-.2,1.05-.37,1.44-.37s.61.18.75.59c-.23,1.51-2.81,2.56-5.08,2.56-1.07,0-1.98-.24-2.56-.67-.06-.17-.16-.42-.25-.68l-.24.06c.23,1.44,1.45,2.18,2.63,2.9,1.26.76,2.56,1.55,2.68,3.2,0,.13,0,.57-.78.57-1.51,0-4.54-1.6-6.23-3.29-6.88-7.8-5.72-17.84-4.6-27.55.25-2.14.5-4.35.66-6.47-3.71-37.37-2.9-57.11,2.81-68.16,1.39-10.56,1.35-19.03,1.32-27.21-.04-9.14-.07-17.77,1.86-28.37.37-3.52.52-6.6.66-9.32.63-12.59.87-17.3,19.49-21.67,15.09-3.02,15.06-4.29,14.84-14.22-.05-2.06-.1-4.39-.03-7.22-2.92-3.45-5.07-8.49-6.44-15.07l-.03-.13-.13.04c-.14.04-.27.06-.38.06-.86,0-1.04-1.1-1.21-2.16-.12-.73-.23-1.42-.58-1.72-.99-.94-1.81-3.3-1.33-4.52.21-.53.64-.8,1.29-.8.27,0,.58.05.92.14l.18.05-.03-.19c-1.68-11.39,1.43-17.79,4.34-21.16C42.91,2,47.14.1,51.85.1c.31,0,.62,0,.93.02.33-.02.64-.02.95-.02,4.71,0,8.93,1.89,11.9,5.33,2.91,3.37,6.02,9.77,4.34,21.17l-.03.19.18-.05c.34-.09.65-.14.92-.14.64,0,1.08.27,1.29.8.49,1.22-.34,3.59-1.33,4.52-.34.3-.45.99-.57,1.72-.17,1.06-.35,2.16-1.21,2.16-.12,0-.25-.02-.38-.06l-.13-.04-.03.13c-1.37,6.58-3.52,11.62-6.41,14.99l-.03,12.65c0,3.12,2.12,5.82,5.15,6.55,4.72,1,14.48,3.66,19.35,5.26,5.12,1.56,8.83,6.18,9.22,11.51.07.91,1.18,15.92,1.23,16.53,1.93,10.6,1.89,19.24,1.86,28.38-.03,8.19-.07,16.65,1.31,27.17,5.72,11.09,6.54,30.83,2.82,68.18.16,2.14.41,4.35.66,6.49,1.12,9.7,2.27,19.73-4.61,27.55-1.69,1.69-4.71,3.29-6.23,3.29h0c-.78,0-.78-.43-.78-.57.12-1.64,1.42-2.43,2.68-3.19,1.18-.72,2.41-1.46,2.63-2.9l-.24-.06c-.09.26-.18.51-.28.73-.54.39-1.46.62-2.53.62-2.27,0-4.85-1.05-5.08-2.62,0-.35.19-.51.62-.51.51,0,1.25.23,2.03.47.83.26,1.7.53,2.35.53.66-.04,1.42-.48,2.33-1.35l.85-.82-1,.62c-.43.26-1,.4-1.65.4-1.29,0-2.8-.55-3.52-1.28-.25-.25-.38-.5-.38-.73,0-.23.5-.27.8-.27.63,0,1.49.14,2.18.25.49.08.87.14,1.08.14.59,0,2.6-1.17,3.71-2.15.27-1.55.66-10.96-.86-12.81-.17-.21-.37-.32-.58-.33-.62,0-1.17,1.7-2.08,4.71-.54,1.78-1.1,3.61-1.69,4.92-.26.58-1,.89-1.55.89-.28,0-.5-.08-.62-.22-.09-.11-.12-.26-.09-.45.64-4.29.72-7.38.78-9.87.12-4.7.18-7.3,4.03-11.88-.76-8.31-2.4-16.79-3.98-25-2.7-13.96-5.49-28.39-4.11-41.82-2.87-14.75-5.09-28.83-6.4-40.75l-.05-.48-.19.45c-.73,1.75-3.71,15.87-5.9,26.18-1,4.74-1.79,8.49-2.04,9.45.76,2.12,2.07,5,3.58,8.34,4.52,9.98,11.36,25.05,11.6,36.23,2.31,20.77-.68,44.54-3.57,67.52-3.44,27.31-6.99,55.54-2.01,79.93,0,8.05-4.23,43.55-6.76,63.99,0,1.06.26,1.95.53,2.88.3,1.04.61,2.11.61,3.49,0,.96-.41,1.58-.89,2.31-.68,1.02-1.45,2.18-1.08,4.56.23,1.84,1.16,4.73,2.24,8.07,1.76,5.46,3.95,12.24,3.95,17.39,0,7.56-5.67,8.19-11.98,8.19h-1.83ZM97.43,257.29l.22.15c.05-.16.1-.33.15-.5l-.24-.07c-.04.14-.08.28-.13.42ZM7.84,257.15l.09.29.24-.08-.09-.29-.24.07ZM97.83,255.81c-.06.26-.12.51-.19.75l.24.06c.07-.25.13-.5.19-.76l-.24-.06ZM7.51,255.87c.06.26.12.51.19.76l.24-.06c-.07-.25-.13-.49-.19-.75l-.24.06ZM7.33,255.08l.08.35.25-.02-.08-.37-.24.05ZM98.15,254.29l.25.05.08-.43-.25-.04-.08.42ZM7.11,253.92l.08.42.25-.05-.07-.38h-.25ZM98.44,252.61l.25.04.08-.46-.24-.08-.08.5ZM6.81,252.16l.08.49.25-.04-.08-.49-.25.04Z"/>
  <path d="M53.73-.02V.23c4.67,0,8.87,1.88,11.81,5.29,5.24,6.06,5.24,14.8,4.31,21.07l-.06.38.37-.1c.33-.09.63-.14.88-.14.6,0,.98.23,1.17.72.46,1.16-.35,3.49-1.29,4.38-.38.33-.49,1.04-.62,1.8-.2,1.2-.39,2.05-1.09,2.05-.1,0-.22-.02-.35-.05l-.26-.07-.05.26c-1.36,6.56-3.51,11.58-6.38,14.93l-.06.07v12.66c0,3.18,2.16,5.92,5.26,6.67,4.71,1,14.46,3.65,19.34,5.26,5.07,1.54,8.74,6.12,9.13,11.4.07,1,1.18,15.94,1.23,16.56,1.92,10.58,1.89,19.21,1.85,28.34-.03,8.19-.07,16.66,1.31,27.19v.04s.03.04.03.04c5.7,11.03,6.51,30.75,2.8,68.11.16,2.12.41,4.33.66,6.47,1.11,9.67,2.27,19.67-4.57,27.44-1.67,1.67-4.66,3.25-6.14,3.25-.65,0-.65-.32-.65-.43.11-1.58,1.33-2.32,2.62-3.1,1.21-.73,2.46-1.49,2.69-2.99l-.48-.12c-.09.26-.17.47-.25.66-.56.39-1.43.61-2.44.61-2.17,0-4.74-1.03-4.95-2.48,0-.23.08-.29.11-.32.08-.06.21-.09.39-.09.49,0,1.25.24,1.99.46.84.26,1.71.53,2.4.53h0c.68-.04,1.46-.48,2.38-1.36.33-.21.59-.49.78-.82l.48-.86-.06.32.49.09.08-.43-.45-.08.55-.99-1.5,1.66c-.24.27-.47.51-.69.72-.4.24-.94.37-1.56.37-1.26,0-2.73-.53-3.44-1.24-.22-.22-.34-.45-.34-.64,0-.02.03-.05.1-.07.08-.03.25-.07.57-.07.62,0,1.47.14,2.16.25.49.08.88.14,1.1.14.53,0,2.11-.86,3.27-1.75l-.05.33v.04s.5,0,.5,0l.07-.43-.36-.06c.13-.1.25-.21.37-.31l.07-.06v-.09c.24-1.49.63-10.96-.91-12.83-.2-.24-.42-.37-.69-.38-.67,0-1.13,1.32-2.19,4.8-.54,1.77-1.1,3.61-1.69,4.91-.23.51-.91.82-1.44.82-.24,0-.43-.06-.53-.18-.07-.08-.09-.2-.06-.36.64-4.3.72-7.39.78-9.88.12-4.68.18-7.25,4-11.81l.07-.08v-.1c-.8-8.22-2.43-16.71-4.02-24.92-2.7-13.95-5.48-28.38-4.11-41.79v-.04s0-.04,0-.04c-2.87-14.71-5.09-28.78-6.4-40.7l-.11-.96-.37.9c-.73,1.76-3.72,15.89-5.9,26.21-1,4.74-1.79,8.49-2.03,9.44l-.02.07.03.07c.76,2.05,2.06,4.94,3.58,8.28,4.52,9.97,11.35,25.03,11.59,36.2,2.31,20.75-.68,44.5-3.57,67.48-3.44,27.31-6.99,55.55-2.02,79.95,0,8.13-4.23,43.57-6.75,64.01,0,1.06.26,1.95.54,2.9.3,1.03.6,2.09.6,3.46,0,.92-.4,1.53-.87,2.23-.69,1.04-1.48,2.22-1.1,4.64.23,1.86,1.16,4.75,2.24,8.1,1.76,5.45,3.94,12.23,3.94,17.36,0,7.46-5.37,8.06-11.85,8.06h-.93s-.91,0-.91,0c-6.11,0-7.88-1.07-7.88-8.15,0-3.68.72-7.83,1.42-11.84.79-4.56,1.53-8.86,1.33-12.57-.1-2.38-.44-3.33-.75-4.16-.3-.81-.55-1.51-.55-3.37,0-1.95.33-2.44.68-2.96.41-.6.83-1.23.81-3.75-.93-15.82-3.1-53.61-3.14-62.84,2.69-26.14.26-58.17-1.89-86.43-1.32-17.34-2.57-33.73-2.51-46.94v-.4s-.36.17-.36.17c-.77.37-1.5.54-2.23.54s-1.46-.18-2.22-.54l-.15-.07-.12.11-.03.02-.07.05v.12c.05,13.23-1.19,29.61-2.51,46.96-2.15,28.24-4.58,60.25-1.89,86.38-.03,9.26-2.2,47.05-3.13,62.88-.01,2.51.41,3.14.81,3.74.35.51.68,1,.68,2.96,0,1.86-.26,2.56-.55,3.37-.31.84-.65,1.78-.75,4.16-.2,3.71.55,8.01,1.33,12.57.69,4.01,1.41,8.16,1.42,11.84,0,7.08-1.78,8.15-7.88,8.15h-.91s-.93,0-.93,0c-6.48,0-11.85-.61-11.85-8.06,0-5.13,2.19-11.91,3.94-17.36,1.08-3.35,2.01-6.24,2.24-8.09.38-2.43-.4-3.61-1.1-4.65-.47-.71-.88-1.32-.87-2.24,0-1.37.31-2.43.6-3.46.27-.95.53-1.84.53-2.93-2.52-20.41-6.74-55.84-6.75-63.98,4.97-24.44,1.42-52.65-2.01-79.93-2.89-22.96-5.88-46.7-3.57-67.51.24-11.13,7.04-26.13,11.54-36.06,1.53-3.39,2.86-6.31,3.62-8.4l.03-.07-.02-.07c-.26-1.1-.94-4.33-1.8-8.41-2.12-10.04-5.32-25.21-6.13-27.23l-.37-.92-.11.99c-1.32,11.91-3.53,25.99-6.4,40.7v.04s0,.04,0,.04c1.37,13.41-1.41,27.83-4.11,41.79-1.59,8.21-3.23,16.7-4.01,24.92v.1s.06.08.06.08c3.83,4.58,3.88,6.98,4,11.78.06,2.49.14,5.59.79,9.91.03.15,0,.27-.06.35-.09.11-.29.18-.53.18-.52,0-1.21-.31-1.44-.82-.59-1.3-1.15-3.13-1.69-4.91-1.06-3.48-1.52-4.8-2.2-4.8h0c-.25.01-.48.14-.68.38-1.54,1.89-1.16,11.35-.92,12.83v.09s.08.06.08.06c.12.11.25.22.39.33l-.38.06.08.49.49-.08-.06-.36c1.16.89,2.74,1.75,3.27,1.75.22,0,.61-.06,1.1-.14.69-.11,1.54-.25,2.16-.25.56,0,.67.11.67.14,0,.19-.11.41-.34.64-.7.71-2.18,1.24-3.44,1.24-.59,0-1.41-.12-1.93-.66-.1-.12-.2-.26-.29-.4l-.42.26c.09.17.21.33.33.45.89,1.11,1.92,1.64,3.15,1.64.92,0,1.79-.3,2.56-.56.56-.19,1.04-.36,1.4-.36.23,0,.47.06.61.45-.27,1.45-2.8,2.45-4.95,2.45-1.01,0-1.88-.22-2.44-.61-.08-.19-.16-.4-.25-.66l-.48.12c.24,1.5,1.49,2.25,2.69,2.99,1.29.78,2.51,1.52,2.62,3.09,0,.13,0,.45-.65.45-1.49,0-4.47-1.58-6.13-3.24-6.85-7.76-5.69-17.77-4.58-27.45.25-2.14.5-4.35.66-6.52-3.71-37.32-2.9-57.04,2.8-68.07l.02-.04v-.04c1.38-10.53,1.35-19,1.32-27.19-.04-9.13-.07-17.76,1.86-28.36.37-3.51.52-6.6.66-9.32.63-12.52.86-17.21,19.39-21.56,15.19-3.04,15.16-4.33,14.94-14.35-.05-2.06-.1-4.39-.03-7.21v-.1s-.06-.07-.06-.07c-2.87-3.35-5.02-8.37-6.38-14.93l-.05-.26-.26.07c-.13.04-.25.05-.35.05-.7,0-.89-.85-1.09-2.05-.12-.75-.24-1.46-.61-1.79-.95-.89-1.76-3.23-1.3-4.39.19-.48.57-.72,1.17-.72.26,0,.56.05.88.14l.37.1-.06-.38c-1.67-11.34,1.42-17.71,4.31-21.06C42.98,2.11,47.18.23,51.85.23c.31,0,.61,0,.95.02.31-.02.62-.02.93-.02V-.02M7.06,254.36l.49-.09-.08-.42-.49.09.08.42M98.28,255.48l.03-.16.05-.23-.49-.1-.05.25-.03.13.49.11M7.26,255.33h0l.03.15.49-.11-.03-.15-.05-.23-.49.1.05.23M98,256.66c.07-.25.13-.5.19-.77l-.49-.11c-.06.26-.12.51-.19.75l.48.13M7.58,256.66l.48-.13c-.06-.24-.13-.49-.19-.75l-.49.11c.06.26.12.51.19.76M97.76,257.48c.03-.11.07-.22.1-.33.03-.09.06-.19.08-.29l-.48-.13c-.03.09-.05.19-.08.28l-.1.32.48.15M7.72,257.16h0l.1.31.47-.18-.09-.28c-.03-.09-.06-.19-.08-.29l-.48.13c.03.1.06.2.09.3M53.73-.02c-.31,0-.62,0-.94.02-.31-.02-.62-.02-.93-.02-10.43,0-18.96,9.12-16.37,26.64-.36-.1-.68-.15-.95-.15-2.64,0-1.42,4.24-.04,5.54.79.7.28,3.91,1.87,3.91.13,0,.26-.02.42-.06,1.27,6.14,3.37,11.47,6.44,15.04-.38,16.73,3.33,17.71-14.71,21.32-22.8,5.35-18.19,11.51-20.25,31.09-3.65,20.1-.26,33.3-3.17,55.55-5.71,11.06-6.55,30.73-2.82,68.21-.85,11.54-4.49,24.5,3.98,34.11,1.76,1.76,4.81,3.33,6.32,3.33.55,0,.9-.21.9-.7-.23-3.28-4.86-3.21-5.32-6.11.09.27.19.52.29.74.65.48,1.61.7,2.64.7,2.31,0,4.97-1.09,5.2-2.73-.16-.5-.47-.68-.87-.68-.93,0-2.39.92-3.95.92-.98,0-2-.36-2.95-1.55-.12-.12-.22-.26-.3-.41.1.15.2.28.3.41.52.54,1.3.76,2.13.76,1.88,0,4.03-1.11,4.02-2.13,0-.29-.38-.39-.92-.39-1.08,0-2.77.39-3.26.39-.51,0-2.46-1.08-3.63-2.12-.27-1.74-.64-12.84,1.37-12.92.94,0,2.21,6.4,3.65,9.56.28.61,1.05.97,1.67.97.52,0,.94-.26.84-.82-1.88-12.52,1.07-14.73-4.84-21.81,2.12-22.2,10.3-45.42,8.12-66.75,2.68-13.73,4.99-27.91,6.4-40.72,1.13,2.82,7.03,31.82,7.92,35.61-3.04,8.29-14.86,29.62-15.18,44.54-5.03,45.33,14.78,102.29,5.58,147.43,0,8.08,4.24,43.66,6.76,64.03-.01,2.17-1.14,3.7-1.14,6.36-.02,2.41,2.59,2.87,1.97,6.85-.6,4.87-6.19,17.19-6.19,25.48s6.16,8.31,12.1,8.31c.62,0,1.23,0,1.84,0,6.42,0,8.13-1.33,8.13-8.4-.01-7.75-3.13-17.35-2.75-24.4.19-4.61,1.3-3.67,1.3-7.54,0-4.2-1.52-1.97-1.49-6.69,1.17-19.85,3.1-54.08,3.13-62.88-4.33-42.06,4.55-98.38,4.41-133.34,0,0,0,0,0,0,.79.38,1.56.57,2.33.57s1.54-.19,2.34-.57c-.14,34.94,8.74,91.31,4.41,133.35.03,8.8,1.97,43.03,3.14,62.88.03,4.72-1.49,2.5-1.49,6.69,0,3.87,1.12,2.93,1.3,7.54.38,7.05-2.74,16.65-2.75,24.4,0,7.07,1.71,8.4,8.13,8.4.6,0,1.22,0,1.84,0,5.94,0,12.1-.37,12.1-8.31s-5.59-20.61-6.19-25.48c-.63-3.97,1.99-4.44,1.97-6.85,0-2.66-1.12-4.19-1.14-6.36,2.51-20.37,6.75-55.96,6.75-64.03-9.2-45.07,10.62-102.19,5.59-147.43-.32-14.9-12.14-36.3-15.18-44.54.75-2.99,6.86-33.05,7.93-35.61,1.42,12.82,3.72,26.99,6.4,40.72-2.18,21.33,6,44.55,8.12,66.75-5.89,7.03-2.97,9.32-4.84,21.81-.1.57.31.82.84.82.62,0,1.39-.35,1.67-.97,1.44-3.16,2.71-9.56,3.65-9.56,2,.09,1.64,11.17,1.37,12.92-1.17,1.04-3.12,2.12-3.63,2.12-.49,0-2.18-.39-3.26-.39-.54,0-.92.1-.92.39,0,1.02,2.14,2.13,4.02,2.13.63,0,1.23-.13,1.71-.42.25-.24.49-.5.72-.75-.18.32-.43.57-.72.75-.72.7-1.52,1.27-2.24,1.31-1.24,0-3.28-1-4.38-1-.45,0-.74.17-.74.66.24,1.64,2.89,2.73,5.2,2.73,1.03,0,1.99-.22,2.64-.7.1-.22.2-.47.29-.74-.46,2.9-5.08,2.83-5.32,6.11,0,.49.35.7.9.7,1.51,0,4.56-1.56,6.32-3.33,8.47-9.63,4.83-22.55,3.98-34.11,3.72-37.48,2.89-57.15-2.82-68.21-2.91-22.24.49-35.44-3.17-55.55-.05-.6-1.15-15.39-1.23-16.53-.4-5.42-4.11-10.04-9.31-11.62-4.76-1.57-14.46-4.23-19.36-5.27-2.97-.71-5.06-3.37-5.06-6.42v-12.57c3.06-3.57,5.16-8.91,6.44-15.04.15.04.29.06.42.06,1.59,0,1.08-3.22,1.87-3.91,1.37-1.3,2.59-5.54-.04-5.54-.27,0-.59.05-.95.15C72.68,9.09,64.15-.02,53.73-.02h0ZM98.57,252.56c.02-.15.05-.3.07-.43-.02.14-.05.28-.07.43,0,.02,0,.05-.01.07,0-.02,0-.05.01-.07h0ZM7.01,252.63c-.03-.17-.05-.33-.08-.49.02.15.05.31.08.49h0ZM98.27,254.32c.03-.14.05-.28.08-.42-.03.14-.05.28-.08.42h0ZM7.31,254.31c-.03-.14-.05-.28-.08-.42.03.14.05.28.08.42h0ZM98.08,255.27c.02-.07.03-.15.05-.22-.02.08-.03.15-.05.22-.01.05-.02.1-.03.16.01-.05.02-.1.03-.16h0ZM7.5,255.28c-.02-.08-.03-.15-.05-.23.02.08.03.15.05.23.01.05.02.1.03.15-.01-.05-.02-.1-.03-.15h0ZM97.76,256.6c.07-.25.13-.5.19-.76-.06.26-.12.51-.19.76h0ZM7.82,256.59c-.07-.25-.13-.5-.19-.75.06.26.12.51.19.75h0ZM97.71,256.79c-.03.1-.05.19-.08.28-.03.11-.07.22-.1.33.03-.11.07-.22.1-.33.03-.09.06-.19.08-.28h0ZM7.96,257.09c-.03-.1-.06-.19-.09-.29.03.1.06.2.09.29.03.11.06.21.1.31-.03-.1-.07-.21-.1-.31h0Z"/>
</svg>