<?xml version="1.0" encoding="UTF-8"?>
<svg id="Male" xmlns="http://www.w3.org/2000/svg" viewBox="0 0 121.46 459.06">
  <path d="M120.16,192.86c.43-18.65-.5-30.23-3.43-42.16-.31-1.95-.47-4.5-.41-9.33.09-7.24-1.45-24.19-.89-37.55,1.99-10.71-3.19-25.08-10.9-27.71-2.95-1.31-10.67-3.9-14.76-5.22-4.07-1.7-7.65-4.48-10.65-5.68-3.54-1.42-6.91-2.53-6.95-3.8,0,0,0-13.63,0-13.63,2.52-1.87,3.86-5.94,5.64-13.12,2.05,0,1.94-1.61,2.46-3.09,1-2.28,3.77-6.42-1.42-6.62C78.85-.76,67,0,60.73,0s-18.12-.76-18.12,24.95c-5.19.19-2.42,4.34-1.42,6.62.53,1.48.41,3.09,2.46,3.09,1.79,7.18,3.12,11.24,5.64,13.12,0,0,0,13.63,0,13.63-.03,1.27-3.41,2.38-6.95,3.8-3.15,1.26-6.25,3.99-10.65,5.68-4.09,1.32-11.81,3.92-14.76,5.22-7.71,2.65-12.9,16.98-10.9,27.71.22,18.3-.77,34.13-1.3,46.88-2.93,11.93-3.87,23.51-3.43,42.16-1.34,12.11-1.83,30.39.02,43.42.16,1.32.72,2.55,1.58,3.56,3.36,3.29,4.23,7.55,6.95,10.9,1.73,2.38,13.23,8.31,10.95,3.46,1.09.47,2.13-1.03.69-2.25,4.61-1.67-9-7.28-9.93-10.58t0,0c-.07-.17-.82-4.68-.82-5.87,0-1.96,2.2-1.43,3.12.87.91,2.3,1.72,7.57,2.73,8.62,1.53,1.8,4.72,4.91,5.37,1.3,0-1.1-3.46-6.86-3.46-11.31.93-8.32-6.22-12.37-7.28-19.35-1.75-16.37,10.67-43.11,10.71-60.67.08-9.9,4.83-29.03,7.14-34.18,2.99,10.2,5.03,21.06,4.56,32.7-.6,12.58-4.66,16.32-7.27,30.4-1.61,8.45-2.27,20.25-2.23,30.7,0,64.2,8.58,67.53,8.72,90.43-.1,14.59-4.96,26.51-4.79,42.15,0,16.67,9.8,55.16,9.39,62.5-1,9.31-2.88,6.41.48,14.71-.8,4.52-6.24,18.43-6.28,26.36,0,7.96,6.47,8.34,14,8.34s8.16-1.05,8.16-8.43c-.01-8.15-3.13-17.77-2.76-24.48.21-4.25,1.31-3.81,1.31-7.59,0-1.77-1.62-2.59-2.14-5.57-.18-1.02-.33-2.15-.45-3.32-2.28-25.12,3.59-43.65,3.79-85.5.46-5.76,2.46-11.02,3.04-17.75.67-11.88-1.57-28.15-1.49-43.32.18-18.16,4.76-36.26,2.85-48.23,1.6.72,3.94.72,5.54,0-1.91,11.97,2.67,30.07,2.85,48.23.08,15.17-2.16,31.44-1.49,43.32.58,6.73,2.58,11.99,3.04,17.75.09,43.89,6.78,61.04,3.34,88.82-.52,2.98-2.14,3.8-2.14,5.57,0,3.78,1.1,3.34,1.31,7.59.37,6.71-2.75,16.33-2.76,24.48,0,7.38.64,8.43,8.16,8.43s14-.38,14-8.34c0-7.28-5.27-21.82-6.15-25.6-.68-2.23,1.88-4.23,1.88-6.56-5.01-14.43,7.79-48.17,7.86-71.41.17-15.63-4.69-27.56-4.79-42.15.14-22.9,8.72-26.23,8.72-90.43.04-10.45-.61-22.23-2.22-30.65,0,0,0,0,0,0-2.61-14.11-6.67-17.85-7.28-30.43-.47-9.28,1.11-19.47,3.09-27.31,0,0,0,0,0,0,.39-1.63.9-3.5,1.47-5.41,2.31,5.15,7.05,24.28,7.14,34.18.04,17.56,12.46,44.3,10.71,60.67-1.05,6.95-8.22,11.07-7.28,19.35,0,4.45-3.46,10.21-3.46,11.31.65,3.6,3.84.51,5.37-1.3,1.01-1.05,1.82-6.32,2.73-8.62.92-2.3,3.12-2.83,3.12-.87,0,1.19-.75,5.7-.82,5.87t0,0c-.93,3.31-14.54,8.91-9.93,10.58-1.43,1.22-.39,2.72.69,2.25-2.45,5.53,12.54-2.65,12.65-5.96,1.15-4.33,5.81-7.47,6.83-11.96,1.85-13.03,1.36-31.31.02-43.42ZM12.48,244.92s0,0,0,0c0,0,0,0,0,0,0,0,0,0,0,0,0,0,0,0,0,0ZM108.98,244.92s0,0,0,0c0,0,0,0,0,0,0,0,0,0,0,0,0,0,0,0,0,0Z"/>
</svg>