<svg width="75" height="74" viewBox="0 0 75 74" fill="none" xmlns="http://www.w3.org/2000/svg">
<g filter="url(#filter0_dd_61_1068)">
<path d="M62.5 38.4054C62.5 20.7931 54.4232 12.5 31.2291 12.5C13.6149 12.5 12.5 24.1739 12.5 35.009C12.5 45.8442 17.8287 60.8051 32.1713 60.8051C48.5814 60.8051 62.5 56.0178 62.5 38.4054Z" fill="#F4F5F6"/>
<path d="M37.1137 24.0482C38.3849 23.9784 39.9708 24.2914 41.1498 24.7816C43.469 25.7382 45.3143 27.5753 46.2817 29.89C48.9904 36.4803 42.9774 44.096 38.933 48.7514C38.5812 49.1563 38.2822 49.4498 37.7817 49.6527C37.2445 49.7401 36.7289 49.6184 36.3539 49.2025C32.8145 45.2773 28.0976 39.2876 27.894 33.808C27.7838 31.3246 28.6814 28.9021 30.3832 27.0902C32.1386 25.2295 34.5572 24.1363 37.1137 24.0482ZM37.1235 26.4408C37.0861 26.4421 37.0012 26.4486 36.9682 26.4545C34.8447 26.6634 33.1594 27.4594 31.7875 29.1351C30.6291 30.5665 30.0894 32.4011 30.2875 34.2318C30.621 37.4969 33.4068 41.8586 35.3754 44.3969C35.7842 44.9157 36.2023 45.4272 36.6293 45.931C36.8365 46.1752 37.2768 46.663 37.4193 46.9027C37.5205 46.7693 37.607 46.6517 37.7221 46.5287C40.5008 43.4055 44.8653 37.3437 44.6059 33.0394C44.4863 31.2002 43.6411 29.4832 42.2563 28.267C40.8592 27.0303 38.9984 26.3778 37.1235 26.4408Z" fill="url(#paint0_linear_61_1068)"/>
<path d="M33.6941 32.4154C35.0679 32.3624 36.5822 32.4369 37.9756 32.409C38.9988 32.4135 40.0227 32.3938 41.0454 32.4199C41.7613 32.4383 42.134 32.9767 42.2663 33.6228C42.2176 33.8298 42.1376 34.0282 42.0289 34.211C41.8243 34.5598 41.6176 34.6634 41.2548 34.7581C40.8566 34.7939 40.301 34.7779 39.8917 34.7777L37.709 34.7784L35.234 34.7797C34.7604 34.7798 33.602 34.8556 33.2066 34.605C32.6252 34.2365 32.4958 33.4212 32.9249 32.8766C33.1857 32.5456 33.287 32.504 33.6941 32.4154Z" fill="url(#paint1_linear_61_1068)"/>
</g>
<defs>
<filter id="filter0_dd_61_1068" x="4.76837e-07" y="4.76837e-07" width="75" height="73.3051" filterUnits="userSpaceOnUse" color-interpolation-filters="sRGB">
<feFlood flood-opacity="0" result="BackgroundImageFix"/>
<feColorMatrix in="SourceAlpha" type="matrix" values="0 0 0 0 0 0 0 0 0 0 0 0 0 0 0 0 0 0 127 0" result="hardAlpha"/>
<feOffset dx="4.16667" dy="4.16667"/>
<feGaussianBlur stdDeviation="4.16667"/>
<feComposite in2="hardAlpha" operator="out"/>
<feColorMatrix type="matrix" values="0 0 0 0 0.2 0 0 0 0 0.164706 0 0 0 0 0.160784 0 0 0 0.16 0"/>
<feBlend mode="normal" in2="BackgroundImageFix" result="effect1_dropShadow_61_1068"/>
<feColorMatrix in="SourceAlpha" type="matrix" values="0 0 0 0 0 0 0 0 0 0 0 0 0 0 0 0 0 0 127 0" result="hardAlpha"/>
<feOffset dx="-4.16667" dy="-4.16667"/>
<feGaussianBlur stdDeviation="4.16667"/>
<feComposite in2="hardAlpha" operator="out"/>
<feColorMatrix type="matrix" values="0 0 0 0 1 0 0 0 0 1 0 0 0 0 1 0 0 0 1 0"/>
<feBlend mode="normal" in2="effect1_dropShadow_61_1068" result="effect2_dropShadow_61_1068"/>
<feBlend mode="normal" in="SourceGraphic" in2="effect2_dropShadow_61_1068" result="shape"/>
</filter>
<linearGradient id="paint0_linear_61_1068" x1="37.4223" y1="24.0385" x2="37.4223" y2="49.6794" gradientUnits="userSpaceOnUse">
<stop stop-color="#C0EBF9"/>
<stop offset="1" stop-color="#A1E9FF"/>
</linearGradient>
<linearGradient id="paint1_linear_61_1068" x1="37.4688" y1="32.3958" x2="37.4688" y2="34.7905" gradientUnits="userSpaceOnUse">
<stop stop-color="#C0EBF9"/>
<stop offset="1" stop-color="#A1E9FF"/>
</linearGradient>
</defs>
</svg>
